<mxfile host="65bd71144e">
    <diagram id="59oZCnlWF7xhFVy2X1Af" name="ページ1">
        <mxGraphModel dx="1421" dy="540" grid="1" gridSize="10" guides="1" tooltips="1" connect="1" arrows="1" fold="1" page="1" pageScale="1" pageWidth="1654" pageHeight="1169" math="0" shadow="0">
            <root>
                <mxCell id="0"/>
                <mxCell id="1" parent="0"/>
                <mxCell id="5" value="データソース" style="rounded=1;whiteSpace=wrap;html=1;labelPosition=center;verticalLabelPosition=bottom;align=center;verticalAlign=top;" vertex="1" parent="1">
                    <mxGeometry x="90" y="110" width="120" height="370" as="geometry"/>
                </mxCell>
                <mxCell id="2" value="" style="shape=cylinder3;whiteSpace=wrap;html=1;boundedLbl=1;backgroundOutline=1;size=15;" vertex="1" parent="1">
                    <mxGeometry x="120" y="150" width="60" height="80" as="geometry"/>
                </mxCell>
                <mxCell id="3" value="" style="shape=cylinder3;whiteSpace=wrap;html=1;boundedLbl=1;backgroundOutline=1;size=15;" vertex="1" parent="1">
                    <mxGeometry x="120" y="250" width="60" height="80" as="geometry"/>
                </mxCell>
                <mxCell id="4" value="" style="shape=cylinder3;whiteSpace=wrap;html=1;boundedLbl=1;backgroundOutline=1;size=15;" vertex="1" parent="1">
                    <mxGeometry x="120" y="360" width="60" height="80" as="geometry"/>
                </mxCell>
                <mxCell id="6" value="自動収集" style="rounded=1;whiteSpace=wrap;html=1;labelPosition=center;verticalLabelPosition=bottom;align=center;verticalAlign=top;" vertex="1" parent="1">
                    <mxGeometry x="320" y="110" width="120" height="370" as="geometry"/>
                </mxCell>
                <mxCell id="7" value="" style="shape=image;imageAspect=0;aspect=fixed;verticalLabelPosition=bottom;verticalAlign=top;image=data:image/jpeg,/9j/4AAQSkZJRgABAQEAAAAAAAD/4QBCRXhpZgAATU0AKgAAAAgAAYdpAAQAAAABAAAAGgAAAAAAAkAAAAMAAAABAAAAAEABAAEAAAABAAAAAAAAAAAAAP/bAEMACwkJBwkJBwkJCQkLCQkJCQkJCwkLCwwLCwsMDRAMEQ4NDgwSGRIlGh0lHRkfHCkpFiU3NTYaKjI+LSkwGTshE//bAEMBBwgICwkLFQsLFSwdGR0sLCwsLCwsLCwsLCwsLCwsLCwsLCwsLCwsLCwsLCwsLCwsLCwsLCwsLCwsLCwsLCwsLP/AABEIAdoB2gMBIgACEQEDEQH/xAAfAAABBQEBAQEBAQAAAAAAAAAAAQIDBAUGBwgJCgv/xAC1EAACAQMDAgQDBQUEBAAAAX0BAgMABBEFEiExQQYTUWEHInEUMoGRoQgjQrHBFVLR8CQzYnKCCQoWFxgZGiUmJygpKjQ1Njc4OTpDREVGR0hJSlNUVVZXWFlaY2RlZmdoaWpzdHV2d3h5eoOEhYaHiImKkpOUlZaXmJmaoqOkpaanqKmqsrO0tba3uLm6wsPExcbHyMnK0tPU1dbX2Nna4eLj5OXm5+jp6vHy8/T19vf4+fr/xAAfAQADAQEBAQEBAQEBAAAAAAAAAQIDBAUGBwgJCgv/xAC1EQACAQIEBAMEBwUEBAABAncAAQIDEQQFITEGEkFRB2FxEyIygQgUQpGhscEJIzNS8BVictEKFiQ04SXxFxgZGiYnKCkqNTY3ODk6Q0RFRkdISUpTVFVWV1hZWmNkZWZnaGlqc3R1dnd4eXqCg4SFhoeIiYqSk5SVlpeYmZqio6Slpqeoqaqys7S1tre4ubrCw8TFxsfIycrS09TV1tfY2dri4+Tl5ufo6ery8/T19vf4+fr/2gAMAwEAAhEDEQA/APXKKKKACiiigAooooAKKKKACiiigAooooAKKKKACiiigAooooAKKKKACiiigAooooAKKKKACiiigAooooAKKKKACiiigAooooAKKKKACiiigAooooAKKKKACiiigAooooAKKKKACiiigAooooAKKKKACiiigAooooAKKKKACiiigAooooAKKKKACiiigAooooAKKKKACiiigAooooAKKKKACiiigAooooAKKKKACiiigAooooAKKKKACiiigAooooAKKKKACiiigAooooAKKKKACiiigAooooAKKKKACiiigAooooAKKKKACiiigAooooAKKKKACiiigAooooAKKKKACiiigAooooAKKKKACiimtJEmN7ouem5gucemaLX2DYdRVY6hpakq19ZhgSCDcRAgjsQWqF9a0KNir6lZBhg48+M9foa2VCrLaL+4ydamt5L7y/RWd/bvh/8A6Cdl/wB/k/xo/t3w/wD9BOy/7/J/jVfVq38j+5i+sUv5196NGis7+3fD/wD0E7L/AL/J/jR/bvh//oJ2X/f5P8aPq1b+R/cw+sUv5196NGis7+3fD/8A0E7L/v8AJ/jR/bvh/wD6Cdl/3+T/ABo+rVv5H9zD6xS/nX3o0aKzv7d8P/8AQTsv+/yf40f274f/AOgnZf8Af5P8aPq1b+R/cw+sUv5196NGis7+3fD/AP0E7L/v8n+NQnxL4bUlTqMOQSDgSMOPQhcU1hK72pv7mS8TRW8196Neisj/AISbw1/0EYv++Zf/AImj/hJvDX/QRi/75l/+JqvqWJ/59y+5i+t0P5196Neisj/hJvDX/QRi/wC+Zf8A4mj/AISbw1/0EYv++Zf/AImj6lif+fcvuYfW6H86+9GvRWaNd8PkA/2nZ888zIP0NL/bvh//AKCdl/3+T/Go+q1/5H9zK+sUv5196NGis7+3fD//AEE7L/v8n+NH9u+H/wDoJ2X/AH+T/Gj6tW/kf3Mf1il/OvvRo0Vnf274f/6Cdl/3+T/Gj+3fD/8A0E7L/v8AJ/jR9WrfyP7mH1il/OvvRo0Vnf274f8A+gnZf9/k/wAaP7d8P/8AQTsv+/yf40fVq38j+5h9Ypfzr70aNFZ39u+H/wDoJ2X/AH+T/Gj+3fD/AP0E7L/v8n+NH1at/I/uYfWKX86+9GjRVX+0tJ/5/wCy/wDAiH/4qpkuLWTb5c8L7uV2SI276YNZOnOO6ZaqRezJKKKKgsKKKKACiiigAooooAKKKKACiiigAooooAKKKKACiiigAooooAKKKKACiiigAooooAKbJJFCjSSyJHGoyzyMFVR7luKwNZ8U2Gm74Lfbc3oyCin91Ef+mjDv7D9K4DUNV1PVJN95OzgfciX5YU/3UHH49a93A5JXxSU5+7H8X6I8bGZvRw3ux96X4fNneX3jHRbUslv5l5IP+ePyxZ95H/oDXOXXjTW5si3WC1XttXzX692k4/8AHf8A63M0V9Xh8lwlH7PM/PX8NvwPma+b4qrtLlXl/Vy9PrGtXBPnahdtk5wJXRcj0VCB+lUmZm5ZmY8/eJPX60lFetCnCmrQSXoebKpOesm2JgelFLRVkBRRRQIKKKKACiiigAooooAKKKKACiiigAooooAKKKKACiiigAooooAKKKKACiiigBMD0pRwQRwR0I4NFFAyxDf6lbkGC8uosZwI5pFAycngHFa1t4t8RW5XdcJcIOq3EanI5/iTDfrWDRXPVwtCt/Egn8jenia1L4JtfM72y8cWj7Vv7WSEnAMkB8yP6lThv511FpfWF/H5tncRTJ3KHlT6Mp5H4ivGqkguLm2kWa3lkilUgh42Knj1xXhYrh6hUV6L5X96/wAz2cPntaDtWXMvuZ7TRXE6R4zyUg1dQM8C6iXj/trGv8x+Xeu0jkimRJYnV43UMjoQysp7gjivkMXga2Dly1V8+jPqcNjKWKjzUn8uo6iiiuI6wooooAKKKKACiiigAooooAKKKKACiiigAooooAKKKKAAkAEkgADJJ4AArgvEHiuSZprLS32wjKS3SH5pOoKxHsvv/knivxA0zyaXZSYhTK3kiH/Wt/zyVgfuj+L16duePr7PJ8nSSxGIWvRfqz5PNc1bboUH6v8ARBRRRX1x8sFFFFABRRRQAUUUUAFFFFABRRRQAUUUUAFFFFABRRRQAUUUUAFFFFABRRRQAUUUUAFFFFABRRRQAUUUUAFFFFABRRRQAUUUUAFbOia/eaPKq5aWyd8zQE9M8Foieh/n+oxqKyrUadeDp1FdM2o1p0ZqdN2aPZbK9tNQt47q1kEkT9+jKw6qw6girFeUaHrU+jXW8AvbTbVuYs9QP40/2h/9b6epwTwXMMU8EiyQyqHjdejKe9fnOZ5bLA1NNYvZ/o/M+8y/HxxkO0luv1JKKKK8k9MKKKKACiiigAooooAKKKKACiiigAooooAK53xTrX9m2n2eB8Xt2rLGQeYoujSfXsv/ANat+WSOGOWWRgscaNI7HoFUbia8i1TUJdTvrm7kzh22wqf4IV4Rf8frXu5JgViq/PNe7H8X0R42b4x4ajyw+KX5dSjS0UV+iHwYUUUUAFFFFABRRRQAUUUUAFFFFABRRRQAUUUUAFFFFABRRRQAUUUUAFFFFABRRRQAUUUUAFFFFABRRRQAUUUUAFFFFABRRRQAUUUUAFFFFABXWeENZNtP/Zlw/wC4uXzbFjxHOf4Po38/rXJ0AspVlJDKQykcEEHIINcuLwsMVRdKfX8H3OnC4iWGqqrHoe20VlaBqX9qabbzsf3yZhuP+uqAZP48H8a1a/LKtKVGbpz3Wh+kU6kasFOOzCiiiszQKKKKACiiigAooooAKKKKACiiigDmvGN8bbTPs6HEl7IIeOoiX53P8h+Neb10njK6M+qrAD8tpAi9/vyfvD+mK5uv0jJcP7HBxfWWv37fhY+Azev7XFSXSOn+f4hRRRXsnkhRRRQAUUUUAFFFFABRRRQAUUUUAFFFFABRRRQAUUUUAFFFFABRRRQAUUUUAFFFFABRRRQAUUUUAFFFFABRRRQAUUUUAFFFFABRRRQAUUUUAFFFFAHUeDL8wX8tkx/d3kZZATwJogWGB7jP5V6LXjNlcNaXlndL1gnjk/ANyPyzXskbK6KynKsAVI7g8g18HxFh/Z4iNVfaX4r/AIFj7XIa/PQdN/Zf4P8ApjqKKK+aPoAooooAKKKKACiiigAooooAKRvumlqK4fZFI2Cdqs2B1O0ZxRuB5Jq05uNT1OY5+a6lAzwQFbYBj8KpUrHczNz8zFueTyc80lfr1OCpwUF0Vj8uqTc5uT6sKKKKszCiiigAooooAKKKKACiiigAooooAKKKKALNlYX2ozeRZwmWQKWIBACqOMszcVqf8Il4m/59E/7/AMP/AMVVrwXdpBqctu+ALuEqhP8Afj+cD8ea9Gr5bNM3xGDr+yhFWsnrf/M+ly3K6GKo+0m3e/T/AIY8v/4RLxN/z6J/3/h/+Ko/4RLxN/z6J/3/AIf/AIqvUKK8v/WPFfyx+5/5no/2Dhu7+9f5HjV5ZXlhO1vdxGOVQGwSCCp6FSOCKr133jex8y1tb9F+a3fyZSP+ecnQn6H+dcDX1uXYv65h1Ve/X1Pl8fhfqtd01t09CzZWF9qM3kWcJlkCliAQAqjuzNxWp/wiXib/AJ9E/wC/8P8A8VVvwXdpBqU1s+ALyHahPXfH8wH4816LXi5pm+Iwdf2UIq1lvf8AzPXy3K6GKo+0m3e/T/hjy/8A4RLxN/z6J/3/AIf/AIqj/hEvE3/Pon/f+H/4qvUKK8z/AFjxX8sfuf8Amej/AGDhu7+9f5HjV5ZXunzNb3cRjlADYJBBU91I4IqvXf8Ajex820tb5B81s/lSH/pnJ0P4H+dcBX1uXYz65h1Ve/X1Pl8fhfqtd01t09C5YaZqOpu8dlAZGRQznKqqg9MsxArR/wCES8Tf8+if9/4f/iq0/A94qXN9ZNgGdFmjPctHwR+Rz+Fd7Xh5lnOIwmIdKMVbS17/AOZ7OX5Vh8VQVSTd/L/hjy//AIRLxN/z6J/3/h/+Ko/4RLxN/wA+if8Af+H/AOKr1CivO/1jxX8sfuf+Z3/2Dhu7+9f5HjFza3NnPJb3MbRzRnDK3vyCCOMVDXbeOLHmy1BF9baYgf8AAkJ/UVxNfYYDFfW6EavV7+p8rjcN9VrSpdFt6BRRRXacYUUUUAFFFFABRRRQAUUUUAFFFFACV63oU5uNK02UkFmtogxzn5lGw5PrxzXkteleEJd+j2ylgTHJPHgY+UBywBx9c/jXzPEkL4eM+z/NM+iyCdq8o91+p0dFFFfCH2YUUUUAFFFFABRRRQAUUUUAFUdVZksb5lOGW2uGUjqCI2INXqzNdkMWmalIACVtZ+D05Qr2rWiuapFeaM6rtTk/Jnkg7UtJS1+uH5eFFFFAgooooAKKKKACiiigAooooAKKKKACiiigCW2uJLW4trmM4eCVJV/4Cc4r2S3mjuYILiM5SaNJF+jDNeLV6N4MvvtGmvau2ZLKQqMnnyn+Zfy5FfL8RYbnoxrreOj9H/wfzPo8hxHLVdF/a/Nf8A6eiiivhj7IrX9ql7ZXlo44nidB7NjKn8DivHZEeKSSJxh43ZGB7Mpwa9rrzPxdY/ZNWkmUYjvVE6+m/wC64/r+NfV8OYnlqSoPrqvVf8D8j5rP8PzQjWXTR/P+vxMS1uJLS5trmM4eCVJV/wCAnOK9jgmjuIIJ4zlJo0kU+zDNeLV6P4MvvtGmtas2ZLKQoM9fKf5l/qK7uI8Nz0o11vHR+j/4P5nHkOI5asqL6/mjpqKKK+GPsSvfWqXtnd2r/dniePnsSOD+BrxyWN4ZJYpBh4naNwezKcGva6808X2P2TVWnUYjvUEw9PMHyuP6/jX1XDmJ5akqD66r1X/A/I+az7D81ONZdNH6P+vxMjTbtrC+s7tT/qZVLe6Hhh+Wa9hR1kRHQ5V1V1I6EMMg14nXp/hS++2aTCjNmW0Y27567Ryh/L+VdfEmG5oRrrpo/wBP68zmyDEWnKi+uqN6iiivij64oaxZDUNNvrbALvEWi9pE+Za8hIIJBGCCQQexHGK9tryvxLY/YdXu1VcRTkXMXpiTkgfQ5r67hvE2lPDvrqv1Pl8/w91GuvR/oY1FFFfZnyQUUUUAFFFFABRRRQAUUUUAFFFFABXoHgl1OnzIM7ku5N3p8yIRivP67zwR/wAel7/19/8AtNa8HP1fBP1R7eSO2LXozsaKKK/PD7oKKKKACiiigAooooAKKKKACsnxD/yCdU/69Zv/AEGtasnxB/yCtT/69Jv/AEGt8N/Gh6r8zHEfwp+j/I8oooor9aPzAKKKKACiiigAooooAKKKKACiiigAooooAKKKKACt7wpffY9XgRjiK7Btn9Nzcofz/nWDSqzIyOpwyMGUjsQcg1hiKKr0pUpdVY3oVXRqRqLoz2yiqmm3i39hZXan/XRKzezjhh+eat1+UTg4ScJbo/TISU4qUdmFc34xsftWlm4VcyWTiXjr5bfK/wDQ/hXSUyaJJ4poXGUlR42Hswwa2wtd4etGqujMcTRVelKm+qPFa3vCd99j1aFGbEV2pt3z03HlD+f86yLy2ks7u6tX+9BK8Z9wDwahRmRkdDhkZXU+hU5Br9PrU44qg4dJL/hj86o1JYesp9Ys9soqppt2t/Y2d2v/AC2iVm9nHDD881br8pnBwk4y3R+lwkpxUo7MK5zxhY/atKadRmSycTD18s/K4/kfwro6ZLGk0UsTjKSo0bj1Vhg1tha7w9aNVdGZYiiq9KVN9UeK103g2++z6k1qxxHexlRnp5qfMv8AUVg3tq9ld3dq/wB6CV4/qAeD+IxUcE0lvPBPGcPDIkqkeqnNfp2JpRxeHlBbSWn6H53h6ssLXU3vF6/qe00VDa3Ed3bW1zGcpPEki4/2hnFTV+VSi4tp7o/SotSV0Fcn42sfOsre+QfPaSbJMf8APKTj9Dj866yoLy2S8tbq1cfLPE8Z9iRwfwrqwWIeGrwq9n+HU5sXQ+sUZU+6/HoeM0U+aKSCWaGQYeKR43HupwaZX6qmmro/NWmnZhRRRTEFFFFABRRRQAUUUUAFFFFABXd+CP8Aj0vP+vs/+i0rhK7vwT/x6Xf/AF9n/wBFpXhZ/wD7lL1X5ntZJ/va9H+R2VFFFfnZ92FFFFABRRRQAUUUUAFFFFABWP4iZU0nUyxwDayr+LDaB+ZrYrC8U/8AIH1H/rmn/oxa6cIr4imv7y/M58S7UJvyf5Hl9FFFfrB+ZBRRRQAUUUUAFFFFABRRRQAUUUUAFFFFABRRRQAUUUUAd34Hvt0N5p7nmJhcQg/3H4YD8f512VeS6Dff2fqtlOTiMv5M3/XOT5T+XB/CvWq/Pc+w3scVzraWvz6/15n3WS4j2uH5HvHT5dAooorwD2zz7xtY+Te298q/JdR+XIR/z1j4/UY/KuTr1TxLY/btJu1UZlgH2mL1zHyQPqM15XX6LkWJ9thVF7x0/wAj4POcP7HEuS2lr/md34Hvt8N5p7t80TC4iB/uPwwH0OPzrsq8l0G+/s/VbKcnEbP5M3/XOT5Tn6cH8K9ar5nPsN7HFc62lr8+v9eZ9DkuI9rh+R7x0+XQKKKK8A9s8/8AG1j5V3bXyD5LlPKkx/z0j6H8R/KuSr1XxJY/b9Ju0UZlhX7RF67o+SPxGa8qr9EyLE+2wqi946f5f15Hwmc4f2WJcltLX/M9D8FX3n2E1m7ZezkygJ58qTkfkc11VeW+F777Dq9tubEVzm2kz0+f7pP44r1Kvl88w3sMU5LaWv8An+J9Hk+I9thknvHT/IKKKK8M9g828Y2P2bVPtCriO9QSe3mr8rD+R/Gubr0nxlbRTaQ07ECS1ljeMnqd52FR+f6V5tX6TkuIdfCRvvHT7v8AgHwGbUPY4qVtnr9//BCiiivYPJCiiigAooooAKKKKACiiigAruPBD5hv48fcuEfOeu9MYx+H61w9dr4H+7qf/XS3/wDQXrxM9V8DP5fmj2Mlf+2R+f5HcUUUV+cn3oUUUUAFFFFABRRRQAUUUUAFYXin/kD6j/1zT/0YtbtYXin/AJA+o/8AXNP/AEYtdWD/AN5p/wCJfmjmxX8Cfo/yPL6KKK/Vz8zCiiigAooooAKKKKACiiigAooooAKKKKACiiigAooooAK9Y8P332/SrKYnMiJ5E3rvj+Xn68H8a8nrsPBF95dxd2Dn5Z18+IH++nDAfUfyrwc+w3tsK5reOvy6/wBeR7eS4j2WJ5HtLT59DvaKKK/PD7oCAQQRkEEEHuDXkOs2R0/Ur62xhFkLxe8b/MtevVxPjix4stRQdM20xHv8yE/qK+hyDE+yxPs3tL8+h4Wd4f2uH9ot4/l1OIr1nQL7+0NKspicyKnkzf8AXSP5T+fB/GvJq7DwPfbLi709zxMvnxA/304YD8Ofwr6LPsN7bC863jr8uv8An8jwslxHssRyPaWnz6He0UUV+eH3QEAgg8gjBryLWrE6fqd7bYwgkMkX/XN/mX/D8K9drivHFjlbLUUHKk20xA7H5kJ/UV9BkGJ9lifZvaWnz6Hh53h/a4fnW8fy6nDgkEEcEcgitNdf8QoqqupXIVQABuB4HuRmsyivvalKnU+OKfqrnxUKs6fwNr0NT/hIfEX/AEErn81/wo/4SHxF/wBBK5/Nf8Ky6Ky+qYf/AJ9r7ka/Wq/87+9lu61PVL5VS7u5pkU7lV2+UH1wOKqUUVvCEYLlgrLyMZTlN3k7sKKKKogKKKKACiiigAooooAKKKKACu18D/d1P/rpb/8AoL1xVdr4H+7qf/XS3/8AQXrxc9/3Gfy/NHsZN/vkfn+TO4ooor84PvQooooAKKKKACiiigAooooAKwvFP/IH1H/rmn/oxa3awvFP/IH1H/rmn/oxa6sH/vNP/EvzRzYr+BP0f5Hl9FFFfq5+ZhRRRQAUUUUAFFFFABRRRQAUUUUAFFFFABRRRQAUUUUAFWtPu3sb6zu1/wCWMys3unRh+Waq0VM4qcXGWzKjJwkpLdHtaOkiRyIco6q6n1VhkGnVz/hK++16TFGzZls2Nu/rtHKH8uPwroK/KMTReHqypPoz9Mw9ZV6Uai6oKo6vZDUNOvbXHzPETH7SL8yn86vUVlTqOnNTjutTScFUi4S2Z4kQVJVhgqSCD2I4Iq1p121jfWd2uf3Mqs2O6Zww/LNaHiax+w6vdBRiK4/0mLjjD/eA+hzWLX6tTnDFUVLpJfmfmtSEsPWcesX+R7WjpIiSIco6q6kdwwyDTqwPCd99s0mKNjmWzY27+u0cofy/lW/X5biaLoVZUpdGfo+HrKtSjUXVBVLVrJdQ0+9tSOZIm8v2kX5lP51dorOnN05Kcd1qXOCnFwlszxJlZWZWGGUlWB7EHBFFbfiix+w6vc7VxFc4uY+OPn+8B+OaxK/WKFZV6Uasdmrn5nXpOjUlTl0YUUUVsYhRRRQAUUUUAFFFFABRRRQAUUUUAFFFFABXa+B/u6n/ANdLf/0F64qu18D/AHdT/wCulv8A+gvXi57/ALjP5fmj2Mm/3yPz/JncUUUV+cH3oUUUUAFFFFABRRRQAUUUUAFYXin/AJA+o/8AXNP/AEYtbtYXin/kD6j/ANc0/wDRi11YP/eaf+JfmjmxX8Cfo/yPL6KKK/Vz8zCiiigAooooAKKKKACiiigAooooAKKKKACiiigAooooAKKKKAOl8HX32bUzbMcR3qGMenmp8y/1FekV4rBNJbzQzxnDwyJIhHqpzXslpcx3dra3MZyk8SSD/gQyRXw/EeG5Ksa6+1o/Vf8AA/I+xyHEc1OVF9Nfkyaiiivlj6Q5TxrY+dYwXqj57STa5HXypOP0OPzrz2vZru2ju7W5tZPuTxPGc9twwDXjk8MlvNPBIMPDI8bg+qnFfd8O4nnoOi94/k/+CfGZ9h+Ssqq2l+aOi8G332bU2tmOI72PYM9PNT5l/qK9IrxaCaS3mgnjOHhkSRT7qc17HaXEd3bW1zGfkniSQe24Zx+FebxHhuSrGuvtaP1X/A/I9DIcRzUpUX01+T/4JNRRRXyx9Gct40sfPsIrxVzJZyfMR/zyk4P5HFed17PdW8d1bXNtIMpPE8bf8CGM145cQyW089vIMPDI8bfVTivuuHcTz0ZUXvH8n/wT4zPsPyVVWX2vzX/AI6KKK+nPnQooooAKKKKACiiigAooooAKKKKACiiigArtfA/3dT/66W//AKC9cVXa+B/u6n/10t//AEF68XPf9xn8vzR7GTf75H5/kzuKKKK/OD70KKKKACiiigAooooAKKKKACsLxT/yB9R/65p/6MWt2sLxT/yB9R/65p/6MWurB/7zT/xL80c2K/gT9H+R5fRRRX6ufmYUUUUAFFFFABRRRQAUUUUAFFFFABRRRQAUUUUAFFdBY+EtYvbaK5DQRJKoeNZWbeVPQkKDVr/hB9Y/5+LT85P/AImvPlmeEhJxlUV0d8cuxUkpKDszlaK6r/hB9Y/5+LT85P8A4morjwbrUEMsqvbS+WpcpGzbyAMnbuGKSzTBt2VRDeW4pK7ps5qvQvBV951jPZOfntJNyA9fKk5/Q5/OvPa2vDF99h1e1LNiK4/0aX0+f7pP0OKjNsN9Zwsordar5F5ZiPYYmMns9H8z1OiiivzI/QgrzfxjY/ZtTFyi4jvYxIfTzU+Vv6GvSK5/xbY/bNJlkUZls2FwmOu0cOPy5/CvXyfE/V8XFvaWj+f/AATy81w/t8NJLdar5f8AAPMq9D8FX3n2E1k5+e0kynr5UnI/I5rzytTQtVOkXy3LKzwujRTop5KHnIz3HWvt80wrxWGlCK1Wq9UfH5biVhsRGcttmes0VzX/AAmmgel3/wB+h/8AFUf8Jp4f9Lv/AL9D/wCKr4H+zMZ/z7f3H239oYX/AJ+L7zpa848Z2P2fUkukXEd7HuOOnmp8rfnwa6L/AITTw/6Xf/fof/FVznibX7TV1tYLWOQRwu0rPKArMxG3AAJ4r2MnwmLw+KUpQai7p3/rueVmuJw1fDOMZpvoc1RRRX3J8aFFFFABRRRQAUUUUAFFFFABRRRQAUUUUAFdr4H+7qf/AF0t/wD0F64qu18D/d1P/rpb/wDoL14ue/7jP5fmj2Mm/wB8j8/yZ3FFFFfnB96FFFFABRRRQAUUUUAFFFFABWF4p/5A+o/9c0/9GLW7WF4p/wCQPqP/AFzT/wBGLXVg/wDeaf8AiX5o5sV/Aqej/I8vooor9XPzMKKKKACiiigAooooAKKKKACiiigAooooAKSlooA9T8MXovdItCSPMtx9mk+sfAP4jFbVee+Cb7yb24snb5LuPegP/PWPn9Rn8q9Cr8yzbDfV8VKK2eq+Z+h5ZiPb4aMnutH8goooryz0jybX7H7Bqt7CBiN38+H/AHJPm/TkfhWWCVIZTgqQQR2I5BrvPHFjvt7PUEXmFzBKR/cflSfof51wdfp+V4n6zhYze+z9UfnWY4f6viZRW26+Z6/pF6NQ06yusjc8QEntIvysPzq9XE+B77i90526YuYQfQ4VwP0NdtX5/mOG+rYmdPp09GfcYDEfWMPGp16+oU10SRJI3GUkVkYHurDBFOorg21O3c8c1C0exvby0b/ljM6r7pnKn8sVVrsPHFj5dxaX6D5Z1MEp/wBtOVP4j+VcfX6pgMR9Zw8KvVrX16n5tjaH1evKn2/LoFFFFdpxhRRRQAUUUUAFFFFABRRRQAUUUUAFFFFABRRRQAUUUUAFdr4H+7qf/XS3/wDQXriq7XwP93U/+ulv/wCgvXi57/uM/l+aPYyb/fI/P8mdxRRRX5wfehRRRQAUUUUAFFFFABRRRQAVkeIQDpWpggEfZJjyM8hcg1r1keIP+QXqf/XpP/6Aa3w38aHqvzMcR/Cn6P8AI8pooor9aPzAKKKKACiiigAooooAKKKKACiiigAooooAKKKKAJ7O5ks7q1uk+9BKkg9wDyPxr2OGVJ4oZozlJY0kQ+zDIrxWvSfB199p0v7OzZksnMXv5bfMn9R+FfLcR4bnpRrr7Oj9H/wfzPpMhxHLUlRfXVeqOkooor4c+xKuo2iX1jeWjD/XRMq+z9VP54rx10eN3jcYdGZGHoynBr2yvMfFtj9j1aWRVxFeKLhfTf0cfnz+NfV8OYnlnKg+uq9Vv/XkfM5/h+aEay6aP+v63M/Rr06fqVjc5wiyBJfeN/lavXgQQCDkEAgjuDXiVeq+Gr77fpNo7HMsA+zS+uY+AT9RiujiTDXUMQvR/p+pjkGIs5UH6r9TYooor4w+sMrxBY/b9KvYQMyInnw+u+P5uPryK8nr22vJdesf7P1W9gAxGX86H08uT5gPw6V9jw3ifjw79V+v6Hymf4f4a69H+hmUUUV9gfKhRRRQAUUUUAFFFFABRRRQAUUUUAFFFFABRRRQAUUUUAFdr4H+7qf/AF0t/wD0F64qu18D/d1P/rpb/wDoL14ue/7jP5fmj2Mm/wB8j8/yZ3FFFFfnB96FFFFABRRRQAUUUUAFFFFABWR4g/5BWp/9ek//AKCa16yPEP8AyCtT/wCvSf8A9BNb4b+ND1X5mOI/hT9H+R5TRRRX60fmAUUUUAFFFFABRRRQAUUUUAFFFFABRRRQAUUUUAFdB4SvvsmrRxMcR3imBvTf95D+fH41z9Ojd4njkQ4eN1dSOzKciufE0ViKMqT6o3w9Z0Ksai6M9roqtp92l9ZWd2vSeFHPs2MMPzzVmvyicXCTjLdH6ZGSnFSWzCua8ZWP2nTBcouZLKQSHHXym+Vv6GulqOeKOeGaCQZSWN42Hswwa3wld4etGquj/wCHMcTRVelKk+qPFq6zwTfeVe3Fi5+S6TzIx282P/Efyrmbu2ktLq6tZB88Erxn32nANLZ3Mlnd2t1H96CVJPqAeRX6Xi6KxeGlTXVafmj8+wtZ4XERm+j1/U9mopkMqTxQzRnKSokiH1VhkU+vyxpp2Z+kJ3V0Fcb44sd0NnqCLzExt5iP7j8qT+OfzrsqqalZrf2F5aMB++iYLns45U/niu3L8R9WxEKvRPX06nJjaH1ihKn16ep47RSsrIzowwyMVYHqCpwRSV+pn5uFFFFAgooooAKKKKACiiigAooooAKKKKACiiigAooooAK7XwP93U/+ulv/AOgvXFV2vgf7up/9dLf/ANBevFz3/cZ/L80exk3++R+f5M7iiiivzg+9CiiigAooooAKKKKACiiigArI8Q/8grU/+vSb/wBBNa9ZHiH/AJBWp/8AXpN/6DW+G/jQ9V+ZjiP4U/R/keU0UUV+tH5gFFFFABRRRQAUUUUAFFFFABRRRQAUUV33gy10yXT55WhikuRcOkzSIrlVwCoG7tXDjsYsHR9q1c7cFhXi6vsk7HA0V7N9jsf+fW2/78x/4UfY7H/n1tv+/Mf+FeB/rND/AJ9v7/8AgHt/6vS/5+fh/wAE8Zor2Y2WnsCrWlsQRggwx8j8q8v8Q6cum6pcwxrtgkxPAOwR/wCEfQ5Fell+cQx1R0+Xldrnn47Kp4OCqc10dP4IvvMtruwdvmgfzogf+ecnUD6H+ddhXk/h6++watZSscRyN5E3psk+XJ+hwa9Yr5fPsN7HFOa2lr8+v9eZ9HkuI9rhlF7x0/yCiiivBPaPPfGtj5N9BeqvyXcexyOnmx8fqMflXKV6n4msft2k3QVcy24+0xeuY+SB9RmvK6/RcjxPt8KoveOn+R8HnOH9jiXJbS1/zPSvB999q0sW7HMlk5i56+W3zIf5j8K6SvM/CN99k1VIWOIr1DA3pvHzIf6fjXplfJ51hvYYuVtpa/fv+J9PlOI9vho33jp/XyCiiivGPVPMPFdj9j1ed1XEV2BcpjpuPDj8/wCdYNejeM7H7RpqXSrmSyk3HHXyn+Vv6GvOa/S8nxP1jCRb3Wj+X/APz7NcP7DEyS2eq+f/AAQooor1jywooooAKKKKACiiigAooooAKKKKACiiigAooooAK7XwP93U/wDrpb/+gvXFV2vgf7up/wDXS3/9BevFz3/cZ/L80exk3++R+f5M7iiiivzg+9CiiigAooooAKKKKACiiigArI8Q/wDIK1P/AK9Jv/Qa16yPEP8AyCtT/wCvWb/0Gt8N/Gh6r8zHEfwp+j/I8pooor9aPzAKKKKACiiigAooooAKKKKACiiigArp/Bl99n1F7VziO9j2rnp5qfMv58iuYqS3nktp7e4jOHhkSVfqpzXLi8OsTQlSfVf8MdOFrOhWjVXRntNFRW08d1b29zGcpPEki/RhnFS1+UyTi7M/S01JXQVyXjax82zt75B89q/lyY/55Sf4HH511tV722jvbS7tX+7PE8Z9iRwfw6114HEPDYiFXs9fTqc2MofWKEqfdfj0PGue3XtXrWhXw1DS7GcnMgjEU3tJH8pz/P8AGvKJYnglmhkGHido3H+0pwa6/wAD322W809zxIBcQg/3l+VgPwx+Vfa59h/b4X2kd46/Lr/mfI5LXdHE+zltLT5nd0UUV+fH3AEBgVIyCCCD0IPGK8h1iyOn6lfWuPlSUtF7xv8AMtevVxHjix/48tRQettMR+LIT+or6Hh/E+yxPs3tL8+h4Wd4f2mH9ot4/l1OLjkeKSOVDh43V0PoynIr2KwukvbOzu06Two59mxhh+BzXjdd94IvvMtbqwc/Nbv50YP/ADzk6gfQ/wA69ziHDe0oKst4v8H/AEjx8ixHJWdJ7S/NHX0UUV8EfakdxDHcwT28gyk0bxt9GGK8bureS1uLm2kGHgleNs/7JxmvaK878aWPkahFeIuEvI8MQOPNj4P5jFfT8O4nkrSovaX5r/gHzufYfnpKsvs/k/8AgnLUUUV90fGBRRRQAUUUUAFFFFABRRRQAUUUUAFFFFABRRRQAV2/gdGEWoScbWnjQeuUQk/zFcRXd+Cf+PS7/wCvs/8AotK8PPnbBS9V+Z7OSq+Lj6P8jsqKKK/Oj7wKKKKACiiigAooooAKKKKACsjxD/yCdT/69Zv/AEGtesnxArNpWpKoJY2s2AOpwua3w38aHqvzMa/8KXo/yPKKKKK/Wj8wCiiigAooooAKKKKACiiigAooooAKKKKAPRPBd95+ny2bHMlnJ8uf+eUnzD8jmupry7wtffYtXtwxxFdA20npluVJ/HFeo1+c55hvYYttbS1/z/E++yfEe2wyT3jp/kFFFFeIeuea+MLH7LqhuFGI71BLx08xflcfyP41j6ZeNYX9ldg8RSqX90PysPyzXoPi6x+16VJMozLZsJ19dn3XH5c/hXmVfo2UVli8EoT1t7r/AK9D4PNKTwuLc49dV/Xqe2qyuqOpyrqGUjuCMg0tYXhW++26RArNmW0JtpOecLypP4fyrdr4DEUXQqypS6Ox9tQqqtTjUXVBVDWLIahpt7a4+Z4y0XtInzLV+is6dSVOanHdal1IKpFwlszxIggkEYIJBB7EcYrW8O332DVrOQnEcrfZ5vTZJxk/Q4NP8TWP2HVrpVXEVwftMXph/vAfQ5rGr9TXJjMP5TX5n5u+fCV/OL/I9torN0O+GoaXY3BOX8sRzf8AXSP5Tn+f41pV+W1acqU3TlunY/SKdRVIKcdnqFYfiix+3aTc7VzLbYuY/X5PvAfhmtykZVZWVhlWBUg9weCKrD1nQqxqx3TuRWpKtTlTl1R4lS1d1WzbT9QvbUjiOVjH7xt8yn8qpV+sU5qpFTjs9T8znBwk4S3QUUUVZAUUUUAFFFFABRRRQAUUUUAFFFFABRRRQAV3fgn/AI9Lv/r7P/otK4Su78Ef8el5/wBff/tNK8LP/wDcpeq/M9rJP97Xo/yOyooor87PuwooooAKKKKACiiigAooooAKztY4sL4+lrcf+i2rRqrfKWgkUAEsjKAemSCOauEuWSZM1zRaPGx2paCCCQeoJB+o4or9ePy0KKKKBBRRRQAUUUUAFFFFABRRRQAUUUUAKrMrKynDKQykdiDkGvYNLvF1DT7K7B5liXf7SL8rD868erufA99ujvdPc8oRcwg/3W+VwP0P4187xBhva4dVVvH8n/SPfyPEezr+ze0vzR2lFFFfAH2w2SNJY5InGUkRkYHurDBrx2/tXsb28tGzmCV0Ge65yp/LFeyVwPjex8u5tL9B8twnkykf89I+VJ+o/lX0vD2J9niHRe0l+K/pnz+e4f2lBVVvH8mV/Bl99n1GS0Y4jvY8L6ebH8w/MZr0avF7eeS2nt7iM4eGVJVx6qc17HbTx3Vvb3EZyk8SSLj0YZq+IsNyVo11tLf1X/AIyHEc9J0X9n8n/wAElooor5c+jOU8a2PnWMF6g+e0k2v6+VJx+hx+dee17Nd20d5a3VrJ9yeJ4zntuGAfwrxyaKS3mmgkGHhkeNx7qcV93w7ifaUHRe8fyf8AwT4zPsPyVlVW0vzR2Hge+2yXunueHAuIQf7y/K4H6H8K7qvHtLvGsNQsrsHiKVd/vG3ysPyr2BWV1VlOVYBlI6EEZBrx+IMN7LEKqtpfmv6R6uR4j2lD2b3j+TFooor5w944bxxY4ey1BF4YG2mI9R8yE/qK4uvXNbsRqGmXtsBlzGZIv+uifMv+H415GQQSDwRwR71+g5Bifa4b2b3jp8uh8PneH9liOdbS1+fUKKKK+gPCCiiigAooooAKKKKACiiigAooooAKKKKACu98EoVsrh8jEl0+B3G1FHNcFXong1NumI2T+8nncgjGOQnH5V8/xBK2Dt3aPcyON8VfsmdTRRRX58fchRRRQAUUUUAFFFFABRRRQAVDcDMZqamSjKMPagDxy9j8m8vYsAeXcTKAM4ADnGM81BWx4lg8nVZ2xxOkco+uNh/UVj1+sYSr7ahCp3SPzPFU/ZVpw7NhRRRXScwUUUUAFFFFABRRRQAUUUUAFFFFABVzS9Qm0u9gvIgGMeVdCcB0YYK5qnRUThGpFwkrplwnKElOLs0d1/wnlv8A9A2b/v8Ap/8AE0f8J5b/APQNm/7/AKf/ABNcLRXkf2Hgf5Pxf+Z6n9s4z+b8F/kd1/wnlv8A9A2b/v8Ap/8AE1i694kOsxW8CWxgijcyNucOzNjA5AHFc/RW1HKcJQmqlOOq83/mZVs0xNaDpzlo/JBXUaN4sbTLNLOe1adYi3kskgQhSc7TkH8K5eiuvE4WlioclZXRy4fE1MNPnpOzO6/4Ty3/AOgbN/3/AE/+Jo/4Ty3/AOgbN/3/AE/+JrhaK87+w8D/ACfi/wDM7/7Zxn834L/I7o+PIMHGmy5wcZnXGffC1xd1cSXdzc3MgAeeV5WC9AWOcCoaK7MLl+Hwjboxs35t/mcuJx1fFJKq72Cuu03xmbOzt7W4s3meBBGsiShdyLwNwYHmuRorTFYSji4qNZXSIw+Kq4aTlSdmzuv+E8t/+gbN/wB/0/8AiaP+E8t/+gbN/wB/0/8Aia4WivP/ALDwP8n4v/M7f7Zxn834L/I7eXx2hjkEWnOshUhC8ylQT3IC5riWZnZnb7zMWP1JyaSiu7C4GhhL+xja/r+pyYnGVsVb2rvYKKKK7DjCiiigAooooAKKKKACiiigAooooAKKKKACvUfDURi0vT1Oc+QrHODjeS/b615hFG00sMS/elkSNfqxC16/YRrHDGi9EVVX6KMDpXyfEtW0KdPu2/u0/U+n4fp+/Op5W/r7i5RRRXxR9cFFFFABRRRQAUUUUAFFFFABQRkGiigDhfGFmTHDdD/lg5R/9yTGD+BH61xlesavaJc280T/AHZUZGI6jPcfTrXlU0MlvNNBIMPE7I31HcV93w7ilUoOg94/k/8Agnxme4dwrKstpfmv+AMooor6Y+dCiiigAooooAKKKKACiiigAooooAKKKKACiiigAooooAKKKKACiiigAooooAKKKKACiiigAooooAKKKKACiiigAooooAKKKKACiiigAooooAKKKKANjw5bG41KJyDttlMx/wB77qj9c/hXqMK7UUe1cp4W08wWySOMSXBEz5HIUj5F/Ln8a68DAAr82znFLE4qXLtHRfLf8T9AynDuhhlfd6/18gooorxz1QooooAKKKKACiiigAooooAKKKKAI5UDoR7VwHifTGU/bI15jG2cAclM8P8Ah0P4eleh1naharKjfKDkEEEZBBGCDXZgsXLCVlVj0380cuLw0cVSdKX/AAzPI6K0tW017Cdiit9mkY+WeTsPXyyfbt6/hWbX6fQrQr01Vpu6Z+dVqM6E3TmrNBRRRWxiFFFFABRRRQAUUUUAFFFFABRRRQAUUUUAFFFFABRRRQAUUUUAFFFFABRRRQAUUUUAFFFFABRRRQAUUUUAFFFFABRRRQAUUUUAFFFFABWlo1gb67TcuYISry56N6J+Pf2qlb2811NHBEAXc4BPCqO7MfQV6LoumRWsUaIp2ryWYDc7HqzYrws5zFYSl7OD9+X4Lv8A5HtZTgHianPNe6vxfb/M2LKERxjjnFW6QAAAUtfnZ92FFFFABRRRQAUUUUAFFFFABRRRQAUUUUAFIwDAg0tFAGHqenJNHKpQMkilXUjr7/UdRXnupaZNYSEjc9ux+SQjlf8AZkxxn+f6D1xlDAgise/01ZFf5FZWGGVgCrDrgg16uXZlUwM9NYvdfqvM83H5fDGR10ktn/XQ8sord1DQZIi0loCQOWgY5Yf9c2PX6dfrWEQykqwIYHBBBBB9CDX6DhcZRxcOek7/AJr1PhsThauGly1Vb8mFFFFdZyhRRRQAUUUUAFFFFABRRRQAUUUUAFFFFABRRRQAUUUUAFFFFABRRRQAUUUUAFFFFABRRRQAUUUUAFFFFABRRRQAUUUUAFS29vcXUgigQu5GTjgKo6sxPardlpN3eFGIMUDc+Y45Yf8ATNe/8q7TS9HihRUjj2rwWY8u59WNeFmOc0sInCn70/wXr/ke1gMpqYlqc/dj+L9P8yHRdGjtkAA3O2DLIRy59B/sjt/nHVxRrGoAFJDCkSgAVLXwFatOtN1Kju2fb0qUKUFCCskFFFFZGgUUUUAFFFFABRRRQAUUUUAFFFFABRRRQAUUUUAFIQCMGlooAoXNjHKCQOa57UNFhmyZotxAKq6krIo9mH9c12FNaNHHIFaU6s6Uuem7PyIqU4VI8s1dHltzoFzHuNvIJAP4JPkf6A/d/UVmTWt3AcTQSJzjJU7SfZhx+teszafE+cAVQk0phnbn8K+hw/EWIp6VUpfg/wDL8Dwq+RUJ6024/iv6+Z5dS138+ixSZ8y2hc8jJjUHkY6gZqjJ4esju/0YqSMDY8gC9sgEmvWp8SYd/HFr7n+qPMnkFdfBJP70cdRXVN4ctNpAW4VuPm8wHH4FcUz/AIRy27vc/gY//ia6Fn+DfV/cYPJMWui+85iiun/4R20/vXf/AH1H/wDEUf8ACO2frd/99x//ABun/b+C/mf3MX9iYvsvvRzFFdK/hyE48uS4U99+x8/TAWo/+Eb/AOniT/v2P8apZ7gX9r8H/kS8lxn8v4o56iuh/wCEb/6eJP8Av2P8aP8AhG/+niT/AL9j/Gn/AG7gf5/wf+Qf2NjP5fxX+Zz1FdD/AMI3/wBPEn/fsf40f8I3/wBPEn/fsf40f27gf5/wf+Qf2NjP5fxX+Zz1FdD/AMI3/wBPEn/fsf40f8I3/wBPEn/fsf40f27gf5/wf+Qf2NjP5fxX+Zz1FdD/AMI3/wBPEn/fsf40f8I3/wBPEn/fsf40f27gf5/wf+Qf2NjP5fxX+Zz1FdD/AMI3/wBPEn/fsf40f8I3/wBPEn/fsf40f27gf5/wf+Qf2NjP5fxX+Zz1FdD/AMI3/wBPEn/fsf40f8I3/wBPEn/fsf40f27gf5/wf+Qf2NjP5fxX+Zz1FdD/AMI3/wBPEn/fsf40f8I3/wBPEn/fsf40f27gf5/wf+Qf2NjP5fxX+Zz1FdD/AMI3/wBPEn/fsf40f8I3/wBPEn/fsf40f27gf5/wf+Qf2NjP5fxX+Zz1FdGvhtQw3zSsvcKiqT9Cc/yqX/hHbP1u/wDvuP8A+N1Lz7BL7T+5jWS4x/ZX3o5eiun/AOEdtPW7/wC+4/8A4ij/AIRy17Ndf99R/wDxFL+38F/M/uY/7ExfZfejmKK6lPDlqCd32hwRwNyrg+uQtSp4cs8EGGVs9C0jZH024FRLiDBra7+RUcjxT3svmcjTkjllIWNHdj0CKWP5Cu4i0K2U5W0hBznLLv7Y/jzWlFpT4AwAPRQAPToK46vEtNfw6bfq7f5nXT4fm/4k18tf8jhoNF1CbBcJCp/56HL/APfC5P54resNAt4iG2GaTPDzAED/AHU6fzrqYdMjXGRV6OCOMcAV4WKznFYlcvNyrstPx3PZw2U4bDu9rvu/6sZ1rpqrhnHPHWtRI1QAAU6ivHPVCiiigAooooAKKKKACiiigAooooAKKKKACiiigAooooAKKKKACiiigAooooAKKKKAEKqe1NMUZ/hFPooAiNvEf4RSfZof7oqaigCD7LD/AHRR9lh/uj8qnooAg+yw/wB0flR9lh/uj8qnooAg+yw/3R+VH2WH+6PyqeigCD7LD/dH5UfZYf7o/Kp6KAIPssP90flR9lh/uj8qnooAg+yw/wB0flR9lh/uj8qnooAg+yw/3R+VH2WH+6PyqeigCD7LD/dH5UfZYf7o/Kp6KAIPssP90flR9lh/uj8qnooAg+yw/wB0flR9lh/uj8qnooAg+yw/3R+VH2WH+6PyqeigCD7LD/dFL9mh/uipqKAIvs8P90UohiH8IqSigBoRB2FOwPSiigAooooAKKKKACiiigAooooAKKKKACiiigAooooAKKKKACiiigAooooAKKKKACiiigAooooAKKKKACiiigAooooAKKKKACiiigAooooAKKKKACiiigAooooAKKKKACiiigAooooAKKKKACiiigAooooAKKKKACiiigAooooAKKKKACiiigAooooAKKKKACiiigAooooAKKKKACiiigAooooAKKKKACiiigAooooAKKKKACiiigAooooAKKKKACiiigAooooAKKKKACiiigAooooAKKKKACiiigAooooAKKKKACiiigAooooAKKKKACiiigAooooAKKKKACiiigAooooAKKKKACiiigAooooA/9k=;" vertex="1" parent="1">
                    <mxGeometry x="353" y="140" width="54" height="54" as="geometry"/>
                </mxCell>
                <mxCell id="8" value="DWH" style="rounded=1;whiteSpace=wrap;html=1;labelPosition=center;verticalLabelPosition=bottom;align=center;verticalAlign=top;" vertex="1" parent="1">
                    <mxGeometry x="550" y="110" width="210" height="230" as="geometry"/>
                </mxCell>
                <mxCell id="9" value="" style="shape=image;imageAspect=0;aspect=fixed;verticalLabelPosition=bottom;verticalAlign=top;image=data:image/jpeg,/9j/4AAQSkZJRgABAQEAAAAAAAD/4QBCRXhpZgAATU0AKgAAAAgAAYdpAAQAAAABAAAAGgAAAAAAAkAAAAMAAAABAAAAAEABAAEAAAABAAAAAAAAAAAAAP/bAEMACwkJBwkJBwkJCQkLCQkJCQkJCwkLCwwLCwsMDRAMEQ4NDgwSGRIlGh0lHRkfHCkpFiU3NTYaKjI+LSkwGTshE//bAEMBBwgICwkLFQsLFSwdGR0sLCwsLCwsLCwsLCwsLCwsLCwsLCwsLCwsLCwsLCwsLCwsLCwsLCwsLCwsLCwsLCwsLP/AABEIAZABkAMBIgACEQEDEQH/xAAfAAABBQEBAQEBAQAAAAAAAAAAAQIDBAUGBwgJCgv/xAC1EAACAQMDAgQDBQUEBAAAAX0BAgMABBEFEiExQQYTUWEHInEUMoGRoQgjQrHBFVLR8CQzYnKCCQoWFxgZGiUmJygpKjQ1Njc4OTpDREVGR0hJSlNUVVZXWFlaY2RlZmdoaWpzdHV2d3h5eoOEhYaHiImKkpOUlZaXmJmaoqOkpaanqKmqsrO0tba3uLm6wsPExcbHyMnK0tPU1dbX2Nna4eLj5OXm5+jp6vHy8/T19vf4+fr/xAAfAQADAQEBAQEBAQEBAAAAAAAAAQIDBAUGBwgJCgv/xAC1EQACAQIEBAMEBwUEBAABAncAAQIDEQQFITEGEkFRB2FxEyIygQgUQpGhscEJIzNS8BVictEKFiQ04SXxFxgZGiYnKCkqNTY3ODk6Q0RFRkdISUpTVFVWV1hZWmNkZWZnaGlqc3R1dnd4eXqCg4SFhoeIiYqSk5SVlpeYmZqio6Slpqeoqaqys7S1tre4ubrCw8TFxsfIycrS09TV1tfY2dri4+Tl5ufo6ery8/T19vf4+fr/2gAMAwEAAhEDEQA/APXKKKKACiiigAooooAKKKKACiiigAooooAKKKKACiiigAooooAKKKKACiiigAooooAKKKKACiiigAooooAKKKKACiiigAooooAKKKKACiiigAooooAKKKKACiiigAooooAKKKKACiiigAooooAKKKKACiiigAooooAKKKKACiiigAooooAKKKKACiiigAooooAKKKKACiiigAooooAKKKKACiiigAooooAKKKKACiiigAooooAKKKKACiiigAooooAKKKKACiiigAooooAKKKKACiiigAooooAKKKKACiiigAooooAKKKKACiiigAooooAKKKKACiiigAooooAKKKKACiiigAooooAKKKKACiiigAooooAKKKKACiiigAooooAKKKKACiiigAooooAKKKKACiiigAooooAKKKKACiiigAooooAKKKKACiiigAooooAKKKguLu0tF33EqIO24jJPoBTUXJ2RMpKC5pOyJ6KxG8T6SrY2XJ91SPH6vV601TTr3AhlG8jPlvgPj6ZraWHqwXNKLsc1PG4epLlhNNl2iiisDrCiiigAooqKe4trZDJPKka+rED8qaTbshSkoq8nZEtFYj+JtJRioW5b3REI/VxVy01fTbwhY5drnokuFY/gCa3lhqsVzOLscsMbh5y5YzVy/RRRXOdYUUUUAFFFFABRRRQAUUUUAFFFFABRRRQAUUUUAFFFFABRRRQAUUUUAFFFFABRRRQAUUUUAFFFFABRRRQAUUUUAFFFFABRRRQBS1O/TT7V5jgyH5IlP8TmuCuLm4upWmncu7dz2HoB6VveKpCZ7OLPyrG7Ee5PWubr6XLqMYUlPqz4fOsVOpXdK/uxClVmUhlJDKQQRwQR3FJRXpnhnZ6Dqz3itbXDZnjXKMesie/uK3a8+0iVotRsWU43TLGfo52mvQa+YzCjGlV93Zn3eT4qWIoWnq46BRRRXnHsla+u47G2luH/AIRhF/vOegFcDd3lzezNNO5JJO1f4UHoorofFUrBbGHPyuZJCPdcAfzrla+jy2hGNP2nVnxWd4qU63sU9I/mFL05FJRXqngHW+H9XknP2K5fc4XMDt95gBkqTXR15vZSNFd2jqcFZ4vy3DIr0gHIB9Rmvmsxoxp1FKPU+3yXFSr0XCbu4/kFFFFeYe6FFFFABRRRQAUUUUAFFFFABRRRQAUUUUAFFFFABRRRQAUUUUAFFFFABRRRQAUUUUAFFFFABRRRQAUVHJcW0RxJNEh9HdVP5E0JcW0pxHNE59EdWP5A1XK7XsTzxva+pJRRRUlBRRRQBx/ij/j8t/8Arj/WufroPFH/AB+W/wD1x/rXP19bgv4ET87zP/e6nqFFFFdZ5xb07/j/ANP/AOvqD/0MV6LXnWnf8f8Ap/8A19Qf+hivRa+fzX44+h9hw/8Awp+oUUUV459Kcr4r/wBZp3+5P/Na5mum8V/6zTv9yf8AmtczX1eA/wB3j/XU/Ps2/wB8n8vyQUUUV2nlktv/AK+3/wCusf8A6EK9KX7q/wC6P5V5rb/6+3/66x/+hCvSl+6v+6P5V4Wbbx+Z9Zw9tU+X6i0UUV4h9SFFFNd44xud1QersFH5mjcTdtWOoqEXliTgXNuT6CVP8amyDyOh6U3FrdCjKMtncKKKKRQUUUUAFFFFABRRRQAUUUUAFFFFABRRRQAUUUUAFFFFABRRRQAUUUUAFcvrOvSK72lk20L8ssw6k9Cq/wBa3dSnNtY3kw6rGQPYt8oP6152SSSScknJJ7mvXy3DRqN1J62PnM7xs6KVGm7N6v0FZ3c7nZmPqxJP5mhXdDuRmVvVSQfzFNor6C3Q+Ou73N+w8R3UG2O7BmiHAbpIo+vQ11Nre2d6ge3lVuMlejr9VPNeb1JFNNA6yQyMjqcgqcGvOxGX06usNH+B7eDzmtQ92p70fx+89MorltP8TEbY79c9vOQc/VlFdLDPBcIJIZFdD3Ugj6HFeDWw9Sg7TR9bhcbRxSvTevbqcn4o/wCPy3/64/1rn66DxR/x+W//AFx/rXP19Lgv4ET4fM/97qeoUUUV1nnFvTv+P/T/APr6g/8AQxXotedad/x/6f8A9fUH/oYr0Wvn81+OPofYcP8A8KfqFFFFeOfSnK+K/wDWad/uT/zWuZrpvFf+s07/AHJ/5rXM19XgP93j/XU/Ps2/3yfy/JBRRRXaeWS2/wDr7f8A66x/+hCvSl+6v+6P5V5rb/6+3/66x/8AoQr0peFUn+6P5V4Wbbx+Z9Zw9tU+X6i013jjVnkZUReSzEAD6k1kX/iCytN0cP7+YcYU/Ip92rlLzUr6+YmaU7M/LGvCL7Yrlw+X1KustEehjM3o4f3Ye9Ly2+86K/8AEsMe6OyXzH6eY2Qg7cDqa5m4vLy6dnnmdyexOFH0UcVXor3qGFp0F7q17nyOKx9bFP8AePTt0CtPT9YvbFx87Swk/PG5z7ZUmsyitp041FyyV0c1KtOjLnpuzPS7e4huoY54W3JIMj2PcGpa5nwrcMVu7YkkLtlX2z8pArpq+SxNH2NRwP0TBYj6zQjV6sKKKK5zsCiiigAooooAKKKKACiiigAooooAKKKKACiiigAooooAKKKKAKeqQtcafexL1aIkf8BIf+leeV6fXI61oc0ckl1aIXiclpI15ZGPJIHpXsZbiIwvTl1Pms8wc6qVamr20foc7RS8jg0lfQHyAUUUUCCrFteXdm4e3lZD3A+6w9CKr0UpRUlZlRlKD5ouzL2o6hJqLwySIquibG2/dbnOQDVGiilCCguWOxVSpKrJzm7thRRRVGZb07/j/wBP/wCvqD/0MV6LXnWnf8f+n/8AX1B/6GK9Fr5/Nfjj6H2HD/8ACn6hRRRXjn0pyviv/Wad/uT/AM1rma6bxX/rNO/3J/5rXM19XgP93j/XU/Ps2/3yfy/JBRRRXaeWPjfZJG+M7HVseuDnFaF9rN/e/Jv8qHgCOPjOP7x61mUVnKnGUlKS1RtCtUhFwi7J7hRRRWhiFFFFABRRV6w0y81CQCJCIwRvlbIRR9fWpnOMFzSdkaU6c6slCCu2bXhWFs3lwfukLCPc/eNdRUFpaw2cEVvEMKg692J5JNT18jia3tqrmj9EwOH+rUI0nutwooornO0KKKKACiiigAooooAKKKKACiiigAooooAKKKKACiiigAooooAKKKKAMy/0SwvtzbfKmOf3kYHJ/wBod65O+0i/sSS6b4c8SR5K+2fSu/oIBBBAIIwQehFd+Hx1SjpujycZlVDE+8vdl3X6nl9Fdpf+HbO43SW2IJjk4A/dsfp2rlbuwvbJytxEQOdrjlGHqDXvUMXTr/C9ex8ji8ur4V3mrrutirRRRXWecFFFFABRRRQBb07/AI/9P/6+oP8A0MV6LXnWnf8AH/p//X1B/wChivRa+fzX44+h9hw//Cn6hRRRXjn0pyviv/Wad/uT/wA1rma6bxX/AKzTv9yf+a1zNfV4D/d4/wBdT8+zb/fJ/L8kFFFFdp5YUUUUAFFFPjjllZUjRndjgBRk80XtuNJt2Qyp7e1urpxHBE7sf7o4HuTW9p/hqR9sl8xRevlIfmPszdq6a3tra1jEcEaxoOyjGT6mvLxGZQp6U9X+B72DyWrW96t7q/H/AIBhaf4ahj2yXzCR+D5S/wCrH1PeugRI41VI1VUUYCqMAD6CnUV4NavUrO82fWYfCUsNHlpK35hRRRWJ1BRRRQAUUUUAFFFFABRRRQAUUUUAFFFFABRRRQAUUUUAFFFQXd1BZwvPM2EXoO7HsBTjFydkTKSgnKTskT0VxN54i1C4ZlgIgi6ALgufctVAajqYbcLu4znPMjEfkTivVhldRq8mkeBUz6hGVoxbXc9Forj7LxLdREJdqJo/7ygLIB/I11Fre2d4ge3lV/VejD6g81x18LVofEtO56WFzChivgevZ7liiiiuU7wpskcUyNHKiujdVcAg/gadRQnbVCaTVmc1f+GY23SWLbW6+U5yp7/K1czPb3Fs5jnieNx2YfyPSvS6hubW1u0MdxErqRxkfMP909a9XD5lOGlTVfieDjMkpVfeo+6/w/4B5rRXR3/hqaLdJZMZU6+W3Dj6HpXPOkkbFHVlYdQwII/A17tKvTrK8GfJ4jC1cNLlqq35DaKKUAkgDkngYrY5i7pUbSajYBQTtnRzj0Q7jXoVc94e0qS3BvLhdsrrtiU9VU9SfrXQ18zmNaNSraPQ+5ybDSoULz0cncKKKK809s5jxXGxFjLg7V81Ce2WwR/KuWr0XULJL+1lt24J+aNv7rjoa4C4tp7WV4Z0Kupxz0I9Qa+ky2tGVL2fVHxOd4aUK/tukvzIaKKK9Q8AKUAsQACSegAyTWnYaLf3xDbfKh7ySAjP+6OtdXYaPYWADInmS95ZAC2f9kdBXDiMdTo6bs9bB5VXxPvW5Y93+hzmn+Hry62yXGYITyARmRh7Cuqs9PsrFdtvEAe7nl2+rHmrVFeBXxdSv8T07H12Ey6hhVeKu+73CiiiuQ9EKKKKACiq91e2dmhe4lVPRerH6Ac1zF74lupSUtFEMf8AeYBpCP5Cuqhhatf4Vp3ODFZhQwvxvXstzr6K86Oo6mW3G7uM5zxIwH5A4q/Z+ItQt2VZyJ4uhDYDj3DV2TyuqleLTPNp59QlK04tLudtRUFrdW95Ck8DZRuo7qe4NT15UouLsz34yU0pRd0wooopFBRRRQAUUUUAFFFFABRRRQAUUUUAFcV4hvWuLwwKT5VtuTH/AE0zhia7WvPdWjePUb8MMb7iaRf91nJFerlcU6rb6I+fz6co0FFbN6lGiiivoz4oKkimmgcSQyOjjoUJB+hxUdFJq+jGm07o6iw8TEbY79c9B5yDn6so/pXSQzQToskMiujAEFTnr615nVi1vLuzcSW8rIe4HKt9QeK8vEZbCetPR/gfQYPO6lL3a3vLv1/4J6RRWBYeJLabbHdr5Mh43jJjY/zFbysjqrIwZWGQykEEexFeFVozou01Y+rw+KpYmPNSlcWiiisTpCqt3p1hejFxCrN2cfK4/wCBDmrVFVGUou8XZkThGouWaujnz4WsCciecD0+Q/zFX7TRdMsyHSLfIP45fmP4A8fpWjRW8sVWmrSkzlp4DDU5c0YK4VFPcW9tG0s8iog6lv6CkurqCzheeZgqKPxY+gFcJqWpT6jMXclYlJEUeeFHqfetcJhJYh32RhmGYwwcbLWT2X+Z1v8Ab+if8/J/79S//E1fguLe6jEsEiuh7r/Uda80q9p2o3GnTB0JaNsCWPPDD/GvQq5XHlvTbv5njYfPpuaVZLl8j0Kq91ZWd4uy4iVx2J4YfRhzS2l3b3kKTwNlW6jup9CKnrxPepy7NH1PuVodGmYD+F9PZsrNOg9BtP8AMVbtdB0u1IfyzK46NLyP++en6VqUVtLF1pKzkzlhl+GhLmjBXAAAAAYA4AFFFFcx3BRRRQAUUjMiKzOwVVGWZiAAPcmsC/8AEltDujs1E0g43nIjU+3c1tSozrO0Fc5sRiqWGjzVZWNyaaCBGkmkVEUEkscdPSubv/ExO6OwXHUec45+qqf61z91eXd45kuJWc9geFX6AcVXr3cPlsIa1NX+B8pjM7qVfdo+6vx/4BJLNNO5kmkd3PUuST9Bmo6KK9RK2iPn223dhRRRTEbfh69a3vBAT+6udqYz/HnAIrta890mN5NRsAozsuIZG/3VcE16FXzmaRSqprqj7XIZylQcXsnoFFFFeUfQBRRRQAUUUUAFFFFABRRRQAUUUUAFYHiDSnukF3brmaJcSKOroOePcVv0VrRqyozU4nPicPDE03SnszzAggkEYIOCD2NJXe3+i2F9ufb5U5HEkfGT/tCuTvtIv7AlnTfD2ljBK4/2vSvpsPjadbTZ9j4fGZXXwutrx7r9TOooortPKCiiigAq9Zapf2DDypCY88xPkoao0VM4RmuWSujSnUnSlzQdmdzYa9YXm1JD5Ex42uflY/7LdK168wrVsNcv7LajN50A/gc8gf7LV4uIyz7VH7j6bB579nEr5r9Ud1RVOw1Kz1BC0LYdQN8bcOv4elXK8WUJQfLJWZ9RTqRqxU4O6YVDdXVvZwvPOwVFH4sfQCi6uYLSGSeZsIg/EnsBXCalqVxqMxdyViUkRRjoo9T712YTCSxErv4UebmOYxwcbLWT2X6sNS1K41GYu5KxKSIo88KPU+9UKKs2dncX0ywwLkn7xP3UX1NfTJQpQstEj4aUqmIqXesmVqK7MeGdO8jyy0nnbf8AW5/ix6elcre2VxYzNDMuCOVYfddfUVjRxdOu3GD1OnFZfXwsVKotGS6dqNxp0wdCTGxAljzww/xru7S7t7yFJ4GyrDkd1PoRXm1XtO1G406YOhJjYgSxnow/xrDGYNV1zR+L8zryzM3hX7OprB/gehUVBa3UF5Ck8LZRh+KnuDU9fMyTi7M+4jJTSlF3TCiiqV/qVnp6Bpmy7D5I1++34elOEJTfLFXYqlSNKLnN2SLtZF/r1jZ7kjPnzDjah+VT/tN0rm7/AFy/vdyK3kwH+CM8kf7TVl17eHyz7VZ/I+Xxme/Zw6+b/RF291S/v2PnSER9o0yEH4VRoor2YwjBcsVZHzNSpOrLmm7sKKKKozCiiigApQCSABkk4AHc1oWOkX9+QyJsh7yyAhcf7PrXWWGi2Fjtfb5s4HMknOD/ALIrixGNp0dN32PVweV18Vra0e7/AEKfh/SntUN3cLiaVcRqeqIeefc1v0UV8zWqyrTc5H3GGw8MNTVKGyCiiisjoCiiigAooooAKKKKACiiigAooooAKKKKACggMCCAQeoPIoooAw7/AMO2dxuktsQS9cAfu2P0rlbuwvbJ9txEVyflYco2PQ16NUNybQQyfavL8nHz+bjbj8a9PD4+pT92XvL8Tw8blFCsnOHuv8DzWir2pf2X55/s8SeXzu3/AHd2f4PaqNfRwlzRTtY+KqQ5JON727BRRRVGYUUUUAT2tzNaTxTxMQyMCcdGHcGvRLeZLiCGdPuyor/TIzivNK7zQN/9l2m7OcyYz6bzivGzWmuRT67H02QVpe0lS6WuUvFRP2S0GeDcHPv8hrkK7/WNPOoWvlocSxt5kWehbGMGuDlilhkeKRSroSGU9QRWuW1IulyLdHPnlKccR7RrR2GV32i2ttb2Nu0QUtMgkkcdWJ964GtrRtZexcQTktasfqYye49vWtcfRnVpWh0/EwynE0sPXvV66X7HbVnaxa21xY3BmCgxRtJG56owHrV3z7cxed5qeVt378jbtxnNcdrOsves1vAStqp5PQykdz7V4eDoVKlROOlup9VmWKo0aDU9eZaLuYlFFPjjkldI41LO5AVV5JJr6vbc/P0m3ZHV+FSfs16M8CZMe3y10VZujac2n2pRzmWVhJLjoDjAArSr5DFzjOtKUdj9Gy+nKlhoQnukRXEyW8E07/diRnx64GQK87urma7nlnlYlnJPPYdgK7XXt/8AZd3tzn93nHpvGa4OvWyqmuRz67Hz2f1pe0jS6WuFFFFeyfMhRRRQAUUVe03+y/PH9oeZ5fG3b93Of4/apnLli5WuaU4e0ko3tfuR2lhe3r7beItg/Mx4Rc+prqrDw7Z2+2S5xPL1wR+7U/Sta2NoYY/svl+Tj5PKxtx+FTV83iMwqVPdj7q/E+1wWUUKKU5+8/wAAKAAAAOgHAooorzT3AooooAKKKKACiiigAooooAKKKKACiiigAooooAKKKKACkLKoJYgAdSTgD86y9Q1yxstyKfOnH8CHgH/AGmrlL7Vr+/JEj7Yu0ScLj39a78PgalbV6I8jGZtRw14r3pdl+rOiv8AxHa2+6O0Anl6buka/j3rlru+vL199xKzYPyr0Rf91arUV79DCU6HwrXufI4vMK+KfvvTstgooorqPPCiiigAopeTwOta2n6DfXm15B5EB53OPmYf7K1nUqwpLmm7G9GhUry5KauyhaWs15PFBEpLOeSOir3Jr0SCFLeGGFPuxIqD3wMZqCx0600+PZAvzN9+RuXb8fSrdfN43F/WJJR2R9tleX/U4uU/if4BWTq+kRaghkjAW6QfK3ZwP4WrWorjp1JUpKUXqelWowrwdOorpnmUsUsMjxSqVdCQynqDTK7rV9Ii1CMyRgLdIPlbs4H8LVxEsUsMjxSqVdCQytwQa+pwuKjiI3W/VHwOPwE8HOz1i9mHmS7PL3tsznbk7c/SmUU+OOSV0jjUs7kBVUZJJrq0WpwaydgjjkldI41LO5AVV5JJrttH0eOwQSygNdOPmPUID/CtGj6PHYIJZQGunHzHqIwf4VrXr57G432n7unt+Z9lleVqglWrL3ui7f8ABCiiivJPoSO4hS4hmhf7sqMh9sjGa86u7WaznlglUhkJwT0ZexFek1TvtOtNQjCTr8y/ckXh1/H0r0MFi/q8mpbM8fNMv+uRUofEvxPO6K19Q0K+s9zoDNAOdyD5lH+0tZPTg19JTqQqLmg7nxFahUoS5KisxKKKK0MQooooAs2l9eWT77eVlz95eqN/vLXVaf4jtbjbHdAQS9N3WNj9e1cZRXLXwlOv8S17noYTMK+FfuPTs9j08MrAFSCD0IOQfypa8/sdWv7AgRvui7xPyuPb0rq9P1yxvdqMfJnP8Dngn/ZavAxGBqUdVqj67B5tRxNov3Zdn+jNWiiiuA9cKKKKACiiigAooooAKKKKACiiigAooooAK5/xDqj2yizgbEsq5kYcFEPGB7mugrz3VZHk1G/LHO24mjX2VXIFejl1FVat5dDxc5xMqFC0NHLQpEkkk8k8nNJRRX058KFFFFAgooqza2V5evst4mf1boq/VjxSlJRV5MuEJTfLFXZWq/Y6Vf37Dy4ysXeWTIQfTua6PT/Dlrb7ZLoieUchf+Wan1x3rdVVUBVUKoGAFAAA9gK8fEZml7tLXzPo8Hkcpe9iHZdupl2GhWFltdh50w6vIAQD/sr0rVoorxKlSdR803c+po0KdCPJTVkFFFMklihUvK6Io7uQB+tQlfRGraSux9FZTeINFU4+0E4/uxyEfyqe31bS7ptkNwu/+64KH8NwFavD1UruL+4544uhJ8sZq/qi9WXqujwaiodSI7hRhXxww9GxWpRU06kqcuaDszStRhXg4VFdM5D/AIRW/wD+fi2/8if/ABNbWlaNBpwMjESXDDBfHCj0TNatFdFXG1qseWT0OKhleGoT54R1CiimySRRKXldUQdWcgD9a499j0W0ldjqKyZPEGjoSBMzkcHYjY/MipbfWtJuWCJcBXPaQFP1bit3h6qV3F/ccyxmHlLlU1f1NGigEHBHIPIxRWB1BWTf6FYXu51HkzH+OMYUn/aXpWtRWlOpOm+aDsY1qFOvHkqK6PPr7Sr+wY+ZGWi7SxglD9e4qhXp7KrAqyhlIwQwBBHuDWFf+HLW43SWpEMp5K9Y2P07V7eHzNP3aunmfLYzI5R97Du67dTjaKs3VleWT7LiJk9G6q30YcVWr2IyUleLPnJQlB8slZhRRRTIClBIII4I5GKSigZ2Hh/VXuVNncNuliXMbnq6DjB9xXQV57pUjx6jYFTjdcQxt7qzgGvQq+YzGjGlVvHqfdZNiZV6Fp6uOgUUUV5x7QUUUUAFFFFABRRRQAUUUUAFFFFABXFeIrJre7M6j91c7mz6SZyQa7Wobq1gvIXgnXcjfmD2IrrwmI9hU5unU8/MMH9bouC36HmtFbl54c1CBma3xPF1GMBx7FaoDS9VLbfsdxnOMmNgPzPFfTQxFKaupI+FqYOvTlyyg/uKVSwwT3DiOGN5HPZATx6nFbtl4ZuZCr3jiJOuxCC5H16CuntrO0tECW8SoO5A+Yn1JPNcdfMadPSGr/A9LCZLWre9V91fic/YeGQNsl+2eh8lDx9GYf0rpIooYUWOJFRFAACjAwKfRXg1sRUrO82fW4bB0cKrU18+oUUUVgdYUEhQSxAAGSScAD3JrMv9asLHchbzZh/yzjOcH/aPQVyd9q9/fEh3KRdooyQv49678PgalbXZHk4zNaOG91e9Lsv1Oiv/ABFaW26O2AnlGRuziNT9R1/CuVur68vXL3ErN6L0Vfoo4qtRXv0MJTofCte58hi8wrYp++9Oy2ClBIII4I5BHakorqOA6vw/q8krCxuW3Ng+Q7Hkgfwk/wAq6WvN7Jyl5ZuDgrPEf/HhXpA5APqK+azKjGnUUo9T7fJMTOtRcJu7j+QUUUV5h7pFcTxW0Es8pwkalj6n2FcDqGo3WoSs8jERgny4wflUfT1rpPFErLZwxg4EkwLe4UHiuOr6DLKEVD2r3Z8dnmKm6nsE9Fv5hRRRXsHzZqWGtX9iQu/zYe8cpJx9D1rqrHWdPvgFV/Lm7xSHB/A9DXA0oJBBBII6EcEVw4jA0q2uzPWwma18N7t7x7P9D0+iuJsPEF7abUmzPCMDDH51A/ut/jXU2Wp2F+B5Mg345jbhx68GvBr4OrQ1auu59bhMyoYrSLs+z/rUu0UUVxnpDJYoZkaOVFdGBBDDPBrm7/wyDuksGx1PkuePorH+tdPRW9HEVKLvBnJicHRxStUXz6nmk0E9u5jmjeNx2cEceozUVek3NnaXaFLiJXHYkfMD6gjmuYvfDNzGWezcSp/ccgOB9ehr3qGY06mk9H+B8li8lrUfepe8vxOdoq4dL1UNt+x3Gc4yI2I/McVoWfhzUJ2VrjEEXU5wXPsFrsniKUFdyR5tPB16kuWMH9wnh2ya4uxOw/dW21s+smcgCu1qG1tYLOFIIF2ov5k9yamr5jFYj29Tm6dD7rL8H9UoqD36hRRRXKegFFFFABRRRQAUUUUAFFFFABRRRQAUUUUAFFFFABRRRQAUVFPcW9shknkSNB3Y4yfQVzOoeJZH3R2ClF5BlcfMf91e1dNHDVK79xfM4sVjqOFV6j17dToLzULKxXdcSAMfuovLt9FrldQ8QXl1ujgzBAeMD/WMOnzNWPJJLK7PI7O7ElmY5JJple9h8vp0tZas+RxmcVsR7sPdj+P3ikkkkkknqTyaSiivRPGCiiigQUUUUATWv/Hzbf8AXaP/ANCFekr91foK82tf+Pm2/wCu0f8A6EK9JX7q/QV4Obbx+Z9bw98NT5C0UUV4p9Qc54q/1Fp/10b+VclXW+Kv9Raf9dG/lXJV9Rl38BHwWc/73L5fkFFFFegeOFFFFABTlZ0YMjFWHQqSCPyptFA9joLDxJcw7Y7wGaPpvHEg+vY11Fre2d6m+3lV+Mlejr/vL1rzepIppoHWSGRkdTkMpwRXmYjLqdTWGj/A9vCZzWoWjU96P4/eemUVyth4mZdsd8u4dPNjHP8AwJa6WC4t7lBJBIkiHjKnOD6GvCrYapQfvo+swuOo4pXpvXt1JaKKK5ztCiiigAooooAKKKKACiiigAooooAKKKKACiiigAooooAKKKKACiiigArO1bU49Ng3YDTyZESf+zH2FaNcN4hmeTUp1JysIREHoNoY124Kgq1W0tlqeXmmKlhaHNDd6IoXN3dXkhkuJGducA/dUeiiq9FFfVKKirI+AlJzfNJ3YUUUUyQoopyI8jBEVmYnACjJP5UD32G0VoXWlXlnax3NwAhklEax/wAYypOW/Ks+ohOM1eLuaVKU6T5ZqzCiiirMia1/4+bb/rtH/wChCvSV+6v0FebWv/Hzbf8AXaP/ANCFekr91foK8HNt4/M+t4e+Gp8haKKK8U+oOc8Vf6i0/wCujfyrkq63xV/qLT/ro38q5KvqMu/gI+Czn/e5fL8gooor0DxwoorSn0a/igiuUTzYXQPmPlkB/vColUjBpSdrmsKU6ibgr23M2il5HB60lWZhRRRQIKntrq6tJBJbysjDrg8EehFQUUmlJWZUZOL5ouzO90jVY9RiIYBbiMDzEHQj+8vtWnXn+j3DW2oWrg8O/lMOxD/LXoFfL47DqhU93Zn3uVYyWKo3n8S0CiiiuA9YKKKKACiiigAooooAKKKKACiiigAooooAKKKKACiiigAooooAK4bxBE8epzsQQsoR0PqNoBruazdW0xNShABCzxZMTHpz1U+1duBrqjVvLZ6Hl5phZYqhyw3WqOBoqe4tLq1do54nQg4yR8p+h6VBX1Sakro+AlFxfLJWYUvJ4HU9KvWWk398w8uMpH3lkBCD+prrLDQ7Cy2uw86cfxyDIH+6vSuPEY2nR0bu+x6WDyyvitUrR7v9O5zmn6De3m2SUGCA87mHzsP9lf8AGusstNsbBQIYxv8A4pG5c/iauUV4GIxlSvo3Zdj6/CZbQwusVeXd/wBaGB4p/wCPK2/6+V/9AauOrsfFP/Hlbf8AXyv/AKA1cdXt5b/AXqz5bO/97fogooor0TxSa1/4+bb/AK7R/wDoQr0lfur9BXm1r/x823/XaP8A9CFekr91foK8HNt4/M+t4e+Gp8haKKK8U+oOc8Vf6i0/66N/KuSrrfFX+otP+ujfyrkq+oy7+Aj4LOf97l8vyCiiivQPHCvRtP8A+PKy/wCuKfyrzmvRtP8A+PKy/wCuKfyrx81+CPqfS8P/AMSfoVb/AEPT73cwXyZj/wAtIwBk/wC0vQ1yt9o+oWJJZPMhzxJHyPxHX9K76ggEEEAgjBB5BFedh8dVo6bo9rF5TQxPvJcsu6/U8vortr/w9ZXW6SD9xMcn5R+7Y+6jp+FcteaZf2TETRNt5xIgLIR65Fe9QxlKvs7PsfJYvLa+F1krruilRRU9va3V06pBE7knHA4H1PSuptRV2efGLk7RV2WdIt2uNQtFAOEcSMR2CfNzXoFZej6UmnRMzkNcSgeYw6KP7q1qV8vjsQq1T3dkfeZTg5YWj7+71CiiiuA9cKKKKACiiigAooooAKKKKACiiigAooooAKKKKACiiigAooooAKKKKAGvHFKNskaOPR1DD8jUC2GnKdwtYM/9c1P8xVmiqUpLRMiVOEndoAAoAAAA4AAwB+AoooqSwooooAwPFP8Ax5W3/Xyv/oDVx1dj4p/48rb/AK+V/wDQGrjq+ny3+AvVnwmd/wC9v0QUUUV6J4pNa/8AHzbf9do//QhXpK/dX6CvNrX/AI+bb/rtH/6EK9JX7q/QV4Obbx+Z9bw98NT5C0UUV4p9Qc54q/1Fp/10b+VclXW+Kv8AUWn/AF0b+VclX1GXfwEfBZz/AL3L5fkFFFFegeOFejaf/wAeVl/1xT+Vec16Np//AB5WX/XFP5V4+a/BH1PpeH/4k/QtUUUV8+fYBSFVYFWAKnggjIP1BpaKAKxsNOY7jawZ/wCua/4VOkcUY2xxog9EUKPyFOoqnKT0bIjThF3irBRRRUlhRRRQAUUUUAFFFFABRRRQAUUUUAFFFFABRRRQAUUUUAFFFFABRRRQAUUUUAFFFFABRRRQAUUUUAYfiaNn09GUcRTo7ew2sv8AWuLr0yeGO4hlgkGUkUqw+veuA1DT7nT5mjkBMZJ8qQD5XX/H1r6DLK0XD2T3Pj89ws1UVdLR6PyKVFFFewfNFiyUvd2aDq08Q/8AHhXpA4AHoBXM+H9IkjYX1ym07T5CMOef4yD+ldNXzeZVo1KijHofb5Jhp0aLnNW5vyCiiivLPeMDxREzWcMgGRHMA3sGB5rjq9LubeO6gmgkGUkUqfb0IrgL/T7rT5jHKp2kny5APlceor6DLK8XD2T3R8dnmFmqvt0tHv5Mp0UUV7B82KASQAMknAHvXpNohjtrVD1WJAfriuV0LR5ZpY7u4QrBGQ8YYYMjDkEewrsK+fzOvGclTj0Psciws6cZVZq3NsFFFFeOfSBRRRQAUUUUAFFFFABRRRQAUUUUAFFFFABRRRQAUUUUAFFFFABRRRQAUUUUAFFFFABRRRQAUUUUAFFFFABRRRQAUUUUAFMlhgnRo5o1dD1DjIp9FNNp3Qmk1ZmLJ4a0mRiwNxHn+GN0Cj6BkNWbXRdLtGDpEXcHKtNtZgfbAFaNFbyxNaS5XJ2OSOBw8Jc8YK4UUUVznYFFFFABTJYYZ0aOaNXRhgqwBFPopptaoTSaszGl8N6TIxYefHn+GJkCj8GU1NbaFpVswYRtIwIKmYq2CO4wBWnRW7xNZrlcmckcDhoy5lBX9AAA4AwB6UUUVznYFFFFABRRRQAUUUUAFFFFABRRRQAUUUUAFFFFABRRRQAUUUUAFFFFABRRRQAUUUUAFFFFABRRRQAUUUUAFFFFABRRRQAUUUUAFFFFABRRRQAUUUUAFFFFABRRRQAUUUUAFFFFABRRRQAUUUUAFFFFABRRRQAUUUUAFFFFABRRRQAUUUUAFFFFABRRRQAUUUUAFFFFABRRRQAUUUUAFFFFABRRRQAUUUUAFFFFABRRRQAUUUUAFFFFABRRRQAUUUUAFFFFABRRRQAUUUUAFFFFABRRRQAUUUUAFFFFABRRRQAUUUUAFFFFABRRRQAUUUUAFFFFABRRRQAUUUUAFFFFABRRRQAUUUUAFFFFABRRRQAUUUUAFFFFABRRRQAUUUUAFFFFABRRRQAUUUUAFFFFABRRRQAUUUUAFFFFABRRRQAUUUUAFFFFABRRRQAUUUUAf//Z;" vertex="1" parent="1">
                    <mxGeometry x="580" y="140" width="60" height="60" as="geometry"/>
                </mxCell>
                <mxCell id="10" value="変換" style="rounded=1;whiteSpace=wrap;html=1;labelPosition=center;verticalLabelPosition=bottom;align=center;verticalAlign=top;" vertex="1" parent="1">
                    <mxGeometry x="550" y="360" width="210" height="120" as="geometry"/>
                </mxCell>
                <mxCell id="11" value="加工" style="rounded=1;whiteSpace=wrap;html=1;labelPosition=center;verticalLabelPosition=bottom;align=center;verticalAlign=top;" vertex="1" parent="1">
                    <mxGeometry x="860" y="110" width="210" height="120" as="geometry"/>
                </mxCell>
                <mxCell id="12" value="可視化" style="rounded=1;whiteSpace=wrap;html=1;labelPosition=center;verticalLabelPosition=bottom;align=center;verticalAlign=top;" vertex="1" parent="1">
                    <mxGeometry x="860" y="270" width="210" height="120" as="geometry"/>
                </mxCell>
                <mxCell id="13" value="" style="shape=image;imageAspect=0;aspect=fixed;verticalLabelPosition=bottom;verticalAlign=top;image=data:image/jpeg,/9j/4AAQSkZJRgABAQAASABIAAD/4QBwRXhpZgAATU0AKgAAAAgABAEGAAMAAAABAAIAAAESAAMAAAABAAEAAAEoAAMAAAABAAIAAIdpAAQAAAABAAAAPgAAAAAAA6ABAAMAAAABAAEAAKACAAQAAAABAAAAZqADAAQAAAABAAAAcQAAAAD/4QkhaHR0cDovL25zLmFkb2JlLmNvbS94YXAvMS4wLwA8P3hwYWNrZXQgYmVnaW49Iu+7vyIgaWQ9Ilc1TTBNcENlaGlIenJlU3pOVGN6a2M5ZCI/PiA8eDp4bXBtZXRhIHhtbG5zOng9ImFkb2JlOm5zOm1ldGEvIiB4OnhtcHRrPSJYTVAgQ29yZSA2LjAuMCI+IDxyZGY6UkRGIHhtbG5zOnJkZj0iaHR0cDovL3d3dy53My5vcmcvMTk5OS8wMi8yMi1yZGYtc3ludGF4LW5zIyI+IDxyZGY6RGVzY3JpcHRpb24gcmRmOmFib3V0PSIiLz4gPC9yZGY6UkRGPiA8L3g6eG1wbWV0YT4gICAgICAgICAgICAgICAgICAgICAgICAgICAgICAgICAgICAgICAgICAgICAgICAgICAgICAgICAgICAgICAgICAgICAgICAgICAgICAgICAgICAgICAgICAgICAgICAgICAgICAgICAgICAgICAgICAgICAgICAgICAgICAgICAgICAgICAgICAgICAgICAgICAgICAgICAgICAgICAgICAgICAgICAgICAgICAgICAgICAgICAgICAgICAgICAgICAgICAgICAgICAgICAgICAgICAgICAgICAgICAgICAgICAgICAgICAgICAgICAgICAgICAgICAgICAgICAgICAgICAgICAgICAgICAgICAgICAgICAgICAgICAgICAgICAgICAgICAgICAgICAgICAgICAgICAgICAgICAgICAgICAgICAgICAgICAgICAgICAgICAgICAgICAgICAgICAgICAgICAgICAgICAgICAgICAgICAgICAgICAgICAgICAgICAgICAgICAgICAgICAgICAgICAgICAgICAgICAgICAgICAgICAgICAgICAgICAgICAgICAgICAgICAgICAgICAgICAgICAgICAgICAgICAgICAgICAgICAgICAgICAgICAgICAgICAgICAgICAgICAgICAgICAgICAgICAgICAgICAgICAgICAgICAgICAgICAgICAgICAgICAgICAgICAgICAgICAgICAgICAgICAgICAgICAgICAgICAgICAgICAgICAgICAgICAgICAgICAgICAgICAgICAgICAgICAgICAgICAgICAgICAgICAgICAgICAgICAgICAgICAgICAgICAgICAgICAgICAgICAgICAgICAgICAgICAgICAgICAgICAgICAgICAgICAgICAgICAgICAgICAgICAgICAgICAgICAgICAgICAgICAgICAgICAgICAgICAgICAgICAgICAgICAgICAgICAgICAgICAgICAgICAgICAgICAgICAgICAgICAgICAgICAgICAgICAgICAgICAgICAgICAgICAgICAgICAgICAgICAgICAgICAgICAgICAgICAgICAgICAgICAgICAgICAgICAgICAgICAgICAgICAgICAgICAgICAgICAgICAgICAgICAgICAgICAgICAgICAgICAgICAgICAgICAgICAgICAgICAgICAgICAgICAgICAgICAgICAgICAgICAgICAgICAgICAgICAgICAgICAgICAgICAgICAgICAgICAgICAgICAgICAgICAgICAgICAgICAgICAgICAgICAgICAgICAgICAgICAgICAgICAgICAgICAgICAgICAgICAgICAgICAgICAgICAgICAgICAgICAgICAgICAgICAgICAgICAgICAgICAgICAgICAgICAgICAgICAgICAgICAgICAgICAgICAgICAgICAgICAgICAgICAgICAgICAgICAgICAgICAgICAgICAgICAgICAgICAgICAgICAgICAgICAgICAgICAgICAgICAgICAgICAgICAgICAgICAgICAgICAgICAgICAgICAgICAgICAgICAgICAgICAgICAgICAgICAgICAgICAgICAgICAgICAgICAgICAgICAgICAgICAgICAgICAgICAgICAgICAgICAgICAgICAgICAgICAgICAgICAgICAgICAgICAgICAgICAgICAgICAgICAgICAgICAgICAgICAgICAgICAgICAgICAgICAgICAgICAgICAgICAgICAgICAgICAgICAgICAgICAgICAgICAgICAgICAgICAgICAgICAgICAgICAgICAgICAgICAgICAgICAgICAgICAgICAgICAgICAgICAgICAgICAgICAgICAgICAgICAgICAgICAgICAgICAgICAgICAgICAgICAgICAgICAgICAgICAgICAgICAgICAgICAgICAgICAgICAgICAgICAgICAgICAgICAgICAgICAgICAgICAgICAgICAgICAgICAgICAgICAgICAgICAgICAgICAgICAgICAgICAgICAgICAgICAgICAgICAgICAgICAgICAgICAgICAgICAgICAgICAgICAgICAgICAgICAgICAgICAgICAgICAgICAgICAgICAgICAgICAgICAgICAgICAgICAgICAgICAgICAgICAgICAgICAgICAgICAgICAgICAgICAgICAgICAgICAgICAgICAgICAgICAgICAgICAgICAgICAgICAgICAgICAgICAgICAgICAgICAgICAgICAgICAgICAgICAgICAgICAgICAgICAgICAgICAgICAgICAgICAgICAgICAgICAgICAgICAgICAgICAgICAgICAgICAgICAgICAgICAgICAgICAgICAgICAgICAgICAgICAgICAgICAgICAgICAgICAgICAgICAgICAgICAgICAgICAgICAgICAgICAgICAgICAgICAgICAgICAgICAgICAgICAgICAgICAgICAgICAgICAgICAgICAgICAgICAgICAgICAgICAgICAgICAgICAgICAgICAgICAgICAgICAgICAgICAgICAgICAgICAgICAgICAgICAgICAgICAgICAgICAgICAgICAgICAgICAgICAgICAgICAgICAgICA8P3hwYWNrZXQgZW5kPSJ3Ij8+AP/AABEIAHEAZgMBIgACEQEDEQH/xAAfAAABBQEBAQEBAQAAAAAAAAAAAQIDBAUGBwgJCgv/xAC1EAACAQMDAgQDBQUEBAAAAX0BAgMABBEFEiExQQYTUWEHInEUMoGRoQgjQrHBFVLR8CQzYnKCCQoWFxgZGiUmJygpKjQ1Njc4OTpDREVGR0hJSlNUVVZXWFlaY2RlZmdoaWpzdHV2d3h5eoOEhYaHiImKkpOUlZaXmJmaoqOkpaanqKmqsrO0tba3uLm6wsPExcbHyMnK0tPU1dbX2Nna4eLj5OXm5+jp6vHy8/T19vf4+fr/xAAfAQADAQEBAQEBAQEBAAAAAAAAAQIDBAUGBwgJCgv/xAC1EQACAQIEBAMEBwUEBAABAncAAQIDEQQFITEGEkFRB2FxEyIygQgUQpGhscEJIzNS8BVictEKFiQ04SXxFxgZGiYnKCkqNTY3ODk6Q0RFRkdISUpTVFVWV1hZWmNkZWZnaGlqc3R1dnd4eXqCg4SFhoeIiYqSk5SVlpeYmZqio6Slpqeoqaqys7S1tre4ubrCw8TFxsfIycrS09TV1tfY2dri4+Tl5ufo6ery8/T19vf4+fr/2wBDAAEBAQEBAQIBAQIDAgICAwQDAwMDBAYEBAQEBAYHBgYGBgYGBwcHBwcHBwcICAgICAgJCQkJCQsLCwsLCwsLCwv/2wBDAQICAgMDAwUDAwULCAYICwsLCwsLCwsLCwsLCwsLCwsLCwsLCwsLCwsLCwsLCwsLCwsLCwsLCwsLCwsLCwsLCwv/3QAEAAf/2gAMAwEAAhEDEQA/AP7+KKKa5KjIoAdRUZZwcAUhlxz2FDAlqOUgJk4/Gm+cp+7zXm/xg+J2gfB34Ya58TvFbFLHQ7OS7l28s2wfKi/7TthR7mpnJRi5S2JqTUIuctEld+iO6afJG0MT6AYx+dTxsGdWxnPfGK/lfsvj/wD8FJv25/Fep6t8D7rUNM0bTn3C30mZLKK0XHyxSSth5JuMlSxX88V9df8ABPf9vj416h8cP+GWv2n90+qyNLa2t3PGIrqO6tgSYLgqArllDFXAGcDrnjyaWc0qklFxaV7J92fG4LjbB4ivClGlOMZu0Zte7JrsfvnRUaOWOCMU/ODivYPtBaKKKACiiigD/9D+/ikPSlqOViqZHqKBN2VytJIQrOe3QdOa85+I/wAWPAHwh8JXfjr4l6jBo2lWQDS3Nw+1BnoPUsewGTXobsHty23O7PGcV/Ix/wAFef2gfFPxU/aduPgtptzI2ieEWjgS1jJCz38ygs7DoWUEIoxx19q8nPMzeBw/tEtdl69D7jgDg2pxJm31Pn5acVzTfVRuk7ed3+p+kHjL/gur8DNJ1aWz8EeEtY1uyTJS7Yx2ayrnAdFlYNsJ6Fgv0rdvf23fg7/wUk+CPir9mXwHJP4d8ca9p0jafp+qIVSc25EoImi3oY8ph2ByFycGvMf2bf8Agil8Kbn4d2ut/tC32pXmvX8CyywWMwtorVpFBKBlG+RlzjcW2n+7ivpLwp+zH8IP+Cb/AIQ1HWvhrazavr3iW5aIalfhZJIo8ZCZUAKiKM4VRubrXx2ZZ1mGWYGvmebuKoQjeSSbduytd3ex9vxPlPh9isLXyfJoVqmKb5IyvaMrq0tXdW+Ub9DybwR8W/g1/wAEoPhFpvwR+Il3c+JPFeqytqt9Z6aEdrd5EVf4mXbCu0IjMdzfexzivjP9kiPxp+2z/wAFF/8AhpG20ptP0bTb7+07mWMboo1t4/KghL/KHlbau8qBgZODX7KfD74R/BH9q3wda+MvjT4T0rXNdtmNvcXktuglkaEDaWKhSeDwDkCvsnwL8O/Bnw40eLw74D0u20mxj58m1iWNc+p2gZPua9rJK9LN8Jhsfhpf7PNKcFZ/K9z+YMdwZjqWPpYWtVSw+HleMUtbp9WdugG8E9alP3hTVj2tuJyafjJzX1zPsELRRRSGFFFFAH//0f7+KY67hj3p9IRkUXCxTH7uInpgV/F3/wAFLfAPiP4Mftz+I/E00LY1O+tfEOnO43JJuC4PP8Kywsjc8fQ1/aW8W5NinHvXxF+2r+w/8Pf2yPA0Gj+KZf7P1rTNzabqkUYaSB3xlWU/fibHzIT7gg814HEeVzx2F5afxp3XqfpfhXxjR4ezpV8Ur0KqcKnlF9e+5p/sv/tf/Bn9prwNYeIfCGr2y6hcxIt1przL9pt5wDuQpwTjsQPmHOBXmH7cnilJZdK8ELER5Ya9eQ5AKYKkDsSOpGelfhxb/wDBKr9uj4H/ABY0jxz8OLPTddudFvorq0vLa7EGfKcH5lm2ldwBUqCRtJFf0U/HjSPAWo/De0+K/wAbEl0618NQi+vorcG5ZMhfMi/dglgHCglQRgHIAyR8Pxhk+dcU8P4nI8FB0sRJwjd7S95Xs/T5ndnuByDh3NMPmWV4yNbDy552T96m9bKS327r1Gfsb+HNQ0P4WLeajGY21G5kuVB6iM4Cn8QM19djhuO9fjle/wDBZP8AZQ0CJLDw1puuX1tDhVkitY4kK4G3aJJVbBHtXovgn/gr5+yL4plit9YudT0FpGC7r+zYRrnuXiMgA9+lfsHDHhZneS5LhcBHCVGqUFG/K9bbu2+5+MZhxnlmNxdWt9Yjdvuj9TaK8/8AAnxQ8C/FDw6nir4eatZ6zYSfdntJllT8wePxrs4rpnIVlwT6GsqlKdOThUVmtGno/wATshOM4qUXdF2ioy5HGKcCfSsrq9ih1FFFMD//0v7+KKKCcDNADWJC5HWqV5OEtWmYqqjBLEjGPWrDylVyO1fj5/wVq/aivvhR8J7T4K+DrhrXWPF6SJcSocSQ6fF8su0448wnZng4JxXr5DktbNsfSy/D6Sm7X7Lq/ktThzLHxweGniJdFp5voj5K/b1/4Kia5rusX/we/Zlvza2ELPBfa3Cf3kxXKutseAqIw2tLknJwF/iHsH/BI74z/wDC2vhR4q/Zx+IV1JqUtoJLqFrmQvJPZX4IlyWO44kZuv8Ae9ufwQ+FXws8Y/F74haT8L/h3bpPrGpTLHCnO2Mx8GRz02xLyzcA9xmv66P2Pf2Ifhd+yj4fR9BjGo+JbuLy9Q1mYZmm5yyDPCxhuijtX7fx9gcj4fySOT0Y/wC0txldfE2vtN9F0S+4/NOGcTmWa5j9eelFJqSe2vSPn6n85fjj/gnb+1jo3xD13wv4G8GahqWm2F7LFa3iFI4prcEmNlMkg/hOMCvnX4lfs3fHv4PR/a/iP4P1XSI+vnTW7PFwevmx71HtlhzX9zRgYry3zZzn/D0rO1HR7PULN7S/RJYpRtkSRQ6MDxgq2Rg9DXhYDxqzKiqUKuHhKMVy6XUmtr3u9fkevjPDzB1HOrTqyUn6afgfwt/Cv4y/FT4IeKU8Z/CXWp9JvYyrO0TBop17iZM7ZFxkEMCQORggY/qf/YP/AG9PCv7V/hyTQNcij0nxjpUSyXtkpPlzIePPg3cmM9x1U18H/wDBRb/gmn4b0Pw9qHx6/Z9sltHsEa51XRoU/dvEvzPNbqPuuvUr0Iz0r8QPhf8AEjxd8HvH+kfE3wRcG31PSJ1uYTkqkgQjdGw7qwO116HJPGK+8zPLsp45ymWNwkUsTBPW1pXt8MujT7ny2ExOO4bxqw9eTlTl81bv3+R/eEszswAB9/qP88VYySwrx/4F/FbRfjV8LND+KPh9gbTXLVJ0A5KNj50J9VcMvbpXrqPuIOPav5exNCVGrKhUVpRdn6rdH7PSrRq04zj1VyxRRRWZof/T/v4pr/dp1NcZFAELcZFfx+/8FOvHVx46/bN8T2skrS2+gxWumW6bvlUxxCRsemXlbI7kV/X/ACFimV6nmv4uf29dDutF/bG+IdrdDY82rGeMnuJo43Q+wAYD8K/YfBKhTq51VlPdU7x+bSf3I/PPEipOGWxUXvJH6if8ET/g9p8tj4r+OmpL51z5qaPYs68JGqrLOfqzlR7Ad88fv7DG6FQ3OCa/Hj/gixr+nah+zfreiQvi5stfnkkT/ZuIYXQ/Q4YfUGv2SU/MOa+R8RcXXxPEWMnXvfmSS7JbfefQcKUYUsspRgt9fmS1FMpZMA4NS01vu18W3ZXPo2r6GXd2UV1C9pcANFICGUgFSG6gg9jX8U37aHwnsvgr+054v8AaOhWwgvDdWiHgLDcoJQo69CxGe/oK/tlYsc54FfyEf8FQtYtdb/bc8UNYtvSzgsbdyOnmxW6M6/X5lH/6q/Y/BHEVqed1aKfuOm2/VbH534j0YVMvjPaSdkfq/wD8EVvG15rXwB13wTdSeYmhazKYcnlY7tRIR7DfuIHvX7OJt4PrX4Sf8EOtLni8DeP9Vb/VSahZxKexZIST+OHWv3TjYAqnJ5PNfJ+I9CnS4kxtOitOe/3pNn0fCspSyyi5PW34IvUUUV8SfQn/1P7+Ka/Ip1MkTeu0HFJtpXQELkKpduBX8yH/AAWS+DF14V+NWlfGa1h/4l/iW0FlcSAcC7tcnDHsWiK7T32mv6cWhLIUz1r59/aY/Z88LftIfB/Vvhb4t/1d6m63nH37e4TmOQHP8J69MqSK+r4Lz/8AsbNaeLfwP3Zf4Xv9254PEmV/X8FKml761XqfzL/8Ezf2qNO/Zt+OR03xvcNb+G/FKpZXkrnEdvOjHyZSOcDc5Vj2Vs5+Xn+tnTriC+ijubV1kjcb0ZWDBkbowIyMEcjmv4YfjX8F/H/wG+IN78MvidZGDUbPKq5BMN5AflWSI4G9HHDDgg8epH2r+yd/wUy+L/7NOnweC/EcA8W+F7c7YLWaTyru0B/gjlII2r2RgeOAc81+3eInAUs+az7JZKTmo3S+1puntfpZ2v8An+dcKcSvK3PLcyvZO6k+nkf1uo7NjIx6+1JNkRnFflX4Y/4LE/sia1YJc65LqujTkAtDcWTuQe+DEXBA9TivLfiz/wAFqfgfo2lzWvwi0S/8R3xBCtdAWdqM9CSxaRgfQIM+o61+K0eA+IKlVUY4Kal5qy+96fifo0+JcrVP2jxEbPzP0U/aS/aH8E/s1/CvVvid4xnG22jZLS2DASXNxyFiQHJyT1IBwuTzjFfxc+O/HGt+P/GWq/EDxbKW1HWLuS/uccne7bsAd9qkADPO0V6V+0H+0n8U/wBpnxk3i/4pX3mNCcWtlGNttbJjJVE9cfxHJPc4r7L/AOCcH7DesftEePLX4meP7R4fBejTiVWkBA1C5jbIROmUUgF25HG3rnH7zwxw7huCMpq5lmdROvJfd2iu7/rofl2cZrW4kxccNho+5F29fM/bb/gmZ8DNQ+B37K+i2etwi31TxAW1i8jP3ka5AKIT3KxhAenJPpX6FIF3Z96ijsxFEkMeFCdABgY9B6VOkRVi2epzX8zZnj6mOxlXHVvjm2383/kfseBwkcNh4YeO0Ukv1JqKKK4TrP/V/v4ooooAKguFDREE496npjqWXCnB/OjXoNHzd+0T+y58I/2nfCA8LfFDTxctCd1teRYjurd+m6NwOMjgjoR+GP5+PjV/wR8/aB8C3ct18Irq28V6ZkmNGf7NeKmeAQx2sw7tvGR27V/Ut5ZI5NR+Qd2c/wBTX13DfHWcZJeGEqXp/wAktY+qXQ8HNeG8DmGtaPvd0fxC63+yT+0/4cnMGs/DzXYnJKkx2Ukgb/gUQkDfnXZeC/2Df2wPHdxHFo/gLU7ZGIUPqKC0iA9T5xVse4U1/aUbeNjluaRLZUztPX/PbFffS8c825LQw9Pm7u9vuufKx8NsHz8060nHtZH4Jfs0/wDBGyy0bULfxR+0zqcd+IsFNG04sICRz++mbDOP9lAv1r9zPDHhjQ/COlWmgeHLaKysLONYYLeFAkcSIMBVUYAH510C25VgVIAHYCpwuDmvzDPuJ8zzmp7XHVXJ9ui9Ft+p9nleTYPAU/Z4anbz6jqKKK8I9QKKKKAP/9b+/iiiigAooooAKKKKACiiigAooooAKKKKACiiigD/2Q==;" vertex="1" parent="1">
                    <mxGeometry x="880" y="287" width="47.84" height="53" as="geometry"/>
                </mxCell>
                <mxCell id="14" value="" style="shape=image;imageAspect=0;aspect=fixed;verticalLabelPosition=bottom;verticalAlign=top;image=data:image/jpeg,/9j/4AAQSkZJRgABAQAASABIAAD/4QBwRXhpZgAATU0AKgAAAAgABAEGAAMAAAABAAIAAAESAAMAAAABAAEAAAEoAAMAAAABAAIAAIdpAAQAAAABAAAAPgAAAAAAA6ABAAMAAAABAAEAAKACAAQAAAABAAAB1aADAAQAAAABAAAAowAAAAD/4QkhaHR0cDovL25zLmFkb2JlLmNvbS94YXAvMS4wLwA8P3hwYWNrZXQgYmVnaW49Iu+7vyIgaWQ9Ilc1TTBNcENlaGlIenJlU3pOVGN6a2M5ZCI/PiA8eDp4bXBtZXRhIHhtbG5zOng9ImFkb2JlOm5zOm1ldGEvIiB4OnhtcHRrPSJYTVAgQ29yZSA2LjAuMCI+IDxyZGY6UkRGIHhtbG5zOnJkZj0iaHR0cDovL3d3dy53My5vcmcvMTk5OS8wMi8yMi1yZGYtc3ludGF4LW5zIyI+IDxyZGY6RGVzY3JpcHRpb24gcmRmOmFib3V0PSIiLz4gPC9yZGY6UkRGPiA8L3g6eG1wbWV0YT4gICAgICAgICAgICAgICAgICAgICAgICAgICAgICAgICAgICAgICAgICAgICAgICAgICAgICAgICAgICAgICAgICAgICAgICAgICAgICAgICAgICAgICAgICAgICAgICAgICAgICAgICAgICAgICAgICAgICAgICAgICAgICAgICAgICAgICAgICAgICAgICAgICAgICAgICAgICAgICAgICAgICAgICAgICAgICAgICAgICAgICAgICAgICAgICAgICAgICAgICAgICAgICAgICAgICAgICAgICAgICAgICAgICAgICAgICAgICAgICAgICAgICAgICAgICAgICAgICAgICAgICAgICAgICAgICAgICAgICAgICAgICAgICAgICAgICAgICAgICAgICAgICAgICAgICAgICAgICAgICAgICAgICAgICAgICAgICAgICAgICAgICAgICAgICAgICAgICAgICAgICAgICAgICAgICAgICAgICAgICAgICAgICAgICAgICAgICAgICAgICAgICAgICAgICAgICAgICAgICAgICAgICAgICAgICAgICAgICAgICAgICAgICAgICAgICAgICAgICAgICAgICAgICAgICAgICAgICAgICAgICAgICAgICAgICAgICAgICAgICAgICAgICAgICAgICAgICAgICAgICAgICAgICAgICAgICAgICAgICAgICAgICAgICAgICAgICAgICAgICAgICAgICAgICAgICAgICAgICAgICAgICAgICAgICAgICAgICAgICAgICAgICAgICAgICAgICAgICAgICAgICAgICAgICAgICAgICAgICAgICAgICAgICAgICAgICAgICAgICAgICAgICAgICAgICAgICAgICAgICAgICAgICAgICAgICAgICAgICAgICAgICAgICAgICAgICAgICAgICAgICAgICAgICAgICAgICAgICAgICAgICAgICAgICAgICAgICAgICAgICAgICAgICAgICAgICAgICAgICAgICAgICAgICAgICAgICAgICAgICAgICAgICAgICAgICAgICAgICAgICAgICAgICAgICAgICAgICAgICAgICAgICAgICAgICAgICAgICAgICAgICAgICAgICAgICAgICAgICAgICAgICAgICAgICAgICAgICAgICAgICAgICAgICAgICAgICAgICAgICAgICAgICAgICAgICAgICAgICAgICAgICAgICAgICAgICAgICAgICAgICAgICAgICAgICAgICAgICAgICAgICAgICAgICAgICAgICAgICAgICAgICAgICAgICAgICAgICAgICAgICAgICAgICAgICAgICAgICAgICAgICAgICAgICAgICAgICAgICAgICAgICAgICAgICAgICAgICAgICAgICAgICAgICAgICAgICAgICAgICAgICAgICAgICAgICAgICAgICAgICAgICAgICAgICAgICAgICAgICAgICAgICAgICAgICAgICAgICAgICAgICAgICAgICAgICAgICAgICAgICAgICAgICAgICAgICAgICAgICAgICAgICAgICAgICAgICAgICAgICAgICAgICAgICAgICAgICAgICAgICAgICAgICAgICAgICAgICAgICAgICAgICAgICAgICAgICAgICAgICAgICAgICAgICAgICAgICAgICAgICAgICAgICAgICAgICAgICAgICAgICAgICAgICAgICAgICAgICAgICAgICAgICAgICAgICAgICAgICAgICAgICAgICAgICAgICAgICAgICAgICAgICAgICAgICAgICAgICAgICAgICAgICAgICAgICAgICAgICAgICAgICAgICAgICAgICAgICAgICAgICAgICAgICAgICAgICAgICAgICAgICAgICAgICAgICAgICAgICAgICAgICAgICAgICAgICAgICAgICAgICAgICAgICAgICAgICAgICAgICAgICAgICAgICAgICAgICAgICAgICAgICAgICAgICAgICAgICAgICAgICAgICAgICAgICAgICAgICAgICAgICAgICAgICAgICAgICAgICAgICAgICAgICAgICAgICAgICAgICAgICAgICAgICAgICAgICAgICAgICAgICAgICAgICAgICAgICAgICAgICAgICAgICAgICAgICAgICAgICAgICAgICAgICAgICAgICAgICAgICAgICAgICAgICAgICAgICAgICAgICAgICAgICAgICAgICAgICAgICAgICAgICAgICAgICAgICAgICAgICAgICAgICAgICAgICAgICAgICAgICAgICAgICAgICAgICAgICAgICAgICAgICAgICAgICAgICAgICAgICAgICAgICAgICAgICAgICAgICAgICAgICAgICAgICAgICAgICAgICAgICAgICAgICAgICAgICAgICAgICAgICAgICAgICAgICAgICAgICAgICAgICAgICAgICAgICAgICAgICAgICAgICAgICAgICAgICAgICAgICAgICAgICAgICAgICAgICAgICAgICAgICAgICAgICAgICAgICAgICAgICAgICAgICAgICAgICAgICAgICAgICAgICAgICAgICAgICAgICAgICAgICAgICAgICAgICAgICAgICAgICAgICAgICA8P3hwYWNrZXQgZW5kPSJ3Ij8+AP/AABEIAKMB1QMBIgACEQEDEQH/xAAfAAABBQEBAQEBAQAAAAAAAAAAAQIDBAUGBwgJCgv/xAC1EAACAQMDAgQDBQUEBAAAAX0BAgMABBEFEiExQQYTUWEHInEUMoGRoQgjQrHBFVLR8CQzYnKCCQoWFxgZGiUmJygpKjQ1Njc4OTpDREVGR0hJSlNUVVZXWFlaY2RlZmdoaWpzdHV2d3h5eoOEhYaHiImKkpOUlZaXmJmaoqOkpaanqKmqsrO0tba3uLm6wsPExcbHyMnK0tPU1dbX2Nna4eLj5OXm5+jp6vHy8/T19vf4+fr/xAAfAQADAQEBAQEBAQEBAAAAAAAAAQIDBAUGBwgJCgv/xAC1EQACAQIEBAMEBwUEBAABAncAAQIDEQQFITEGEkFRB2FxEyIygQgUQpGhscEJIzNS8BVictEKFiQ04SXxFxgZGiYnKCkqNTY3ODk6Q0RFRkdISUpTVFVWV1hZWmNkZWZnaGlqc3R1dnd4eXqCg4SFhoeIiYqSk5SVlpeYmZqio6Slpqeoqaqys7S1tre4ubrCw8TFxsfIycrS09TV1tfY2dri4+Tl5ufo6ery8/T19vf4+fr/2wBDAAEBAQEBAQIBAQIDAgICAwQDAwMDBAYEBAQEBAYHBgYGBgYGBwcHBwcHBwcICAgICAgJCQkJCQsLCwsLCwsLCwv/2wBDAQICAgMDAwUDAwULCAYICwsLCwsLCwsLCwsLCwsLCwsLCwsLCwsLCwsLCwsLCwsLCwsLCwsLCwsLCwsLCwsLCwv/3QAEAB7/2gAMAwEAAhEDEQA/AP7+KKKKACiiigAooooAKKKKACiiigArPvJ7e1/fTyiMY/iOB/nmtCv5j/8AgtvqepD9ofwvpC3U6WjeHlkMCyMIi/2mUbioOC2OM4zXsZDlEsyxccJCXK2nq/I8TiHOI5Zg3ipR5rNK3qf0XyfEDwRDdC1m1q1WTcI9jToDv6AYznJPau8hYMmV5Ge9fwbfBS0tX+Mvg4ugfd4g0wkuMk5uEB61/eNbNuiBr0OKOGlk1WnRU+bmV7nmcJ8TvOqdSo48vK7WLFFFFfLn1wUUUUAFFFFABRRRQAUUUUAFFFFABRRRQAUUUUAFFFFABRRRQAUUUUAFFFFABRRRQAUUUUAFFFFABRRRQAUUUUAFFFFABRRRQAUUUUAFFFFABRRRQAUUUUAf/9D+/iiiigAooooAKKKKACiiigAooooAK/mI/wCC2f8Ayct4W/7Fsf8ApTLX9O9fzD/8FtP+TlPDH/Ytr/6VS19pwB/yOafo/wAj4XxF/wCRNP8AxRPy1+CXPxp8GZ/6D2mf+lKV/d3bgCPA9TX8IvwT/wCS2eDf+w9pn/pSlf3dwfcP1P8AOvc8T/8Ae6H+F/meF4WfwMV/iX5E1VZywDYOOlWqikUN1r8tnfldj9XW6KsjlRjJ6Dn3/wAmvCPiD+1F+z58KpJLb4ieM9J0mWIkGKa7TzcgkH92CX6gjpXvUmArE9T0r+Fr9oeKJP2hvHsiKFY+ItTyQOeLhwP0AH0FfV8LcOQzarUp1JuKilex8fxZxJVyijTqU4puTe5/YH8J/wBsX9nr4+eK7nwJ8IPE0Wtapa25upIoI5lAiDKhbcyKpGXH8Wa+prYlkLk9TnHpX8u3/BFZFk/ai18t1HhuY/8Akzb1/UXDjZ0x7VzcUZRRyzMZYWhNyiktzq4TzmtmmXxxWIgoyu9mTUUUV8+fTBRRRQAUUUUAFFFFABRRRQAUUUUAFFFFABRRRQAUUUUAFFFFABRRRQAUUUUAFFFFABRRRQAUUUUAFFFFABRRRQAUUUUAFFFFABRRRQB//9H+/iq0sjo4A6VK+ecdQMiv5+P+Cn/7Z37TXwR+OifC34aa3DomjT6PBeJLBAkty7yPIjfvJA2CNnYcdc16eUZTWzHErC0WlJ667aHlZznFHLMM8VXV4ppfefv691Gv3nGfaqX9oWjfIZ0yvBy3/wBev4YPF/x4+OHj47vGXjHXNWBUAi4v5WXHXGwPtHJ6AD6V5mtxfyZd7mYEnJ3SEk/ia++h4YVnbnxEU/Rn51PxWo81oUG0f32x3ds77UmVj1wGzVlJ1J2KdzDtnmv4DI9Q1aznWa0u7hHXkNHKyEfkRXungv8Aaz/ac+HkiS+EfHmu2wiO4RSXjXEOPeOcyIRx02fjTqeF+JtejXi5drNF0vFTD8376hJL1R/cOrkjJzUkbBhxX8xHwW/4LNfG3wneRWXxq0a08T6fIcG5s/8AQrwDuQnMUp77QIz79K/e39nH9pr4TftO+EZPF3wp1D7THbusV1bygx3NrIyhgksZzg89QSD2NfE5tw5j8t1xNN8vfofbZLxRgMzVsPL3u3U+jqKjjzyT3ORUleGfQhX8wP8AwW3JH7THhYD/AKFtf/SqWv6fq/mH/wCC2gB/aW8LEj/mWx/6Uy19pwB/yOafo/yPhfEb/kSz/wAUT8sfgaSfjR4NJ5/4n2mf+lKV/eBB9w/U/wA6/hC+CIA+NPgzH/Qe0z/0pSv7vYPuH6n+de54n/73Q/wv8zwvCz+Biv8AGv8A0kmqvKQHHXnjirFeB/tPeINc8L/s9+OvEXhy6ksr6w0DULi2uIuHiljgdlZTg4KkZFfmVODnJRW7svvP1KtUUIOcldLX7j28umcFgOema/hf/aK/5OE8ef8AYxap/wClMlehQftz/tiCHzJPiPrTlh1EkYz9CU4/nXzVq2p6prmq3Ova5O91e38r3FxNIdzySyElmY4GSx5J7k5r914Q4WxOT1q067TTilp63P5/4z4tw+c4enTowacW3d+lj9bf+CLG3/hp7XyxwB4bl/8ASm3r+ouMkgkYHNfwa/Dn4r/Er4Pa3L4k+F2uXOg31xD9nkmtSFkeIkMUyykYyAfqB6Cvbf8AhuH9smEBV+JGtHjPMiAj2+7zXHxVwRjMxzGpioVEo2W56PCnHGFy7AQwtSk2+6P7X8sOSQfpSxMWBJOea/iZn/bs/bJtoHm/4WRrWVBIxJHxt5OSU6YHSv7Cv2fb3X9S+B/hHUPFN299qU+jWElzcSHLyzPAhd2OBksxJJ9a/OOIeF6+UcjrTT5uyZ+k8OcV0M4c1RpuPL3aPYajYHfmpKjc4OT0r5o+rGFsHqTSFgD8xxnoCa4X4i/EHwl8NfCt7408a6jHpWmadCZp7mU4RFHc45J4wqjlicAGv51/2nv+Cw3xD8X6hN4e/ZnX+wdHjDKdVu41lvbgcgvHG2UjB7Zyw6nB4Hs5Jw9jM0nyYSGnWT0S+fc8DO+JMHlUObFT16RWrP6V5byCFj50gUDuxxzVQapbh9xuEI9Nw4r+Erxh8Vvid8RLt7/x14n1bWZpDl2u7x5Vyefu7tq9egFcWby8KhftD4HpIc197DwuqtL2mJSl2tp99z4CfipFSfscPePduzP7+YrhZydpBHbBqRHA6Hr75r+Gz4b/ALTX7Q3wju4r34c+M9XsFgO7yGuWmt29A0MpeMjj+5n3r9sf2Qv+Cu9t4n1K1+H/AO1LHbaTd3LLDBrltmOzeVsBUmUn5GYjh1AQdMDk14WccA5jgourD95Fdt/Wx72TeIuXYyao1U4Sffb7z94zgHLE1NGQVyKoWV4l9bLdQYZX5DDkEHkEHoRjuKvR5xya+HtbQ+/UuZKV9CSo2JB4qSsbW55ILCeWJihWMkMOxH4EURV2khTmoRcn0NFn4wcH8aRWx14/Gv4p/E37cf7YHiC9muNQ+IutwgSuQlvMtqgAJwB5KqSMetfrl/wSI+OfxZ+JOqfEG6+KvinUNct9NttOeD+07l5Ut95uNxUyHABCjecdAK+yzLgjF4HB/XqlROLtp11Ph8u48wmMx31KFNp66vbQ/eFn+bcCeKhe8ghH+kyLHk8bmxmv56f20f8AgrVq76vdfDf9lOUJb27NFc+ICizeaVyrizjPG1SOZX4znHSvw68S+OfG/jXUX1zxlreoardzMXNxc3T3G8k9VZmIx24wAciuzJfDzHY6lGtVmqUXsnuzizvxIwWBqyoUoOrKO7WyP73Ev7a4J+zSq/bg9/qKuRMXUnPGePp+Qr+Mr/gndLr11+2f4Ds9OvZ1WS9la4XzWUSRRQSyFWAPzD5ehyK/ssAbyAEY/KOOfTj8fxzXg8SZBLKcSsNKak97o+h4Z4iWb4Z4mMOW3QsvIVOFI/E1EkuPlyPwOTX8lv7ZH7T/AO2B4C/aL8ZfDebx/q9pa6bqLizS0eOBVs5cS2/MSgn906gk8k9a7f8A4JtftefFhP2s9M8MfFTxTqWtad4ohl00JqF5LcRw3JHmxMiyHClihTIH8WK9V8CYtZf/AGkqicbXt1PGhx/hZ5g8vdNpp2v0P6o1B24B5qSqsL5QvyNxzyOasKc5+tfEJ31Z9/6Dqa33eKdUbkg8UwIZGYMFzj8aiNwHy0RBI45OK8I/ah+Lln8DPgL4q+KN0VL6Tp00sCP0e4I2wr77pCox71/HRpv7T/7UGmnzLL4heJBcyLliup3BBYjrhmYfh7V9Tw7wjis4hUnSmopPd7HyHEvGGGyepCnVjzN9Fuf3KK3mAMT+XIpWXJBya/J7/gk/41+PXxK+DmtfEf4yeJL3XLW71FrfSlvFQskFtw7hgAzb3JUZJwUr9GvidofiPxR4D1Xw74U1mbw/qlzayJa6jbhXa2lIOxyHUqwU4YgjkZHevDx2BeGxcsLUmnyu1+h7+X5gsXg442nBpSV7dT0gSEHBqMzMzbFIDdSD1xX8WnxR/aK/bW8GeNtX+HnxM8e+IrbV9LuHtryOG/eJFZOjJ5ZQbHBDKVGMGvef2EP27fiT8KfjjY2/xc8S6jrPhvxDtsLttSu5br7I7MPKuVMrNsCMcSgY3I2TnYK+xqeH2KWCeMp1YyVr8qTvY+JpeIuFeMWDqUpRd7XbVj+tjcSAQaWMMM59aq2NxDd2iTwsGRxuVlOQQemDzmrq9PWvgFpo90fosZXV1sxaYzbevSn15h8Yfid4V+Dnw91X4leNJ/s+l6Pbvc3D99qjgKP4mZiFUdyRVwhKclCCu2yK1WNOEqknoj0MXMRb5XBFPDrIMK2foa/id+KH7Z/7RvxM+JWrfEG28Xa1oa31w0kGn2N/PBBaxDiOJUVwnyqBuIHzMSx5Jr7e/wCCdHxA/bL+Pnx3s7I/EDW/+EW0Mrd6093MtzG8fIW3Uyh8PKQOhBVQSOTX3GN4DxWFwf12tVSja9j4DBeIOHxWMWDp0W3e10f1ChjjApctVa1m82IcncvDZ9f5flxVnLV8Jvqmfou2lj//0v79iiMcsASP6V+JX/BTT9h740ftRfHDwj4i+FVtatbQ6ZJZ311d3Aijt9ku9GIwWP32+4GPXiv23qGVQxwwz3/KvQyzNa+X11icM0pJNa+Z5ua5VQzHDvDYlXjdP7j+eTwN/wAEQby6t47v4kePSrtgtFploNuDz8skzEnvzsX6V9C2P/BFL9mhbZVvPEPiJ5AOWFxbqD+Agr9kzHHg7l69fehVAXCDAHtmvUrcX5vUleVdr0sePR4LyemrKin6n4s+IP8AgiP+z/d2e3w94r1+xmH8cjW9wv8A3z5Sn8mFfEfxq/4I2fGzwJpNxrvwu1+w8T20Kl/s80RsrooOuGJZMqOeoJPGK/qBIOfT8K5rxUpGgX7ucqbaQAe+DXTguNc4o1YP2zkrrR7HJj+CMnnRm40VFpPVXP4GxIsqG4j/AIwWzxnk9OCeh47dOlf0P/8ABDVVXwv8RdoAzqFhn/v1JX877n5R+Nf0Q/8ABDf/AJFn4jf9hCw/9FSV+p8dVPaZHKfVuP5n5VwLB08+jT6JSP3vBOce9KhJHNN7/jTk6V/P0dj+i2Pr+Yj/AILZ/wDJy3hb/sWx/wClMtf071/MR/wWz/5OW8Lf9i2P/SmWvteAP+RzT9H+R8J4jf8AIln/AIon5afBL/ktPgz/ALD2mf8ApSlf3eQfcP1P86/hD+CX/JafBn/Ye0z/ANKUr+7yD7h+p/nXueJ/+90P8L/M8Lws/gYr/Gv/AEkmrzP4v+BU+KHw08QfDea5Nmmv6bc6cZwu/wAv7TG0e7acZxuz1r0yq8m0PmTG2vzGM3F80d0fqs4RmuSSunofz9x/8ENbCNSq/Em524xkabHnp1H779cV+FXxC8JjwF8Qdf8AAwuDd/2NqV1Y+eV2GT7PIybivbOOlf3qSoDGTgHaOK/hf/aK5/aE8eE9T4i1T/0pkr9j4BzvG4+vXjjZuSUVbY/EuP8AIcDl9Cg8JDlbk7nr37FP7KsX7X/xP1D4aT64/h8WWmvqAuY4BOWKSpHt2syD+MfxfhX6mj/ghppzjK/Eq4X2/stD15/57184/wDBFT/k6HX+M58Ny5/8Cbev6h1GxdsYAA4AHpXm8a8S5nhM1qUsPW5Y2WiserwVwxleNyqFWvS5nd7s/AGT/ghZpk6eXN8SrgA5BK6YgYgjGAfOOPqB3r96PDGi23h3QrXQ7LiG0iSFBjb8sahRgdhgdK1BvPLL+VSwKFXjP41+f5lneNzFqWMquVtrn6DlfD+Ay26wVJRvu7k1UbwlQDzjnOPTBz/Lr61er4E/4KVfHG8+Bf7Kmu6rocyw6xrYGkaeScESXQKuw75SLewI6ECuXB4Spiq8MPSXvSaS+Z347GU8Jh54mr8MVdn4Kf8ABSH9sbV/2lfipdeBvCV27eCPDc7W9ukR/d3t1ESslw4zgqrgiPPQDcMbq+Kfg38HfiB8f/iDZ/Df4Y2JvtUvPny7FIoYQfmlmcfcj5G7HzdNoJOD5WEVIzFD86oCMt1KYwn4kEZ96/qk/wCCSH7PWk/Df9nGD4r38IfW/GrG6eV1wyWUbMttEM/wlRv9Dur96zfFUeG8qjSwyvJpJf4urfofz7k+DxHEmbSqYl2jdv8A7d6W9Tkvgf8A8EeP2ePCemwXfxeubnxfqborSgzPbWYbuESIoxUdAS/zDkjOSfpvV/8Agmj+xFrOmNYf8K/s7dhwJIJriFwcddyyA/nmvvGKHcQ8yjf6+9PKncScYx09a/D8Rn2Y16rqV6zbvpZtJfI/ccNw7ltCl7OlRSjbW6Tb+8/nU/ao/wCCP3/CL6Dd+Nv2Y7+e+ks43mfRLxvNkdF5YW8mAWfGNqSZ5A5+avwidY1JgMRWRSyOjH7uCNykHp3BB64r+/6WHIPyDLenXjp/Ov5Dv+CoXwd074Qfta6tc6HCsGn+J4ItXhjAACySFo58AAY/eRlh7NX6hwFxVisTWeX4uXM2rp+S3TPy7j3hTCYSjHHYOPIk9V5vqfqH/wAEgf2sdR+IHg28/Z38b3bXepeGIhcaZNIx3zaezFRGSTlmiOR7KVHQCv28gUJHsHOOOfav4pv2EviPd/DH9rrwJ4htpNkdzqCaXc5bCmC//cHPrgkN9QD2r+1W1BCHPPNfIceZRDA5m3R+Gav8+p9n4f5xPH5bar8UNC1WPrPNjOD2jf8A9BNbFY+sf8eU/wD1zf8A9BNfH0viR9rV+F/P8j+Ay4A+1St38x/5mvTvBvxd8c+B/AviT4c+Fbk2ll4u+zJqJiyJpY7Uuyxh8jajFyJB/EvByK8xuP8Aj5l/66P/ADNfoT/wTp/Y98M/tYfEzUZfH1zs8P8AheOC4u7VCwkvGnZhHHuH3Ih5bGVh8xBA6cj+msficJhsBHEYyN4RjF28+n4n8tZbhcVice8PhJWnJyXyvqfOvwH/AGTfj/8AtKzkfCjw9Jd2UR2yahMPs1grKB8olfALLkfKgfC4O3mv0V0H/gih+0HqNsLjxD4q0SwlZcskST3BD+hOyLP1H5V/SL4R8M+HPCPhyz8OeGLGDTrCzQQwW1ugSKNF6BQABj04Hqea6oFckD1r8hzHxGzOvU5qDUYdFY/Ycu8NMtowarpym93c/Cr9jD/gmN8X/wBmz9pPTPix421TSdT0vTrS7RTatKswmmTy1Ox4woG1m53nGT+P7l+X+7LYyepB688/oasmONic4OeDkU4oo+XHXNfIZrm2JzGr7fFaztY+yyfJ8PllL2GF+G5/Mn/wWn+Eb+HfjP4e+LthFth8S2BsLhh0+1WRyufZopMc/wDPMelfj14W8Sat4J8U2HjbQSRfaRdRX1s2cES27iVFz6Ergj0Nf1k/8FU/g/D8UP2SNY1izg8y/wDCkketW+1QWItziZR3AaFnz6kCv5HImkeBHVfu/NknhiB3HocH8K/a+AsZDG5O8PPeN4/efiHHeElgM4+sx2k1L7j+874W+O9D+J3w70X4heHGD2OtWcN7Fj+7OofB9xnB9816EoxX5D/8EdfiufGX7Nsvw2vbgSXng+9ltgmefss/76I/QFnUdgFxX67RElefWvxPNsFLCYyrh39ls/cclx8cbgaWJXVElMcelPqtNJtI7+1ec20ro9TR6M/C7/gtl8YDpXw/8L/AvS5f9I1y8Oo3ihuVtrMgRZ9mnZDz/cPpX861vb3moTxWGkRtLcXMixxKvLPK5wFA9SzALX2//wAFIvi03xf/AGu/E1/azefYaA66JaEHIC2nE2O2DOZSMdRirn/BNL4ND4yfta6Eb2HfpPhj/id3nHG61P7gH6zFD7hTX9BZHTWT8PKrNapOb+ex/OefVZ5xxC6dPZyUPu3P6mv2aPhLp/wO+BPhj4U2KjGj2McUrDGHnPzTP/wKRmP417mY/kYL3B/WmoY1HyfwipgQQdp4r8DrVnUnKrJ6yd38z+hcNQVGjClDaKS+4/D3/grl+x83jfwr/wANK/D6yDaxoMHlaxFCMPc6euf3mFGWeHOc9fLyB0FfzYk+YgGQ8bHnB4bIP5EjP+7nAr+/3ULGG+hktrqNZYJo2R42AIcMMEEHgg9wetfx+f8ABQf9kqT9lz4xsPDlqw8H+JfMudJdV/dwY+aW2PZdjYaP1Q47V+s+HnEynB5diX/g8/I/HfEXhn2dRZlhV8T9/wAj9nP+CT/7WzfGH4VD4L+Mbky+I/CMMccUpP8Ax96e3ET8nO6LmNx/sg96/XhWJXBOfWv4U/gR8ZfFv7P3xZ0f4v8Ag0s93pk5aSENhbuF8CaJj2EgyOeBkN1UY/tl+EPxO8KfGr4baT8TPBVwLnTNYtkngfowVhyrD+FlOVYdiK+a464d/s7G+2o/wamt/Pqj6ngHiP8AtDB+xrP99DS3l0PQpptkirnpz+H/ANfpX81n/BXv9rBPG3jeD9mrwfc/8SzQJFuNYdWyJ70qWSHI6rApBcHgswB5FfsB+3j+1Bpf7K/wMv8AxfCytr98DYaPEQGJupQcSFT1SIAu3bgDuK/jd1W/1HW9QudR12aS4vLySSa5llYs7yyvvkZnOSxLjlicnBPevT8O+HXias8diF7sdIevf5Hl+I/Eiw9KOAoPWWs/Tt8y/oGieIPF3iTT/CXhazbUNR1KWK2tLZD+8nllYBAO6glgGPbPPANf2d/sXfsveHv2Vvgjp/w9tBHc6pLi61S9VcG5u3ALNk87F+6gPRR2r8s/+CQn7IU8Nq/7V3j+1AuLgPB4eilTGyN8ie72noXJaOP/AGQT0av39tzlSff61jx/xEsViPqGGd6dPd/zS/yRt4dcNSwuHeYYlfvJ7L+WPT5skWKNBtQAD2p2xadRX5wlbRH6fdn/0/7+KgkLBuBmp6o3EsUcmGI4GT7D3oBu2pOGx97FIWxgoOK+WfiT+2p+yr8IZ2svH3jjS7W5U8wRS/aZh25jh3uOR3FfK2sf8Fif2OdKuHtbC61jU9pxut9OcAj1HmbOK9LD5Ljq65qWHk135dDycTn2X4d2r4iEX2vqfqd5j/5z/hXOeLD5vh69j6FbeQ/pX5P3n/Bav9l2J2+yaL4jmQDh/s0Cgn05n4rzTxH/AMFtPgrqOl3dlpvhDXN0iNGrSNbBTuB64lYj34r0sPwnm/PGSw8krrpY8rGcV5Q6FRfWE9Hpc/nCf7o+pr+iH/ghv/yLPxG/7CFh/wCipK/nfk27VIG0nquc4PpX9EH/AAQ3/wCRZ+I3/YQsP/RUlfrvHNNQyBR63jf7z8g4Hqc+fRl0alY/e7v+NOTpTe/405Olfz7HY/oxj6/mB/4Lbkj9pnwsAf8AmW1/9Kpa/p+r+Yb/AILagH9pTwwT/wBC2v8A6VS19rwB/wAjmn6P8j4PxG/5Es/8UT8svgaSfjR4Nz/0HtM/9KUr+8CD7h+p/nX8IfwSAHxr8Ggcf8T7TP8A0pSv7vIPuH6n+de54n/73Q/wv8zwvCz+Biv8a/8ASSao5FUjkVJTH6V+Xn6uQDmM59K/hc/aK/5OE8ef9jFqn/pTJX90a/6s/Sv4XP2iv+ThPHn/AGMWqf8ApTJX6h4Y/wC8Yj/DH8z8p8U/93w/+KX5H6Qf8EUf+TovEH/YtTf+lMFf1FlFPBFfy6f8EUf+TovEH/YtTf8ApTBX9RteN4hf8jifoj2vDn/kTR/xMaEVegp1FFfEH3gV/Or/AMFyvGjT+KPAHw3UkRwwXmqSgHgsxWKPI6ZGHAPox9TX9E5PJ9hX8sn/AAWf1ee9/aw07SZl/dWXh20Kk853z3BP6j9K+08P6KnnVKT+zeX3I+H8RKsoZJVjH7TUfvZ+RNwJJoijuV3DrnnOf6dq/vH+EXha28E/C3w74OtFCRaVptpaKqjAAhiVOAPpX8IAYhkmXaXiYOFZQygqwblTwwPIIPUV+jkf/BWT9tm3jWGHWtMVV4AGnRtgDpzkV+kca8P47NVRhhrWi5PV23PzPgjiPBZTOtPEt6qK01eh/XMFAORS4FfyNf8AD2z9twddb0z/AMF0Q/8AZqP+Htn7bf8A0G9M/wDBdF/8VXwf/ENc37w/8C/4B+gvxNyh/wA33H9cu1c5IyRzk1/Nb/wXDsLKP4v+BLyFds02j3kTEfd2JNHj8fmYfQ182j/grZ+2721zTf8AwWxn/wBmr5e/aB/ah+MP7T+qabrfxgvLe9utJikhtfItxbgLKVLZAJBxjP8A+qvoOF+CMxy/MIYms48qunZ3ep85xXxxluY5dPDUebm0eq7Hj3gTUJdL8baFqtuMSWmo2U6eu5JkP8lNf3x2X+pBznIB/Sv4FfDAkk8U6Q0A3lr+2CAdWbzlx+hNf302A22yLx90dPpXH4oJe0wr62l+h0+FLfs8Sunu/qXayNX/AOPG4/65t/6Ca16yNX/48bj/AK5t/wCgmvy+n8SP1mr8L/rofwF3H/HzL/10f+Zr93v+CG+W8R/EiNuV+z6U2D0yGucH8K/CG4/4+Zf+uj/zNfu9/wAENf8AkZviR/17aX/6Fc1+/wDGX/Ig/wC3YH878E/8j6HrL82f0Q/dzjtUsYDEk9c1E38X4VND3+tfz7bRH9F/5sl2jrUcme1S1G5IbIpDt0Od8TaNp3iHRLvw9q8K3FtfQSQTRuNyvHIpDAj0IJBr+FT4r/D+++FHxP8AEPwx1JSs2gajcWXzdSkLFY3z33x7Wz3DV/eMyq5Kt3GD9DX8u3/BZP4M/wDCDftCaf8AFewhI0/xfYBJ2QYC3tliN+nd4WQqeuUNfofhxmPsMbPCzfu1F+K/pn5n4mZWq2Chi4b03b5M4j/gkd8ZG+Gn7VUfg2/l2af40spNPILYH2qAGWA46ZIEiD3YDvX9YsDF03NwT/kfpX8DPg7xhqvw68a6T8RdEYJe6HfW99Ay93gkDgcdjs59jX93Xw88Y6V8QvA2keO9CfzLLWLSG8gbOcxzoHGfcA4PvXR4l5cqeMp4yPw1Fb5r/gGXhhmLqYOpgpfFB3+//gnZV4J+0x8WLL4H/A7xT8UroqG0bTppoVbo87DbCnvukwuPeve6/Db/AILafGD+xvhp4b+B+mSAXHiC8+33YBwRbWWPLyPRp3Q/8APpXxmQYB43MKOH6OSv6LVn23EeYxwOW18Q3qk7er0R/N5Nc3+p3Rur6ZpJrljLLKxJ3MxyzZPckn8a/pY/4It/BBfDPwW1j42alBsu/Fl2sNszDkWNnkLg9fmlaTPrgV/NjpGlat4k1K08N+HIfNvdRnitbaPG7dcTN+7UD+7vJz7Yr+6f4HfDDRvg18JPD/wp0If6LoNlFaBiOZHjHzufd3yxJ6k5r9T8R8wVHA0sFT+27v8AwrRL0PyXw0yyWIx9XG1doKy/xPV/M9SCZ4UYHtUqIFGKA3OB0pytur8V6WP3W4u1T1FfM37Wf7O3hb9pz4Nap8MfEipFJMnn2N4QN9peRZMUo7/K33gCNy5U8E19NVFIvGc4rShWnRqRq03aUdUYYnDwr0pUaivGSsz+CDx14K8T/DXxlqnw98bWZsdW0m5e2uoCOFdTyVP8SP8AfU9NrCv1+/4JAftSXPgnx3P+zT4snb+ytfZ7vSWZiBDfIpeSLrgLMibhj+NSP4zX0t/wV4/ZHg8U+Fh+094Qijj1LQo0h1heE+0WRYBZCeMyRE4z1KHH8Ir+cvSdU1XRr+DXNIuZrS8iw8U8TGKVGIwcFSCpzkEDGOlfv+DlQ4nyf2ctKmz/ALr6M/njFrE8MZy6kFeGrX95dT7S/wCCgn7St7+0t+0PqOq6fc+b4d8PvLpujDJEbLEcSz4/6bSAkeqBM9K5v9i79lfVf2rPjZaeBZlZPDtisd1rlwp2bbMNjyUYYw85+Re6ruavlHTNP1PV9UtdF0S3ku7y8lS3gghGXldzgIo9W/hPYj0Jr+yf9hP9lTSP2U/grb+FbhIpfEWoFbzW7xFGZrt1Hyq2MmONflQZwOT3NcXEeaUciyqGEwnxzXKl2tu/mdfDuU1c9zeWKr604vmb9do/I+ufD+g6R4e0O00DQ4Ut7KxjjhgijAVI441CqqgYAAUDgCuhRAmcDGTUKbVG5O9WFORmvwe8nrPc/oKMIxXubC0UUUxn/9T+6X4v/FHwl8Fvh/qvxN8d3f2TS9It2nlfudvRVz1ZjwB61/Jv+1J/wUM+Of7S+qz2Fre3fhjwwrfudKs5TG8kWODcSghpCwwSv3R6ZzX6Hf8ABbz4sX/k+DvgTp8hFvdmbWL9QSNyxYhgBHf53dhnoUB6ivwBigM8gtLeNpHmk2RohwS8hOAvoWYjkd/rX7HwFw3QWElmeJjd9Fvp3PxPxA4lxFTFxyzDS5V1a7l3Q/DmseJ9UXRPDFhPf39wcpDZxtNKST12ICxz0y3y/rX1noH/AAT6/bT8UWou7H4dahHEcYNy0Ns59yskqkH1wAP1r+m79i79kjwT+y78KbHRrW1hk8RX0Ky6tf7F8ya5cAuobGREjcImcDGcc19ogcAKBgVwZj4mVoVHRwMEoLv/AJHblnhlSqUlWx1R877bn8fjf8Etv267iUKPBipn+NtQtAB+UxP6Vp3n/BKT9tKysmu73QbCJEUs7f2jEzKuDu+ULzx71/Xf5aAcqMfSud8U7RoN+e32aT88GvOh4k5tOUYe7Zvs/wDM9Wr4aZXClOXNPRN6tH8Dr8x8nPBOPQk5I/Ov6Hv+CG//ACLHxF/7CFh/6Kkr+d0/6sH1zmv6Iv8Aghv/AMiz8Rv+whYf+ipK+946mp5Fzrq43+8/PuBVbPYQ/lUkj97u/wCNOTpTe/405Olfz9HY/o1j6/mI/wCC2f8Aycr4W/7Fsf8ApTLX9O9fzA/8FtyR+0z4WAP/ADLa/wDpVLX2vAH/ACOafo/yPg/Eb/kSz/xRPy7+CX/JavBv/Ye0z/0pSv7vIPuH6n+dfwf/AANJPxo8G5/6D2mf+lKV/eBB9w/U/wA69zxP/wB7of4X+Z4XhZ/AxX+Nf+kk1MfpT6Y/Svy8/V2QL/qz9K/hc/aK/wCThPHn/Yxap/6UyV/dGv8Aqz9K/hc/aK/5OE8ef9jFqn/pTJX6h4Y/7xiP8MfzPynxT/3fD/4pfkfpB/wRR/5Oi8Qf9i1N/wClMFf1G1/Ll/wRR/5Oi8Qf9i1N/wClMFf1G14/iF/yOJ+iPa8OP+RNH/Ewooor4c+8IpK/lR/4LLMzftf2iscj/hG7Lj/ttcV/VkcZwa/mG/4LaeG7nT/2hvC3itIgINS0JrfeByXtZ2Ygn/dlFfceHkks5hd2vGX5HwniOm8kqWV/ej+Z+Oml2Y1LUbSxmJVJ7iKNmGdwEjbCQRnkZGOK/pptf+CKH7NNzAs8mv8AiNS4zgXFuQM88Zt849M5NfzDyzNbkTR5DRfNleCGjORj0ORmv70/hj4kt/GXw60Pxbatvj1OwtrpWznImjVwc/jX2XiBmePwf1eWHrOK97b5HwnhxleAx0sQsTS5rcu5+Vv/AA5K/ZmH/Mw+JP8Av/b/APyPR/w5L/Zn/wChh8Sf9/7f/wCR6/Yuivzj/W3OP+guX3o/Uv8AU/Jv+gWP3M/HP/hyT+zMf+Zh8Sf9/wC3/wDjFMf/AIInfs0ACP8A4SHxIR1x59vjn/thX7H0dxxmj/W3OemLl+BMuD8lt/usfxPyA0b/AIIyfs3+H9csPEFtr/iJ5bC4iukV7i32F4GDKCBADg45+bpX6+WaqkW1egPrmlKlzj+YqWJFRcKAOe1eTjs0xeNmpYupKTW1z1MvynCYFOOEpqMXvYlrH1j/AI8Z/wDrm/8A6Ca2Kx9Y/wCPKf8A65v/AOgmual8SO6p8L+f5H8Blx/x8y/9dH/ma/d7/ghr/wAjN8SP+vbS/wD0K5r8Ibj/AI+Zf+uj/wAzX7vf8ENf+Rm+JH/Xtpf/AKFc1+/cZf8AIhfpA/nfgn/kfQ9Zfmz+iFv4vwqaHv8AWoW/i/Cpoe/1r+fnsf0X/myajAPWiikMbtXOcCvzW/4Kr/Br/hbH7KGq6lp0W/UvCjrrVuVXLlIFZZ1B6gmF3Ix3A9K/SusHxFo9h4g0i60LU4xLb3sLW8yMMhkkBUg56gg812ZfjZYTE08TH7LTOHM8FHGYSrhpfaTR/AYjqymJhhCDuA6FTzx7Y4Ir+rD/AIJDfF9fH/7LCeA7+bN74NvptPcFiW8iRvOhbv8ALhyg9lxX803x0+Ft/wDBP4yeJfhVfqwOhahPbws3V4Cd0TD/AHo2Wv0H/wCCP3xcbwP+03P8OL+XbYeM7F4NpOALu0BmiP1KCVfXJFfuXGWF/tHI/rFNe9FKa/r0PwLgzGPLc8+rzfuyfIz+qB5gAGQtnGce3X86/j7/AOCmHxg/4W/+1vr/ANnl86z8MhNDtmByD9myZiPrM0n1AFf1N/tB/FOy+CXwX8T/ABVumUHRdOmnjV+jTquIk990hVfxxX8N95qN7qN1NrF85muLmQzyO53F3lbcWOe5Y5PrzXyPhjliq4iri5bW5V6vc+y8T80lTw9LCLe/M/RbH6L/APBLD4ML8V/2tNM1y9iMlh4PhbV5cj5fOUhLdc4xnzDvA9ENf13wJsj2Htx+Vfjz/wAEcPgmngf9nm8+KuoRlbzxffNJGW+99isiYoiO+HcSOPZhX7Dw58sE9TzXzvG2aPG5nNr4Ye6vkfTcC5V9SyyN95+995JgUAAdKWivkT7MKqXBG9VORn8v89qt18N/t7ftUWH7KnwXuvFNoyP4h1NXstGgIDE3DjJlZT/yzhX94/rgL3FdGFwtXE1o0KKvKTsjlxuMpYWhOvXdoxWp+Rf/AAV//a+l8W6+n7Lnga43adpJSfXGRsrNdDDR25I+8sIw8gPBfaCMrX4kRW89x5i6ekk3lRPLhVLERIOZGx0ABDMfU1bv7+/1jVbjUtZmknuryV5Z5pmy8k0zFnLMTknec7jz1Pev3i/4JSfsa2Xib4ceI/jV8T7QzWni2xuNE063cbC1nIMXE3P3TI67EPYLn+Kv3+U8LwxliprWWnzk9/uP53SxfE+Zyb2d/lFbW9T8MvCnijX/AAN4r0zxz4Kuza6hpF0t5aTL8xSaFvkyD1VuSR3A2nhjX9ov7I/7SXhf9qD4K6d8SvD7LFcsTbahZg7ja3sXEkZ74zyh6FCpr+Pj48/BTxJ+z78WdX+E/ikF5NKmKWtwVwLq0b5oZl9A6YJA+62V7V9H/wDBP79q+4/Zb+NkE2uysnhbxAY7PVlLEiIZCxXIHYwkhWxyY2P90VwcY5JTzbLqWNwms0rr/D/w53cHZ5VyjMquExKtCT5X/iR/Y0PX8xUqdKpaZeW2pWMd7aOssUoDK6HKsD0II4xV8ADgV+DuLWkt0f0FCSavHZi0UUUFH//V/U7/AILLTzyftaWKyMSIfD1oI8/w5muCcenJr83Pg9Dp118Y/CFnrDCO0k1vThO56CM3MSsD7YOT9K/Xr/gt14BvLH4n+DfizFGTaahp0mlysF+VZLWQzLuPqySPt/3a/EmC7ksrpLqFvLuLd0ljZcEqyMCrAeqgZ+oz2r+h+FpRxOQ04U9+RrTvc/mripSw+fznN6KafyP7+bURmBG4BPIqR1ORsBx3xXwl+xr+2h8PP2mfhxpvmahDZ+LbWFYtT0qV0S4WdAFdo0JBaN2BZGGRg46ivuNJgz4PGOnPH41+BYrBVsNWnSqx5ZJn9DYDG4fE4enVpSUk0WwWA6H8a53xZ83h2+BH/LvIf0Ncb8R/jV8J/hFpj6z8SvEen6JbqCQby4SMsRzhVJ3MfRVBPtX4zftT/wDBYnwgul3fg39mqxfU55VaBtX1BGitYsg5aOI4kkPIxuCj2rtyrJ8bjK0FQpO11r0ODO89wODw81WqRvZ6X1P543+6Pqa/oi/4Ibhj4Y+IzDoNQsM/9+pK/ngDBWVpMkn5m3LtOSOfl7DPQelftD/wSA/aO+EnwdufGPgz4pa3b6BJrk9rd2VxeyCG3l8hJFkQyN8qsAQQCec1+2caYepLJJUKUW2uW9ld6H4dwViqSzuNerJJe9a7sf0zI2fu8H3qdN2Pmr5zm/as/ZjVQ7fETw2F6g/2tbAEDk/8tCTgV7voGt6b4j0i31zR54rq0uo1lhmhcOkkbgFWVhwQQcg1/P8AUpThZTi16po/omniKVVv2c0/RpmxX8w//BbQA/tLeFiR/wAy2P8A0plr+niv5iP+C2f/ACct4W/7Fsf+lMtfY8Af8jmn6P8AI+L8Rv8AkSz/AMUT8s/giAPjT4Mx/wBB7TP/AEpSv7vYPuH6n+dfwh/BL/ktPgz/ALD2mf8ApSlf3eQfcP1P869zxP8A97of4X+Z4XhZ/AxX+Nf+kk1RSZJ2g+lS1G+Bk98V+X3tqfq9k9GRyDptr+F/9pC1ubH9onx9a3gxIviLVNw+tzIR+hr+5pmwcnoFyfzr+OX/AIKSfD26+HH7ZnjK0niKQa5LFrNqxGA8dygMgU+omEgP0r9H8MsQoY2vC9nKCf3M/MPE+lzYOhWtdQm/xR9H/wDBFy7jg/aj1u13BZJvDdxsHc7Z4CcV/UdCZFDFjkE5H0r+In9k39oK7/Zb+PWjfGBLWS8tbVZba+toz88tpMB5mzpuZTtIU8bgK/rW+Gf7Yv7MvxO0FNc8L+NtJ2yAEw3F3HBOhwDh45GDAjv296XiJluJ/tN4r2bcZRWqVxeHGaYaOWrCVaiVSMm7N20Z9ReYf736VKhJOa+afGf7W/7M3gTT31HxR4+0O3VQGCpexySHr0jjZnb8FP0rN/Z4/a2+D/7Ucuvw/CO+nvIfD88dvcSzQvBv85WKvGHAYodpwxVeQeK+DeAxPs3VcGorrZpH6CsywrqqjGonJ9E02fVZHevxW/4LT/CS88VfBHQfirpsbMfCuoeVclRki1vwIy30WVYvwJr9o1zyG715l8XPh/4Z+LHgDVfhn4ujMthrNs9rMB1AcHDA4OGUgMp/vAVvlGP+pY2liv5Xr6dfwMM9y5Y7BVcJ1ktPXofwjS+WHaSNc8lhnncGzj8Sp596/q4/4JS/tBW3xU/ZssfAN7cqdY8En+y50LEsbZT/AKJLjurRfIx7MtfzL/Gj4Q+Mf2fvitqfwn8dxML/AEmQskig7LmEcxzxE8FZFIbHUHjqK1fgL8e/iJ+zd8Qrb4jfDO6SG4hXyLmCY7be5tm5aOVR2zyp7NyOa/d+JspjnWXxeFfaUfmfgHDGbTyLMpLErvGS9D+6CORSMDOfelBPUcV+UPwL/wCCtP7MfxH0m3g+I97J4L1hlHmRaiCLYt0/d3AUoVJ5G4gj6Yr7t0b9pH4A6zYJe6d410OWJvusuowMD3676/BcTk+Ow83CvRat1sfv+Fz3AYmKnRrLXpex7eZD/e/Sm7gWwTk189+Kv2s/2ZvBNr9u8UePtAtY8Zwb+IsR7KrMTXwf8W/+Cxn7NPhGG4svhlFqHjDUFGENtCbe1J95ptp2+6I/0rTC5Lj8VNU6NGTv/df5hjc8wGFg6lWsrLX4kz9eQSOop6GvyK/4J1/t/wDi79rLx34v8F/EW2tNPurJIr3S4bMMFFoSY5FZ2JMjIxUltqfeHyjGT+uUBBjB7nk59awx+ArYOs8PXjaSN8szOhj8OsTh3eLJqyNX/wCPG4/65t/6Ca16yNX/AOPG4/65t/6Cawp/Ejrq/C/66H8Bdx/x8y/9dH/ma/d7/ghr/wAjN8SP+vbS/wD0K5r8Ibj/AI+Zf+uj/wAzX7vf8ENf+Rm+JH/Xtpf/AKFc1+/8Zf8AIg/7dgfzvwT/AMj6HrL82f0Qt/F+FTQ9/rULfxfhU0Pf61/Pr2P6L/zZNRRRSGFVLgqx2ZwQM+/NW6YwUnn0pNXVho/mu/4LSfBI+H/iD4e+PGkw7YdbhOm6gVT5Bc24zAzH1dWKc9owO1fjz8NfHWr/AAt+IuhfE3w6WW40LUIb2E9dxhdW2nvtePeCOhyK/sV/bo+BsPx9/Zm8SeBreISajHB9t084yy3drmSPHu2Cv0Y1/FcwkEe5wynAXawwQFG3BHqOn1FfuvAWYRx2VzwVZ+8vdXoz8A49y94DNYYyivdfvfNH9GP/AAV5/aE0nWf2b/Bfg7wXcB4vHksercHBeygVZYwQOzTSRE5/un0r+fXwz4X1Txx4r0vwV4fiMt7q93FZW6Dk+bOwRT7qOp/2fau4+JvxX1T4maN4O0jUg4j8H6HHo8WST9yWV8j0yrKvHZQOwr7p/wCCSvwVX4mftRw+M9SUvp/giya+wVyv2qb91CuemQu9h/uivQwWGp5FklVz3i5P59P0POxuKqZ/nNOEdpKK/r8T+oL4UeBNF+GHw40L4c+H0CWeh2EFlCAAPkgQICQO5xk+9ekR9OuapxFRjIw2OcdKtxAYJHev58nOU5ylPe9/vP6Ko0lShGnDaKt9xLUbA5zmpKhlwMs3AxUvbQ1MbX9YstA0ufWdVnW3tbWN5pZZDtREQZZmJIwAOT7A1/Gd+27+1FqH7VvxzvfGUUjjQdNzY6LBIMbbVDkykdA8zfO3fG1T90V+tP8AwWD/AGszougp+zD4FuT9u1ONZ9ceP/llZE/JBuB4aZwNw/55jng1/Ompb5iAXUfMQueSTyAByT1UDv1HOK/ZPD3h+NKk8zxXXbyXVn4p4h8SOrUWW4bo9fN9j6S/ZV/Z01r9qH41aX8LdORks52+0arcKCfIsIiPNbcP4nB8uMH+JgegNf2qeEPCugeDvC9n4T8PWyWmn6fDHbwQoPlSOJQiqM+mPx696/Pn/gmV+ymf2cfgfHrniOBU8VeKdl5qJYYkhhxmC3/4Ah3MOzswr9KEjXYUAxxjFfG8aZ9LMsa6cH+7p6Lz8z7Tgjh5Zbg/azX7ypq/LyPyS/4Kv/skj4zfCpvjP4MtgfEvhCB5pNi5e505ctLHgDLNFkyRg99wH3jX8siyYUnYM9WTqBjsc9SASK/v9vIFdwGORjBHsc/nnp9K/kO/4KSfspT/ALNHxqfVfC1sYvCfip5L6wSMfJbzAl7i344UKxDRAcbG2jha+o8OuIl7+XYp6bw/VHyfiPw67xzDCr/H8+p+m/8AwSM/a/ufHHhA/s0/EC9Z9X0CMSaRPK5LXNgvAiyxyWg445/d4AGFr9xrRxJFuDbs96/gj8A+O/F3wu8a6Z8RPA94bHWtInjubaYZIDDOd6/xRsCwZOhUgHiv7Tv2Wv2ivC/7TXwZ0v4o+GV+zSXI8i9tGbc1pfRYEsDkckq3RujKQe9eLx5w48FifrdBfu6mr8n/AME9zw/4lWNw/wBSrv34beaPpiimISRyMfrT6+AP0c//1v7WP2s/2cfDH7T/AMGNR+F+usLeaUCexuwu5rW7jB8uQDByPmKuOMoWHfI/jx+OPwE+K37OniybwT8V9LewmWQ/Z7lcta3KsTiS3mIw27nh+QcjgYFf3RshZQorj/Gvw88C/EfRpPDvj3SLPWrKX70F5CkyZ6ZwwPPv1r67hfi2rlEnTUOem+j/AEPiuKeDqObpVebkqLql+Z/BODJBdLJGJIpoyMODtdCOnK4AP+7xXoCfFT4sw2P9kw+KtbFuTv8ALGoT7M4x0346DFf1GeMP+CRv7GXimaW6sNIvvD7uScabeyKgP+ykvmIv0VQK4TT/APgjD+yba3XnXd74ju4+myS8RAfxjhRvyav0J+IOSVFz16LU/wDCn+J+drw7zum+ShWXJ/ia/A/lwu7qS4uTqOpSO8hB3TztuJ9QzNyfoDmvvX9lT/gnd8d/2mr201+W0fwz4Rfaz6lfRtG88RIylvE2HfcOkh+UeoIwf6RvhV+wF+yR8GNQi1bwj4Os5L+IDy7y/wB17Mp9Va4LhT7rivsmGKCNRGigBeAMYx+XH5V4Ga+It4Oll1FQv9rr9x7+VeGi5o1cxqudun/BP4v/ANtj9k3W/wBk74rN4WEcs/h/U183Rr6bLNMuPnQlQFEsTBtyvwUKkYJwPjwooG3sQPpx/P19s4r+8n4j/DLwB8VPDEvg/wCI+k2us6XcYD293GJEJHQjIOCOxHI7V+b/AIp/4I7/ALIniG/N5oser6MG6xWd8TGPos6y4HbA4rsyXxHorDqjmEHzrqupwZ34aV/rDrZfJcj6Pofyqm3NyDDFC88sxCLGi72kdzwiqOWLnj8a/ur/AGePCOo+AfgZ4R8F6uoS70rR7G0nA6ebDCiP/wCPA18sfAj/AIJo/sufAPxNB430HSZ9U1m1YPbXeqzG6aF15DRphY0YHkMFDe/Ar9B4VKggjFfNcZ8U0s2nThQhaMEfVcEcJ1spjUqYid5SJq/mF/4LajP7Snhg5Ix4bXpj/n6lr+nqvn74sfsvfs+/G7X4PE/xa8J2GvX9tbi2inu0LukIYuEHIwNzE/jXi8N5tTy3HRxVWDkknotHqe9xPlFTMsC8LSmou6d3qtD+MH4J7F+M3g4ZG7+39MxkgH/j5Sv7tbQloQxIIPT6V8gad+wV+x3o2q2ut6V8PtJt7qzmjngkSLDJJEdysOexwR719gWoCxBQMAdP85NehxdxHSzetTrUoONlazaPM4O4aq5PTqwqzUud30TLNGBRRXyJ9oNKIRgjjGPwr8nP+CoX7GGpftHeCrfx78MoBJ4w8MxO0UC4DXtoxJeHPGJASWhJONxYHrkfrLVaREZ/mAPFdmAx9bB4iGIofEn+BwZnl1HHYaeGrq6f4Poz/P8AbuzurK5m07UYmimhdo5YpF2MkiEqyspAIKnIPH04wKrvFHJkSKG3ZzkZznk/rX9s/wAZ/wBjf9nD4+XMt/8AEzwrZ3l/Kiqb2Ldb3ZC8LmaIq5AHABJAr4rvv+CMf7J95MZbe78QWa5/1cN6jqPxkiZv1r9jwfiZgJQbxlJ8zttr9x+LYzwzzKErYaqpeun3n8tscEEagRgIB1AGMCv2g/4In+ILq1+PXi7wxDIWtr3RYblhnjdbThV9ukz/AJGv0k8K/wDBIX9jPw1ei8v9O1PWeANl7fybOPVYjFn+Vfdnwu+Bvwg+Ddi2nfC/w5YaEjja5tbdI3kHH33A3P0H3ia8PiPjzB43BzweHhL3u60PZ4Y4Bx2CxkMXiZR93s9T1dAypgdjTpI0cEyKGHv7VL8u30phJY5zX5VGPu8p+vX1vY+Fv21P2Jfh/wDtd+Eo4L1/7J8SaaGbTtWjjDvETkmORTxJE3OVP3ScjB6/yv8Ax/8A2YfjP+zRrMmmfFfQ57S0Ehjh1CEGWwm3f8858DlupWTBGegGAP7hwFBz3rL1bRdI1yyl03WbSK8t512SRSoHR1PZlPDD2NfY8O8Y4rK7Urc9Ls3t6HxfEnBWEzNurB8lTulv6n8BhQK+QuD+v8sflxUBtrZuWjU/gK/sY8f/APBM79jP4gvJcXvg+HTJ3O4tpUsljyf9iJlT/wAdr56vv+CL37J93dNLb3/iO0Vhjy0vYmUf99ws361+h0vErK5WdenJS7JXR+c1fDPNYXVCpFx7t2Z/LhFawxkyxgJ2OBiny3NtEv70qI1/vHaM+3TJ9s/hX9Veh/8ABHL9jzSbiOS/i1vUwmCUudQZUb6+UsZ/Wvqn4f8A7Df7Jvwvulv/AAl4E0xLlD8s88X2qVT7POZGH4GoreJ2XwX7inJvp0RdLwvzGbtWqRS77s/Ab/glN8MvjjaftMaT8UNG8PahH4VW1u7TUb+ZDBEIp496hDIB5uZI48ogyMg59P6q7ThSPf8Az/k1HaWNraRrFbxqioMKAOgHp6VcQbRjGK/Ks9zqpmmKeKqRsz9Y4ayGGUYT6rCXN5jqyNYYJZTGQ4UofrWvVG6hjuMwzcqykY9c9a8aLtJM92rFyhKK3aP8/wDlMMs8jRMSN7Zxjrk+9fvB/wAENlI8T/EYKT/x76V1/wB65r9XF/4J8fsXO7ySfDnRySxJPldSfx4r1r4V/s6fBT4E3F7dfCDw5ZeH21BUF19jQqZRESVzzzjccema/Ss842wuPyz6lClJT01bVtD8wyHgXE4HM/rs6sXG70Sd9T3IAFiG6VMAB0qqhyMnr39qsKcivzTsfqbeth1FFFAgqN/rUlROAG3d6AKd0hkXyl53YH5/4Yr+OD/gol8CD8AP2pdd0Sxt2i0jXgdb00YwgiuTmaNewKTB8L2XbX9kc4jK4k5GDn6Gv5VP+Cu3xxs/ih+0jbfD7S3jaw8D2zWzyIMl766AaYbuu1FKLjswNfeeHNSsszcKfwNPm8l3PzvxJo0JZYpz/iJrlPyq3uG81GwwOQT0IX5sY9wK/qn/AOCQPwTT4cfswr4/1GM/2j40uWv3dhhhaxEx26475UF/+B1/Md8Nfh9rXxZ+JWg/DTwyGa61++hsoz1KmRwpkJ7BIy7E+gFf3UeAfB+keAPBmleCdAj8qy0i0hs7dO6xQoEUH3wOa+q8TM0jGlTwUHq9X6Lb7z5XwwyyVSvPHTWkdF6vf7jqkRBnAHHGakCheBQFCjCjHf8AOlr8ZP24K+af2rf2gfDX7NPwb1f4peIm3vaRCOztgcNc3cp2wxD2ZiAx/hXLdq+lq8t+J/wf+GHxj06LQ/inoFl4gs4G8yKK9hWZY3wRuXd91sEjI5xWuHdNVYSqpuKaukc2MhVnQnCg0pNaNn8N3jzxn4p+JfjPVPiF46umvdZ1i5e4u3YABpWBUKPRVB2gdAoCjgCv0Z/4JbfsoT/Hf4zx/FHxRbg+GfBs0UpJXcl5qK8wxjPBWAr5j9QTsU8Gv3Tu/wDgmr+xBfyM8/w/sYmcbf3Ms8OPpskABHYivpf4MfBT4afAXwLb/Dv4W6YmmaTbu8ix7jIzNIclmdyzMTgckk8D0r9Nzfj6jVwDwmCpODtbdWt12PyvJ/DyvTx8cXjqqlFO+id79Nz0+1Vo4/mG3J6Zzj1/X86txBMEKMc0mFLbjxmpEGAa/LfK5+upilFJ3Ec18s/te/s3+G/2nvgxqnwy1Ux2t1JH9o0+8Yc2l5HkxSj2ByHHdSa+qKqy7N5J6gdfStaFadGpGrTdmjDE4anXpSo1FeMlZn8C/ivw74g8FeKdQ8HeKLRrHVNIuZLW7t3PMM0R2soP8WMcMPvde9fc3/BOn9r9/wBlv4wJpPim58nwd4kaO31Hccx2kowkN0B6JwkgA5Qg/wAAr+j34n/sHfsp/GPx/N8S/iJ4Vg1DWbqOOOWbzp41kEQ2ruSN1QsAAuSCcADOAAKmhf8ABPb9i3QLpbjTfh5pMjqc7riJrjB7/wCtL8e3Sv1DHceYDGYD6piaDcmrXXf7z8mwPh9mGDzD6zh6yUE7pd11PsfT54Lm2FzBJ5kcnzKQcjB9D3+tXsr71R03TtP0ewh0rS4UgtrZFihijUIiIgAVVA4AAGAB0FXcr6V+UXprRI/X1Kdtdz//1/798Cjao5paKAEwKTYpOcU6ii4WG7V6YoEaLyBinUUAIVUjFIERTkDmnUUmr7gJtX0paKKYBSEA9aWigBhjjY5IGafgDpRRSsguFFFFMApNqk7u9LRQAzy0znHNKEUHIFOoouFhnlJ1xSiNF+6MU6igSQYFJtWlooGJtXrRgelLRSsgEwKNq+lLRTuAzy0znAz60CNBwAOafRTuxWQgAHSloopDCmNGjHLDNPooAQKo6CkKqeop1FCATaoGMUtFFABUbNg4FSV8o/td/tR+Hf2SvhrH8TfEtnPqUMl7b2SWtqQJmaYklhu4wqqzHOBgda1o0Z1ZqnTV29EjDEYinQpurVdorc+p3c7ePyqBHD7sZH1r82/Af/BVT9jTxtYR3er+JpPD1y/3oNTtpYdjDgjzFVojznkOa6vxh/wUy/Yt8KaQ+of8JrbaocEpDpqvdTSFR91QikAn/aZR713vI8yjN05YaV15P/I8yPEGWygqqxMeV+aPf/2nPjZoP7PfwU1/4q62xf8Asy0ZoIQcGe4f5Iox6lnYD269q/iN1rW9b8T61d+KvEty91qGpzy3dzJjCy3E772PsCz9O3Svub9uj9ufxP8Atf8AiODTNMt5tI8H6U+6z0+U4lml6Ce42kgMFOFQFgvUHLGvkT4S/DPxh8aviNpnws8A2ZvNT1i5MMOFwkYckvLIR91I1zIx7gY64r9j4LySOT4Kpi8cuVyV/kj8W4zzx5xj4YXBe8ou0H3bP1z/AOCNv7Pc/iXx9rH7R2t25NhoCtpumuw4ku5R+/dcjkRxEKD/ALRFf0p2owh5zkk/n/j1rxX9n74M+FfgF8ItD+EvhQZtNIgCGRlw88pOZJWHPLvlsdgQBgACvbokSNNiAADgAdBX5DxBm1TMcbPEz66L0Wx+y8NZNDLMDDDR+LeX+J7ktFFFeMe8FNKqTuI5p1FADDGh5IpQiLwBTqKAEwKWiigAppRGOWGadRQAwxocZA4pwVR0FLRQAAAdKKKKAP/Q/v4ooooAKKKKACiiigAooooAKKKKACiiigAooooAKKKKACiiigAooooAKKKKACiiigAooooAKKKKACiiigAooooAKKKKACiiigAooooAK/nq/wCC5/i68Fx8PfAO1ltZTfXxZtwjedRHFGgYDAbY8p+bgiv6Fa4zxl4H8GfELTZPDfjfTbXV7KVfntryJJ4j1GSjgjPJr1MlzCOBxlPFSjzKLvY8fPsulj8FUwsJcrl1P4H4ZNxMybgx6lhhie+ce9OZkL77hcgjG7GfwPYCv7A/E/8AwS//AGKvFDuzeDI7BnB5sbm4tVGfRY3CD8BWH4b/AOCUf7E/h66+13HhmfUiDnZe3txNHgY4KeYFI/3ga/XX4nZbJyqSoPmf9dz8dXhfmUUqUay5Ufyv/Cr4RfEf46eLY/B3wq0mXWL+TAYwgrHCp43SzMPLjQf7Wd3QEHhv6q/2C/2EPDP7JvhqbXdckh1bxlq6Il9fbNqwR7Qfs9uD8yoSAWJOXOCQAFUfbvgL4Z/D74Z6MNA8AaNZ6NZIciGzhSFCQAMkKBk4AGTzxXdR7Y4wsYAA6AcV8HxLxpic0XsYrlpdj77hfgfD5VJVZvmqfkCxgL05H6VKgwOaXIC5pVORmvij7wWiiigAooooAKKKKACiiigAooooAKKKKACiiigD/9H+/iiiigAooooAKKKKACiiigAooooAKKKKACiiigAooooAKKKKACiiigAooooAKKKKACiiigAooooAKKKKACiiigAooooAKKKKACiiigApCqk5IpaKAE2rjGKNq9MUtFACYFAVQMUtFABRgDpRRQAUUUUAFFFFABRRRQAUUUUAFFFFABRRRQAUUUUAf//Z;" vertex="1" parent="1">
                    <mxGeometry x="880" y="140" width="66.18" height="23" as="geometry"/>
                </mxCell>
                <mxCell id="15" value="" style="shape=image;imageAspect=0;aspect=fixed;verticalLabelPosition=bottom;verticalAlign=top;image=data:image/jpeg,/9j/4AAQSkZJRgABAQAASABIAAD/4QBwRXhpZgAATU0AKgAAAAgABAEGAAMAAAABAAIAAAESAAMAAAABAAEAAAEoAAMAAAABAAIAAIdpAAQAAAABAAAAPgAAAAAAA6ABAAMAAAABAAEAAKACAAQAAAABAAAA3aADAAQAAAABAAAA0QAAAAD/4QkhaHR0cDovL25zLmFkb2JlLmNvbS94YXAvMS4wLwA8P3hwYWNrZXQgYmVnaW49Iu+7vyIgaWQ9Ilc1TTBNcENlaGlIenJlU3pOVGN6a2M5ZCI/PiA8eDp4bXBtZXRhIHhtbG5zOng9ImFkb2JlOm5zOm1ldGEvIiB4OnhtcHRrPSJYTVAgQ29yZSA2LjAuMCI+IDxyZGY6UkRGIHhtbG5zOnJkZj0iaHR0cDovL3d3dy53My5vcmcvMTk5OS8wMi8yMi1yZGYtc3ludGF4LW5zIyI+IDxyZGY6RGVzY3JpcHRpb24gcmRmOmFib3V0PSIiLz4gPC9yZGY6UkRGPiA8L3g6eG1wbWV0YT4gICAgICAgICAgICAgICAgICAgICAgICAgICAgICAgICAgICAgICAgICAgICAgICAgICAgICAgICAgICAgICAgICAgICAgICAgICAgICAgICAgICAgICAgICAgICAgICAgICAgICAgICAgICAgICAgICAgICAgICAgICAgICAgICAgICAgICAgICAgICAgICAgICAgICAgICAgICAgICAgICAgICAgICAgICAgICAgICAgICAgICAgICAgICAgICAgICAgICAgICAgICAgICAgICAgICAgICAgICAgICAgICAgICAgICAgICAgICAgICAgICAgICAgICAgICAgICAgICAgICAgICAgICAgICAgICAgICAgICAgICAgICAgICAgICAgICAgICAgICAgICAgICAgICAgICAgICAgICAgICAgICAgICAgICAgICAgICAgICAgICAgICAgICAgICAgICAgICAgICAgICAgICAgICAgICAgICAgICAgICAgICAgICAgICAgICAgICAgICAgICAgICAgICAgICAgICAgICAgICAgICAgICAgICAgICAgICAgICAgICAgICAgICAgICAgICAgICAgICAgICAgICAgICAgICAgICAgICAgICAgICAgICAgICAgICAgICAgICAgICAgICAgICAgICAgICAgICAgICAgICAgICAgICAgICAgICAgICAgICAgICAgICAgICAgICAgICAgICAgICAgICAgICAgICAgICAgICAgICAgICAgICAgICAgICAgICAgICAgICAgICAgICAgICAgICAgICAgICAgICAgICAgICAgICAgICAgICAgICAgICAgICAgICAgICAgICAgICAgICAgICAgICAgICAgICAgICAgICAgICAgICAgICAgICAgICAgICAgICAgICAgICAgICAgICAgICAgICAgICAgICAgICAgICAgICAgICAgICAgICAgICAgICAgICAgICAgICAgICAgICAgICAgICAgICAgICAgICAgICAgICAgICAgICAgICAgICAgICAgICAgICAgICAgICAgICAgICAgICAgICAgICAgICAgICAgICAgICAgICAgICAgICAgICAgICAgICAgICAgICAgICAgICAgICAgICAgICAgICAgICAgICAgICAgICAgICAgICAgICAgICAgICAgICAgICAgICAgICAgICAgICAgICAgICAgICAgICAgICAgICAgICAgICAgICAgICAgICAgICAgICAgICAgICAgICAgICAgICAgICAgICAgICAgICAgICAgICAgICAgICAgICAgICAgICAgICAgICAgICAgICAgICAgICAgICAgICAgICAgICAgICAgICAgICAgICAgICAgICAgICAgICAgICAgICAgICAgICAgICAgICAgICAgICAgICAgICAgICAgICAgICAgICAgICAgICAgICAgICAgICAgICAgICAgICAgICAgICAgICAgICAgICAgICAgICAgICAgICAgICAgICAgICAgICAgICAgICAgICAgICAgICAgICAgICAgICAgICAgICAgICAgICAgICAgICAgICAgICAgICAgICAgICAgICAgICAgICAgICAgICAgICAgICAgICAgICAgICAgICAgICAgICAgICAgICAgICAgICAgICAgICAgICAgICAgICAgICAgICAgICAgICAgICAgICAgICAgICAgICAgICAgICAgICAgICAgICAgICAgICAgICAgICAgICAgICAgICAgICAgICAgICAgICAgICAgICAgICAgICAgICAgICAgICAgICAgICAgICAgICAgICAgICAgICAgICAgICAgICAgICAgICAgICAgICAgICAgICAgICAgICAgICAgICAgICAgICAgICAgICAgICAgICAgICAgICAgICAgICAgICAgICAgICAgICAgICAgICAgICAgICAgICAgICAgICAgICAgICAgICAgICAgICAgICAgICAgICAgICAgICAgICAgICAgICAgICAgICAgICAgICAgICAgICAgICAgICAgICAgICAgICAgICAgICAgICAgICAgICAgICAgICAgICAgICAgICAgICAgICAgICAgICAgICAgICAgICAgICAgICAgICAgICAgICAgICAgICAgICAgICAgICAgICAgICAgICAgICAgICAgICAgICAgICAgICAgICAgICAgICAgICAgICAgICAgICAgICAgICAgICAgICAgICAgICAgICAgICAgICAgICAgICAgICAgICAgICAgICAgICAgICAgICAgICAgICAgICAgICAgICAgICAgICAgICAgICAgICAgICAgICAgICAgICAgICAgICAgICAgICAgICAgICAgICAgICAgICAgICAgICAgICAgICAgICAgICAgICAgICAgICAgICAgICAgICAgICAgICAgICAgICAgICAgICAgICAgICAgICAgICAgICAgICAgICAgICAgICAgICAgICAgICAgICAgICAgICAgICAgICAgICAgICAgICAgICAgICAgICAgICAgICAgICAgICAgICAgICAgICAgICAgICAgICAgICAgICAgICAgICAgICAgICAgICAgICAgICAgICAgICAgICAgICAgICAgICAgICAgICAgICAgICAgICA8P3hwYWNrZXQgZW5kPSJ3Ij8+AP/AABEIANEA3QMBIgACEQEDEQH/xAAfAAABBQEBAQEBAQAAAAAAAAAAAQIDBAUGBwgJCgv/xAC1EAACAQMDAgQDBQUEBAAAAX0BAgMABBEFEiExQQYTUWEHInEUMoGRoQgjQrHBFVLR8CQzYnKCCQoWFxgZGiUmJygpKjQ1Njc4OTpDREVGR0hJSlNUVVZXWFlaY2RlZmdoaWpzdHV2d3h5eoOEhYaHiImKkpOUlZaXmJmaoqOkpaanqKmqsrO0tba3uLm6wsPExcbHyMnK0tPU1dbX2Nna4eLj5OXm5+jp6vHy8/T19vf4+fr/xAAfAQADAQEBAQEBAQEBAAAAAAAAAQIDBAUGBwgJCgv/xAC1EQACAQIEBAMEBwUEBAABAncAAQIDEQQFITEGEkFRB2FxEyIygQgUQpGhscEJIzNS8BVictEKFiQ04SXxFxgZGiYnKCkqNTY3ODk6Q0RFRkdISUpTVFVWV1hZWmNkZWZnaGlqc3R1dnd4eXqCg4SFhoeIiYqSk5SVlpeYmZqio6Slpqeoqaqys7S1tre4ubrCw8TFxsfIycrS09TV1tfY2dri4+Tl5ufo6ery8/T19vf4+fr/2wBDAAEBAQEBAQIBAQIDAgICAwQDAwMDBAYEBAQEBAYHBgYGBgYGBwcHBwcHBwcICAgICAgJCQkJCQsLCwsLCwsLCwv/2wBDAQICAgMDAwUDAwULCAYICwsLCwsLCwsLCwsLCwsLCwsLCwsLCwsLCwsLCwsLCwsLCwsLCwsLCwsLCwsLCwsLCwv/3QAEAA7/2gAMAwEAAhEDEQA/AP7+KKKKACiiigAooooAKKKKACiiigAooooAQ9OKqTXSQECVlXJGATjuM96uV+J3/BZCWZNF8AiKR0DXd+DsYrn5IuuCM4zkZrbD0fazUL7nNi8R7Ck6jWx+1cMyzJuyM9Dj1qavg/8A4JqyPP8Asc+FXkOSHvef+3mWvu8DAA9KmrT5JuHYvD1fa0o1O6TFooorM2CiiigAooooAKKKKACiiigAooooA//Q/v4ooooAKKKKACiiigCpLOyN045pDO5B2YPYEc1FdnaC3PQ1+But/t/ftH2Wp6hbWl1p4SGeaNM22SFRyB/F6V8lxTxjgchjTljW/eva3lZ/qfR8PcL43OZVI4NL3Em7u3Vn9AEbb1zT687+EfiLUvF3wx0DxRrGz7XqFhb3E3lrtXzJY1ZsDsMmvRK+ooV4Vqca0Phkk16M8CrSlTnKnPdOz+Q0k5wKiaXGenFPz8/SvzH/AOCifxB/aZ8Cr4T/AOGdW1JGu5LwX406y+2FgqJ5e4eW5HJOOK6adPnklc5MRiI0YOc19x+mquSMPX4of8Fkn3aJ4BA+8LnUCBjOSI4j6+1fJJ/aF/4KYxna/wDwk4Pvo+D+tuK+efj78Qf2n/HtppQ/aHGqGG2klax/tKx+yLuITzNrCNM8Y79a9bCYGcKqldHz2OzeFfDyjTi/mfvz/wAE0pc/sceFzGMhpL4qfb7TL9K+9Qzd8f5/Gv5SvhF8Y/24fC3w+sPD/wAGm10+HLfzRam000Tw5d2ZwsnlNuw5b+I4OR7V6UP2hf8AgpcBgnxMf+4QP/jFRiMvnKrKXMt2Vg86p06EIODukkf02FiOT0p9fJ/7F3iH4o+Lf2fNH1/4ym6PiG4kuhci8h8iYKk8ix7o9q7fkC4+UZGD719XKSVBbrivKnHlk4vofRUqiqQU111HVE0hBIA6evA/OnlsA47V+ZH/AAU7/ae+LH7Lfwv8PeLfhJPaW95qerCznN1B54MXkyScDIwcoPwq6NJ1JqEd2TXrxo03Ulsj9L/PJ4UjNPWRj1/wr+dj9hP/AIKNftRfHr9qLw98K/iJd6ZLo2preNMLe0EUp8mB5Fw244+ZQOnT3r+igBRjb06flV4rDSoSUZ7mODx0MVT9pT2uSKSRzTqaowKdXOdgUUUUAFFFFAH/0f7+KKKKACiiigAooooAo3gAidvQE1/Jn4lI/t3VBgf8fdz/AOjDX9Zl7/qZP901/Jl4l/5D2qf9fVz/AOjDX4H45pezwXrL8kfsvhAr1cWvKK/M/p++ALbvgh4S4xjR7If+QUr12vIP2f8A/kiHhL/sEWX/AKJSvX6/bss/3Oj/AIY/kfkmN/3ip/if5iYqJoQxySamorvucpXWBUULnp7V+J3/AAWUiT+w/AR7m71AfTMcVftzX4if8FlJFj0TwCjsFJu9QIzx0ji9SP5114GzrR5meZm6vhpWR9kf8E1czfsdeFmkJO2S+Azz/wAvMtfd4iUDH9K+Dv8AgmlIh/Y58MeScqJL059QbmWvvRSSOayxP8adn1Zvl6/2aldfZX5DVjVCWXv1p9FFYHYRMcEivxL/AOC4Iz8CvBw/6mAf+k01ftm/3q/Ez/guB/yQvwd/2MA/9Jpq78sdsTA8zOl/sU0flN/wSyjUftzeDv8ArnqP/pLJX9hyqCMdOTX8ev8AwSz/AOT5fB3/AFz1L/0lkr+wxen4mu3P9cQvQ8zhWKWEaXcdRRRXho+mCiiigAooooA//9L+/iiiigCLeckflVK7vjaW7XT/AHI1LN68elPmY7uOxqrqVmt/aS2mceapXJ5AOD2rOpKfK3TWvn6AnHm5Z6LQ/NU/8FQ/hzG7xSeG9ULRuyEjysEqSOMt7Uf8PRfht/0LWq/nF/8AF14c/wDwTD+IckryL4n05QzMwBt3yATnswpv/DsH4i/9DRpv/gO//wAXX4LLMfEO75KN49PdWx+zU8BwPyrmqu/+KX+R7Xcf8FPvhxOhjXw5qiZGCT5WB/4/X4z6vdR6lqd3eWoKrdTyyIG64kYkZxxxkA81+k8n/BMb4hKpDeKrAgZztt3GOBx9+vzT1G2bTry7sJW3m3eaJiM8+WSDjPTkZFfn3HeM4jquhTz6HK1fktFWbstD7fgvC8P06lZZRUbdk5b933P1w+G//BRvwD4G8A6P4OvvD2pyTaXZwWrshi2loUCEjLA9vSu1/wCHovw2/wCha1X84v8A4uvmfwR/wTo8deNvB+l+L7bxLp8UeqWsV0iNA5KrMoYAnd1wa6n/AIdgfED/AKGjTv8AwHf/AOKr7jC5j4hexh7Gj7llb3Vt06nyFbAcEupJ1aj5ru/vS369D2qX/gqP8OF+YeHdUAwSRiI9O33/AEr9C/h545tviL4J0nxxpsLwQarbR3Kxy43qsihgDgkZ59a/IOT/AIJh/EJt0a+KdPU4GD9nfHOefvfhX6zfCPwRdfDr4b6L4LvJVnm0yyhtneMFVZolCkgHPBxX3vBeN4oqVan9vU7Qtp7q/R3Pi+LcLw/TpU/7HqNyvrvt8z1FGLDJ4rhPHHwt+HXxLS3j8f6JZaytoWMIvIEnEZfGSu8HGcDNdzF9zpipK/SYNpJpnwkoqSs1oc74W8I+GvBGiQ+G/CNjBpun2+4x29sgjiXeSzYVQAMkk8dzXRdKKKpu+rCMUlZbHx7+2D+2F4V/Y78J6X4u8W6Vd6tFq179ijjsygdXEbSZO8gYwtfAH/D8n4JjhvBmvfnb/wDx019Y/wDBQr9j/wAV/tieBNE8IeDtVs9HuNJ1H7bJLeI7qyeWyYXZyDzX5RH/AIIe/HIE/wDFc6F7ZhuM4r2MFTwTh+/ep89mNTNI1/8AZ4rlsfVZ/wCC5PwPPP8Awhevfnb/APxyvgX9v7/goT8Pv2xfh9ongzwjoWpaVNpGpC/kkvPJKFPKkjwNkjHPzelenj/gh78ciM/8JxoI/wC2NxXyZ+13+wB8Q/2OvBemeLvFviDTtYj1a9awjjs0lRlcxO4J3nBHHYV6OEp4BVUoS1PHxtbNZUJfWI2j5HkP7IPxx0b9m79oXQvjF4ksp7+z0pbtZYLUjzW8+F4wRv2Dgn1r9vT/AMFyPgmjbT4M173BNvnP4SmvwW/Z3+Beu/tI/GHTvhD4du4dMvNXW5ZLm4V2iUwRs53BeTnrwa/TuT/giH8c2csfG+htk9TBcZrozCngnP8AfS9448qr4+GH/wBmjdXPq4/8Fy/gl28Ga9+dv/8AHK9u/Zx/4KrfDH9pL4v6Z8HPDfhnV9PvNUWdo7i68kwr5EZkOQkhboPSvzhP/BEH45D/AJnbQz/2wuK+nf2Pf+CWfxY/Zw/aE0H4w+IvFOlalZaUl0kltbxTLIwuImjBUtxwT3rzK9HL403ySvI9vC4nNJ1l7SFon7pISy5P6U6o4gVjAIxUleAfV+oUUUUAf//T/v4ooooAiaFXIJ7HNRLaorlwTk1aooetvIFpfzGCMetHlr/n/wDXT6KSVtEO5QuhsjkYf3a/kz8TfNr+p56fa7hiPUh25P51/Wbe/wCpk/3TX8mXiX/kPap/19XP/ow1+C+OetHBRe15P56H7J4P/wATFruor8z+nv4BKH+CPhI9P+JRZdP+uKV655a+9eSfs/8A/JEPCX/YIsv/AESlev1+2ZX/ALnR/wAMfyR+SY12xFRf3n+ZEYUPWlWJUAUdvXmpKK70jl8yuztGT6Cvgb4o/wDBRv4FfB/4jan8NPFsOpyX2lOkczW1sJI9zIr8MXGeGHbrmvvedQ6nPav5Pv25Tj9rjxyF6LeR4/GGOvgvEHiLF5PgaeIwjipOaXvbWs3+h+h+HHDODzvMKmGxilyqDfu73ul+p/Qv+z1+2H8Mv2mdT1XTPhzHeo+kRxSzfbIPKG2UsBghiCcqa+rllBXJ+lfg1/wSAXzfGXjfP/PrY59/mlr93QW8wx4+WvU4NzirmmU08ZXtzvmvbbR9PLsePxxkuHyfOKuBw7bguW191dJ6kghEg3twx6kVMI1GOvFPXpS19Vc+TXcgYAcc/nX4mf8ABcBR/wAKM8HHn/kYB39LeU/0r9tH+9X4mf8ABcD/AJIX4O/7GAf+k01d2Wf7zA87ONMHOx+VP/BLNV/4bk8HjA/1eo446YtX/wAK/sKEYKbQSMcV/Ht/wSz/AOT5fB3/AFz1L/0lkr+wxen4mu3P1/tC9DzOFv8AdW/MhEWGwCT+NPaGNuopzsV6frUazBuh+h9q8LV6n0zdyYADgUtIp3DNLTEFFFFAH//U/v4ooooAYGOT7V8pftmfH3xN+zd8Ern4n+E7O2v7uC6toPKu93llZm2k/KynIHTmvqsdTX5zf8FTiV/ZMvipx/xMLH/0ZW9CKlUinsc2NnKFGUouzsdn+wt+1V4w/ap8D614o8X6ZZ6ZNpl+LVEs2ZlZTGr5O4sQct619zbzgZFfj/8A8Ee93/CpPFm5i3/E6A5/64R1+vo6CqxUFGpJRWhjllWVTCQnN3bIbtXkikVOuCMV/NZrv7Lv7Q1zr+omDwhqDiS5uGjO1AGVnYgj5j2xX9LLxdW9fyqIW8ajcy8jv9K+E4v4MwufxpLE1HHkd9D7fhniqvkk6rw8FLnXXy/4c88+C+laloPwk8NaLq0LQXVpplrFLG/DI6RqCD7givSwzE0kW0J8tNaQdD2r6rC0o0aMKSd1FJJvyPnKtSVScqjWrd/vJsk8ij5vaq4njI+Ug0vnL7VvddzPlYk/3Dur+T39ub/k7jx3/wBfkX/oiOv6vppF2EsQBX8n37cbiT9rbx2w6fbI/wBIY6/JvF2Uf7Lpf9fF/wCkyP2HwXSebVr3/hv/ANKifc3/AAR+O3xb45b/AKdbD/0OWv3f6rivwg/4JADHirxy5GR9msBzx/HL3r93d2GOehPFe74b/wDIhoybX2v/AEo+f8Uf+Sir8t/s/wDpCJ0JHy0oZs89Kh8xR0/nThKWHGDivvm+x+ev0HEZ+YV+Sv8AwV2+DXxW+M/wh8L6J8JdBu9fu7PWxcTxWihmSLyJV3HLDA3MBX60xlm+f/61Dx5J961oVnSqRmuhhiKCr0nTlsz+Xn/gnf8Asn/tMfDL9r/wv428feCdT0jSLSO+E11cogjjMlvIigkOepIxx3r+oqMkoCe9RiBPvDg1KoI61pjMZLEVOeSObLsBHCQdOL0Ip03xnYxU88r1zjH0/Ov4bta/4Ktft9W3iq+0+D4gzrbx38kSR/Y7TCxpKQEB8nOMDHXOO9f3KOMRkV/mu+If+R11H/sJT/8Ao5q97hrDUqzqKrG9uX9S8XUlHl5Xa7P9JDQJprnQrO5uG3ySwRu7YAyzKCTgYHJ9K1qxPDX/ACLmn/8AXtF/6CK26+YluztQUUUUgP/V/v0DHfg9K+ef2lv2jPD37M3w+HxE8S2NxqNsbuK08q12+ZvlDYPzsBjivoUp8xI61418bfgZ8PP2gfCK+BviXby3OmrcRXXlxStEfMizt+ZSDjk55rSHLzLm2Ma6qcj9j8XmfnQ3/BYX4RISG8Kazn/etz/7Vr5f/a+/4KDeAf2lPgpc/DTw1oWo6fdT3VvOst0YvLxC24/cdielfoNH/wAEvP2Qo5PMOk37H3v5u3/Aq+Rf27P2KPgB8CfgHd/EH4cabPaalFeWkayyXMso2yPtI2uxHSvUoPCe0S1ufP4yGYKjJ1mreR88fsPftweBf2WPBes+GPFGi3+pyarfC9je0MeFj8tUGQzKeq+lfbf/AA+D+EQwD4T1rjrzAOfxkr5u/wCCcv7KPwM/aC+HviDXfippLahc2OpLawFZ5YQkflI/RGHcmv0SH/BMz9jkcHw3Nn2v7kfykFGKlhPaO97mWBhmMsNH2M4qPTToelfsvftY+Ff2qtE1XXfC+mXelxaTcpbSC7aMszOgcY2Mcde9fVyZxg14n8E/2dvhN+zxpl7pHwq05tOg1GYT3CtPJPvdVCg5kZscCvcETFeXU5OZ8mx9NQVRQtVd2REsoyvWvHv2gvF+seBPgx4n8Z+HnWO+0vTbi4gZhuUSRIWUkHqMivZsAcZ6V5D8bvA+pfEX4UeIfAWmSpBcaxYz2sckgJRWlQqCcdhmvPx8ajw1X2fxcrt62O/AOCxVH2vwcyv6X1P52Y/+Cl/7Wzxqw1mxGQOtjGT/ACp//Dy39rj/AKDVh/4Ax/4V7Ta/8EivjY9upHibRhgY+ZZs8f8AAasf8Oh/jb/0NGif98zf/EV/PrwfGrd06j+aP6TjmHh8laUad/8AC/8AI8Mk/wCClX7W0qFG1qxweOLGOvkLx/468S/FLxpqPxC8ZTJPqmquJLh40EaEqoQYUcDCqBX6Vyf8EjPjavyL4o0Td2Gyb3/2R7V+cvxc+HWsfB34kat8M9cmiubrSJEjklhDBGLor8bsHo1fPcQ0OIKeHTzaM+S+nO01fufU8K4vhepiJRyJw9rbXli07dr+p1HwV/aG+K/7PWoajf8AwtuYLV9USNJzLAsuRESR97/eNfQw/wCCl37XQUK2s2Py+tjF/hXlv7M/7K/jD9qXVtW0nwhqVppj6RHBJI14rkOJt4G3aO233r69j/4JGfG1l/5GjRCR6LN/8TXTkmE4neDUsApqkr2Satru16nFn+L4Qjjv+FVU3WXxXTb20T06I8U/4eWftb/9Bmw/8AY/8K9J+DX/AAUM/al8X/F3wt4R1rU7OWy1PVLW1nCWcaFo5pFRgCBwcHg+tdL/AMOi/jYf+Zn0X/vmb/4mu2+Fn/BLn4xeA/ih4f8AHGo+I9Ilt9G1C2vJI40lLyLDIGIXIAB4717+AwPGSr0XV9py83va7o+YzLG8CvBV/YRpe05Xy6Pe2+x+7NujeUC/X2qYqCcmobUsYAWGD9MVYr+had1FXVmfza2nqZmp3cmn2E13GA3lIz4JxnaM4z2zX81c/wDwcOXcFxLbp8KhII3ZN41cYbaSM/8AHucZxnGa/pVvrUXtvNaudokUrkckZBB/nX4Yy/8ABAb9lOSaSX/hKPFQ3uz48+2OCxJ723vXsZbPBxv9cWhz4hT05GfOy/8ABw7dv8rfCjGcD/kLAkZzzj7NyBxxxX822pXn9o6xc63HEy/aLqS5EZPAVpN+0tgc7Wxnb17V/Wef+CAH7KDDc3ijxUcdf9ItlP8A6TV/JjqWnwab4iutIiJEdvdy26FvvbUkZMsB3IHYivrcmqYBuo8NdJL/AIY4K8KiaU2f0daf/wAHCd7plhBpo+FPmC3jSPf/AGuBu2ADOPs5xnGcZq1c/wDBxDeQ2xnHwpAIUkj+1snv0At+e3HFe+aT/wAEDf2V7/S7a+k8UeKQ08SSECe3IywB4Jtycc8Veb/g3+/ZPkUp/wAJP4qw2Q5FxbKTnuP9GrxZ1cnSkrPm+Z1KGItufuB4P1//AISrwppniYwm3/tG1hufKJyU81A20nAzjOOldHWL4c0W08N+H7Lw9YljDYwR28ZfG4rEoUE4wMkDngVtV8xO3M+XY7I3sr7n/9b+/imFT60+incLEOMEg81+c3/BU0Z/ZLvh0/4mNj/6NFfo6VHPvXzj+1F8ArT9pP4Vz/C2/wBTfSYprmC4NxHGJWBhbcBtLDqfetaM1GopM5sXTc6EoR3Z8E/8Ee/+SS+LM9tbH/oiOv1/AxkE5r5J/ZF/ZVsP2UPCmq+FdP1mTWU1O9F4ZJYREUOwJtwGbPSvroAYLetPFTU6jlEjL6MqNCNOW5SmmdCQi5Ix19DXERfFPwKY98us2KkEggzoD1xn71bXixFfw/qDSgbRbydeh+U8EV/lwanCqTXZUkbpZScEjJJI7fn9a8fH5isM0nG9z9e8NvDd8VRxUlWcPZcn2b781/yP9T2xu7XVLKPULKVJoplDo8Z3KytyCD3BFWTAnJHBPeviv/gm8AP2D/hN3z4Y00k+pMCkn8TX21XdTnzxjPurn51mOF+q4qthU78kpRv3s7EIhXHzEk+tL5KVLRVnEijcRLtYjg461/J7+3Gm39rTxyhJO27i5PX/AFMdf1jXH3G+lfyefty/8nb+O/8Ar8i/9ER1+S+L6vldJP8AnX/pMj9k8FP+RtW/69v/ANKifcf/AAR+VD4v8cyEfMLWw57/AHpRiv3cMS/cBII79zX4Sf8ABH3/AJG3xz/162H/AKHLX7wfxtXveGyX9gUX/i/Bnzfiiv8AjIsQv8P/AKShwhUjIODQIByGJbPrUqfdp1fe3Z+fW1uMjjWJAi9BWLrPiTRfDsYn167gsonbajzyLGrNgnaCxGTgE49K3a/l0/4OlwR+yv8ADjBI3eL9rY7qbK44Ptnn6125bg/rWJhQvbmObG4n2FKVW17H9LGm+O/CGsX66bpmqWdxcuCViinR3bAJOFBJOAD0FdYue4xX+cB/wQZgiX/gqr8NSByINX59f9BmIz64PI9K/wBIBV5xXZn+UPLMSqHNzXVzlynMPrdF1LdSI5JbPSv82rxJK6+M9RkHX+05+3/TZ6/0k5zJGmVGe3J47d+35V/HvrP/AAQ0/bRvdevdYjvvDPkT3Ut0i/bZfM2NIz4x5BBO0juOa6uH8ZSoe19o91Zep0YuEpNOK2P69fC/zeGtPOf+XaL/ANBFbpQHrWZoVnNp+jWthPjfBEkbbTkZUAcEgenoK1q+dn8TOqOyAUUUVJR//9f+/iiiigBMdxUJjYvv5z9ePyp+cMfpVZpMMcsOO3fnpRa4ddCQoB0O09eMdak3JjaOPxqESLIN4HFL8vp+lGpTTMXxQFPhrUOh/wBGl6/7pr/Lc1X/AFt1/wBdJP8A0I1/qN+KnV/D2oW5IXNtLg5H909utf5cmqBxNcjAfMs3CnuGPyn0Pcn0r5vP7fu7PW5/UH0cJWp5n71n7m9/75/o2/8ABOJiv7CPwmDYH/FL6Z/6ISvtbzB6j/P418Sf8E493/DCPwmEmCw8L6YDjkf6hO9favy+n6V79FP2cdeiP514gT/tPFX/AOfk/wD0pjXuCr7c/pUyOWGc5qlJJiXAJA47VbiO+PcQefUc1tddGeLd9/wIpmyWT1H61/J5+3A2/wDa08dMcHN5F0P/AEwj9q/rIZQevWvk/wAb/sUfs1/EDxXe+NfF/hqC81PUWV7iZnlBcqoUHCuB0AHAr4fjvhqvnWDhh8PJJp31PvOAOKqGQY2eKxMXKMo2srd/Ox+ZP/BH+Ujxh45XAx9ksCeexeX2r922ncH7vJbBrxX4Q/s3fBz4G3N/d/C3Ro9Kk1JY1uDG7tvEedud7N0yele5eUp4HPOa9PhPJamV5dHB1ZXab/E8njHPIZxmdbHUY8sZctr76KzHxyMVqTeSOOtV3cxA9OBmnrKCAykc+lfSvuj5xrXccxbr+dfy9/8AB0sQ37K/w2H/AFOIz/4B3Ff1As/vX8wP/B0mgP7Kvw4bONvjDOevC2Vwx/HAOPeva4aSlmVC66s8vOf90nY/Aj/ggxg/8FVfhtn/AJ4av/6QzV/o8KStf5w3/BBlWT/gqp8NxLj/AFGsex/5B85xj1G3J+tf6OiSKyhuD24r1uOGnjYSjf4V+bPM4WcvqjvZaj5EV884yMZHWk2DGNx65608MpPJFRmRdxHTpXxm61TPplJ7JliMbUC9cU+o4txjBbgnt0x/OpKoAooooA//0P7+KKKKAIJWKZYVz2uTyjTLx422PFCzxkDJDBSc8gg4PtXRuAapXllDdxNbyjKSDa/bKkYIp/ZdtxxnySUmu35/5H+fBe/8Fa/+CjH2+5VPilexqs0iqotLTCqGIA/49+w455qt/wAPa/8Ago1/0VS+/wDAS0/+R6/ruX/gjZ/wTgYtJdfDCxeR2Z2b7RdcsxyTxN1JOaf/AMOav+CbP/RL7H/wIuv/AI/XgVMuxrk2qp/TlHxW4IhTjB5Pqkl8MP8AM/kGk/4Kx/8ABRKffHN8UL2VGAWRTa2gBVu2fs4xnHODnFfng6yTSiSUh2bO9yMFtxyz4GAd5BBAx7cV/fj4g/4I5f8ABOKy0K9vrP4ZWKSwwyOjefcnayqcHBmI496/gU1KGOKW5+z/ALtVlk2gHhQCQoGcnCj7v05zXkZlhKtJx9tPmP1nw04syTO1jHkuBdFx5E7KKve6W3z+8+5/Av8AwU0/bx+HPg3S/Afgf4jX2maPpFtFaWdqLW1byoIVCouWhJOFA6muq/4e1f8ABRof81Uvv/AS0/8Akev6UP2KP+CVP7AvxU/ZK+HXxH8efDmy1DWda0CwvLy5ea4DSzSwqzsQsoGST2FfUP8Aw5q/4Js/9Eusf/Ai6/8Aj9ejTy/GSipKpoz83zLxU4LpYutSq5PecZSTfLDVp2b37n8hcv8AwVo/4KOJCZIvijqDk7uVtbPOQMbebfjGd2a/uC/Yc8d+L/iV+yL8OvH3jy9bUNZ1jQLC6vrlgoMs8sKs7YUKOSewFfOEn/BGz/gmnxv+F1hkAj/j4uuh6/8ALbv/ACr9D/h98PvCXwv8E6T8O/AdothouiWsVnZWyksIoYVCooLEkgAADJr0sBgq9GTdWdz8q8SOMcgzrDUaeS4B0JRfvO0VdfI7JAVXaakCkj0psYOMv1Fflt+3T/wVG8EfsM/ErSPhz4r8Kajr0ur6b/aSTWcscaxoJWi2kPyTlfavXp0p1J8kFdn5JOSgtT9SxEvJznNOCAV8UfsN/tpeHv23vhjqHxN8M6JdaFBYam+mGC7dZHZ0jSQtlOMYevthDuUNkHPcVNWlKnJwmrNDi7q6P5+f+Dgj9q79or9kn4EeBfFv7N/ie48L6lqviM2d3NbxwyGSD7NI5BE0cg4KjGB/9b+Ukf8ABaX/AIKk7Qf+Fv6lyAf+POy9P+vav9B79p39jz9nD9srwzp/g79pPwvB4p03Sbv7daQXEksaxXGxk3gxOhztY9TivjZf+CHX/BKxBtPwh07Jyf8Aj7vep5P/AC8V9VlWdZdhsN7OvQ5p33stvvPnsfl2Mq1nKjO0T+Kn/h9J/wAFSB0+L2pf+AVl/wDI1fOv7SP7fH7YX7WnhSz8G/tHeNLvxTpemXX2+0huLeCIJc+W8YYGGKM8KzdTiv74x/wQ7/4JWj73wh04/wDb1e//ACRX4H/8HAH/AAT2/Y8/Y6/Z+8DeNP2bfBNr4W1PVfEn2C6nt5riRpbY2s0hQiWVxjco7V9JlnEWWVcXCFHD8sujstPxPGxmV46lQlKdS67XP5qPg18Zfil+z18SrL4u/BbWpdB8T6aLhLS+iVJHi89WjkP7xWX5wdvI6E/h92L/AMFpP+Co4UBfi9qeOwazsiR9f9G61jf8Eh/gN8J/2kP+CgngX4LfGvRotf8ADOqRai11YzM6JJ9ns5ZI8mNkb5WUEc9q/tzX/ghx/wAErhwvwh03HoLq9/8Akiu3Ps6y7C4nkxNHnlbsjmyvL8ZXw96M+VX7n8U//D6T/gqR/wBFe1L/AMArL/5Gr9MP+CPv/BTz9vT9ov8A4KF+CPg/8bviLfa/4Y1GHU2u7GW2tY0maGynkQExwI/ysobgjoK/op/4cd/8ErTnHwg07/wLvf8A5Ir1T4Hf8EqP2AP2b/idYfGX4K/Dex0HxNpYlW1v4Z7mSSIToY3wJJmX5kJU5HQ18xi+Icqq0J0YYa0mtHZafie3h8px1KtGbqXj2ufogmdo3cmnUyJQqBR0p9fEJ31PqQooooA//9H+/iiiigBpXOfekCAU+igBixhRil2j/P8A+qnUUAjnPFIC+GtRI/595P8A0E1/lt6r/rbr/rpJ/wChGv8AUl8Ujd4d1BT3t5f/AEE1/lp6jNuuLpW4/ey9v9o185xAl+7fmf1L9G5+7mb6r2b+7nsf6O//AATjbzP2EfhKTxjwtpg/KBK+1do/z/8Aqr4p/wCCcAA/YR+E+P8AoV9M/wDRCV9sV79JJU4pdkfzjxAks0xS/wCnk/8A0pkZjBOc/pSFCOB0qWvnL4r/ALWf7N/wR8SR+D/i3410jw9qksAuo7W+uVikaIkgMAT0ypraEZydoK547t1Z9EZIXaa/ki/4OBYw/wC1F4JLdvDB/wDHruUV/QaP+CiX7DIPz/Fbw2PY30Y/rX80X/Ba344fCP45/tC+E/Enwf8AENj4ksbTw8Laa40+UTJHL9qkbaSOOh7Gve4fw1ZYxOcGkvI5MXOHJoz9V/8AggNGkf7JHiTaOvim5P4/Zrev3Z4Ax2r+an/gi7+1R+zp8Df2Z9e8LfF7xrpHh7UZ/EVxcpb3tysUjRNBAobBPqDX7CD/AIKLfsMsPm+KvhsfW+jB/nXNm1CrPF1JKLd32NKFWPJFXPtDYrLR5QyD6V5H8Jfjv8H/AI7aZd658GvElh4lsrGXyLiawmEyRylQ20leM7SDXryncM4x9a8mUXF2ktTo80Rt8hGPpX8vf/B0uP8AjFX4bH18YD/0iuK/qDk6A+pr+X7/AIOl8f8ADKfw2J7eMB/6R3Fe7wwr5pQT7v8AI8zOUvqcz8Cf+CDJx/wVV+G3tBq//pBN/jX+juT3Hev84n/ggyB/w9U+GzLkgwax/wCkE/8AhX+jrnOO3WvW48/3+D62X5s8zhX/AHVrzJQgIz607aAMCgdBS18X1ufTAKKKKACiiigD/9L+/iiiigAooooAKKKKAMTWraTULC402FgpmjaMsecb1IzjjPPbIr+XW8/4NsfD8000q/Fq9j81mYD+yEwC5Jx/x8Z74z3r+p541LZIz7dqaIwDnBHGOKwrYWnVt7RXsfScP8XZtkqqLLa7p89ua1tbXte682eN/s3/AAki+A3wI8KfBmG8bUU8M6Zbaaty6hGlFugQMVBIBOM4Br22moAFAFOrZJJWR4OIrzr1Z1qjvKTbfq9WRtknAr+cL/grP/wTw/ao/au/aY0v4jfBLQrXUtLtNAgsJJbi9htiJlnlcgLIc42sM4A+tf0ettzzUTR712kfQ+naunB4uph6nPBK5y1aamrM/iVH/BFz/goKvyJ4WsMDgY1W2HH/AH2K+M/2jv2V/jT+yZ4usvBPxu06DTtS1O0N/AsFwlzuiDmPkxkjIYHua/0N1U7sY4r+SX/g4FRG/aj8FMBg/wDCMYJHUj7XLX1OUZ1ia+K5JJao4a+EjTjzJn50fs5f8E/f2pP2qvCdz8QvgdoVnqen2V4bCWW4voLcrKgR3wrnOMMM8DNfQa/8EYP+CgyqAnhTT1HoNWth+m+v2c/4IEID+yV4kZuT/wAJRc46cYtrcV+6v3OFHSs8fxBiqWIlTilZabF0cLFxUj8hP+CQH7JXxx/ZL+E3jDwp8cdNt9LvtX1pL23FvcJc7oRbxx5Zo8jIZTjk8V+vyDCAHn1+tIqjANOACjFfLV60q03Unu9TuSsrDWQEAelfmH/wVB/4Jx6f/wAFJvhd4e+GGq+LZ/CEXh/Vxqq3FvZi9aU+S8Wwq0kQXiQnOT2r9P6hYITuJ/TtVYbE1MPUjVpO0lsyKtKNWDhNXR/OZ+wp/wAG/ugfsS/tS+HP2mdN+KV34in8PpdqNPm0xLdZBdQPAfnWdyMBz26j04r+jBW3Lk9eaeI0ZChJIPqacygDOa1xmPrYuSqYiXM13M8NhaWHjyUo2Q9eVFLTV+7Tq5DoCiiigAooooA//9P+/iiiigAooooAKKKKAEI96APelooAKKKKACmlQTk06igCIjJ21/JX/wAF/LO/uf2ofBj2lvLMqeGACY42cbvtcp25UHBwc8iv619vzbqrzWkMxLSKGJ7nr9K7MDjHhayrJXM6tJTVmfhr/wAEEba9sv2TvEVveQyQyHxRckpLG0bAG3gwfmxkZBHHcdulfuiuGUN+X0qulpEhLINuTk4AGTxyffAxViMKqBV6DioxeI9vWlVta7KjFRSih9IRkYpaK5igHHFRmIHjNSUUAMWMDv0pxAIwaWigBAMDFLRRQAUUUUAFFFFAH//U/v4ooooAKKKKACiiigAooooAKKKKACiiigAqJ+tS1E/WhCewsfeiPvRH3oj70ojRJRRRTQBRRRQAUUUUAFFFFABRRRQAUUUUAf/Z;" vertex="1" parent="1">
                    <mxGeometry x="940" y="287" width="56.04" height="53" as="geometry"/>
                </mxCell>
                <mxCell id="16" value="" style="shape=flexArrow;endArrow=classic;html=1;" edge="1" parent="1">
                    <mxGeometry width="50" height="50" relative="1" as="geometry">
                        <mxPoint x="230" y="294.5" as="sourcePoint"/>
                        <mxPoint x="300" y="294.5" as="targetPoint"/>
                    </mxGeometry>
                </mxCell>
                <mxCell id="17" value="" style="shape=flexArrow;endArrow=classic;html=1;" edge="1" parent="1">
                    <mxGeometry width="50" height="50" relative="1" as="geometry">
                        <mxPoint x="460" y="294.5" as="sourcePoint"/>
                        <mxPoint x="530" y="294.5" as="targetPoint"/>
                    </mxGeometry>
                </mxCell>
                <mxCell id="18" value="" style="shape=flexArrow;endArrow=classic;html=1;" edge="1" parent="1">
                    <mxGeometry width="50" height="50" relative="1" as="geometry">
                        <mxPoint x="780" y="294.5" as="sourcePoint"/>
                        <mxPoint x="850" y="294.5" as="targetPoint"/>
                    </mxGeometry>
                </mxCell>
                <mxCell id="19" value="" style="shape=image;imageAspect=0;aspect=fixed;verticalLabelPosition=bottom;verticalAlign=top;image=data:image/jpeg,/9j/4AAQSkZJRgABAQAASABIAAD/4QBwRXhpZgAATU0AKgAAAAgABAEGAAMAAAABAAIAAAESAAMAAAABAAEAAAEoAAMAAAABAAIAAIdpAAQAAAABAAAAPgAAAAAAA6ABAAMAAAABAAEAAKACAAQAAAABAAABc6ADAAQAAAABAAABjAAAAAD/4QkhaHR0cDovL25zLmFkb2JlLmNvbS94YXAvMS4wLwA8P3hwYWNrZXQgYmVnaW49Iu+7vyIgaWQ9Ilc1TTBNcENlaGlIenJlU3pOVGN6a2M5ZCI/PiA8eDp4bXBtZXRhIHhtbG5zOng9ImFkb2JlOm5zOm1ldGEvIiB4OnhtcHRrPSJYTVAgQ29yZSA2LjAuMCI+IDxyZGY6UkRGIHhtbG5zOnJkZj0iaHR0cDovL3d3dy53My5vcmcvMTk5OS8wMi8yMi1yZGYtc3ludGF4LW5zIyI+IDxyZGY6RGVzY3JpcHRpb24gcmRmOmFib3V0PSIiLz4gPC9yZGY6UkRGPiA8L3g6eG1wbWV0YT4gICAgICAgICAgICAgICAgICAgICAgICAgICAgICAgICAgICAgICAgICAgICAgICAgICAgICAgICAgICAgICAgICAgICAgICAgICAgICAgICAgICAgICAgICAgICAgICAgICAgICAgICAgICAgICAgICAgICAgICAgICAgICAgICAgICAgICAgICAgICAgICAgICAgICAgICAgICAgICAgICAgICAgICAgICAgICAgICAgICAgICAgICAgICAgICAgICAgICAgICAgICAgICAgICAgICAgICAgICAgICAgICAgICAgICAgICAgICAgICAgICAgICAgICAgICAgICAgICAgICAgICAgICAgICAgICAgICAgICAgICAgICAgICAgICAgICAgICAgICAgICAgICAgICAgICAgICAgICAgICAgICAgICAgICAgICAgICAgICAgICAgICAgICAgICAgICAgICAgICAgICAgICAgICAgICAgICAgICAgICAgICAgICAgICAgICAgICAgICAgICAgICAgICAgICAgICAgICAgICAgICAgICAgICAgICAgICAgICAgICAgICAgICAgICAgICAgICAgICAgICAgICAgICAgICAgICAgICAgICAgICAgICAgICAgICAgICAgICAgICAgICAgICAgICAgICAgICAgICAgICAgICAgICAgICAgICAgICAgICAgICAgICAgICAgICAgICAgICAgICAgICAgICAgICAgICAgICAgICAgICAgICAgICAgICAgICAgICAgICAgICAgICAgICAgICAgICAgICAgICAgICAgICAgICAgICAgICAgICAgICAgICAgICAgICAgICAgICAgICAgICAgICAgICAgICAgICAgICAgICAgICAgICAgICAgICAgICAgICAgICAgICAgICAgICAgICAgICAgICAgICAgICAgICAgICAgICAgICAgICAgICAgICAgICAgICAgICAgICAgICAgICAgICAgICAgICAgICAgICAgICAgICAgICAgICAgICAgICAgICAgICAgICAgICAgICAgICAgICAgICAgICAgICAgICAgICAgICAgICAgICAgICAgICAgICAgICAgICAgICAgICAgICAgICAgICAgICAgICAgICAgICAgICAgICAgICAgICAgICAgICAgICAgICAgICAgICAgICAgICAgICAgICAgICAgICAgICAgICAgICAgICAgICAgICAgICAgICAgICAgICAgICAgICAgICAgICAgICAgICAgICAgICAgICAgICAgICAgICAgICAgICAgICAgICAgICAgICAgICAgICAgICAgICAgICAgICAgICAgICAgICAgICAgICAgICAgICAgICAgICAgICAgICAgICAgICAgICAgICAgICAgICAgICAgICAgICAgICAgICAgICAgICAgICAgICAgICAgICAgICAgICAgICAgICAgICAgICAgICAgICAgICAgICAgICAgICAgICAgICAgICAgICAgICAgICAgICAgICAgICAgICAgICAgICAgICAgICAgICAgICAgICAgICAgICAgICAgICAgICAgICAgICAgICAgICAgICAgICAgICAgICAgICAgICAgICAgICAgICAgICAgICAgICAgICAgICAgICAgICAgICAgICAgICAgICAgICAgICAgICAgICAgICAgICAgICAgICAgICAgICAgICAgICAgICAgICAgICAgICAgICAgICAgICAgICAgICAgICAgICAgICAgICAgICAgICAgICAgICAgICAgICAgICAgICAgICAgICAgICAgICAgICAgICAgICAgICAgICAgICAgICAgICAgICAgICAgICAgICAgICAgICAgICAgICAgICAgICAgICAgICAgICAgICAgICAgICAgICAgICAgICAgICAgICAgICAgICAgICAgICAgICAgICAgICAgICAgICAgICAgICAgICAgICAgICAgICAgICAgICAgICAgICAgICAgICAgICAgICAgICAgICAgICAgICAgICAgICAgICAgICAgICAgICAgICAgICAgICAgICAgICAgICAgICAgICAgICAgICAgICAgICAgICAgICAgICAgICAgICAgICAgICAgICAgICAgICAgICAgICAgICAgICAgICAgICAgICAgICAgICAgICAgICAgICAgICAgICAgICAgICAgICAgICAgICAgICAgICAgICAgICAgICAgICAgICAgICAgICAgICAgICAgICAgICAgICAgICAgICAgICAgICAgICAgICAgICAgICAgICAgICAgICAgICAgICAgICAgICAgICAgICAgICAgICAgICAgICAgICAgICAgICAgICAgICAgICAgICAgICAgICAgICAgICAgICAgICAgICAgICAgICAgICAgICAgICAgICAgICAgICAgICAgICAgICAgICAgICAgICAgICAgICAgICAgICAgICAgICAgICAgICAgICAgICAgICAgICAgICAgICAgICAgICAgICAgICAgICAgICAgICAgICAgICAgICAgICAgICAgICAgICAgICAgICAgICAgICAgICAgICAgICAgICAgICAgICAgICAgICAgICAgICAgICAgICAgICAgICAgICAgICAgICA8P3hwYWNrZXQgZW5kPSJ3Ij8+AP/AABEIAYwBcwMBIgACEQEDEQH/xAAfAAABBQEBAQEBAQAAAAAAAAAAAQIDBAUGBwgJCgv/xAC1EAACAQMDAgQDBQUEBAAAAX0BAgMABBEFEiExQQYTUWEHInEUMoGRoQgjQrHBFVLR8CQzYnKCCQoWFxgZGiUmJygpKjQ1Njc4OTpDREVGR0hJSlNUVVZXWFlaY2RlZmdoaWpzdHV2d3h5eoOEhYaHiImKkpOUlZaXmJmaoqOkpaanqKmqsrO0tba3uLm6wsPExcbHyMnK0tPU1dbX2Nna4eLj5OXm5+jp6vHy8/T19vf4+fr/xAAfAQADAQEBAQEBAQEBAAAAAAAAAQIDBAUGBwgJCgv/xAC1EQACAQIEBAMEBwUEBAABAncAAQIDEQQFITEGEkFRB2FxEyIygQgUQpGhscEJIzNS8BVictEKFiQ04SXxFxgZGiYnKCkqNTY3ODk6Q0RFRkdISUpTVFVWV1hZWmNkZWZnaGlqc3R1dnd4eXqCg4SFhoeIiYqSk5SVlpeYmZqio6Slpqeoqaqys7S1tre4ubrCw8TFxsfIycrS09TV1tfY2dri4+Tl5ufo6ery8/T19vf4+fr/2wBDAAEBAQEBAQIBAQIDAgICAwQDAwMDBAYEBAQEBAYHBgYGBgYGBwcHBwcHBwcICAgICAgJCQkJCQsLCwsLCwsLCwv/2wBDAQICAgMDAwUDAwULCAYICwsLCwsLCwsLCwsLCwsLCwsLCwsLCwsLCwsLCwsLCwsLCwsLCwsLCwsLCwsLCwsLCwv/3QAEABj/2gAMAwEAAhEDEQA/AP72KKKKACiiigAooooAKKKKACiiigAooooAKKKKACiiigAooooAKKKKACiiigAooooAKKKKACiiigAooooAKKKKACiiigAooooAKKKKACiiigAooooAKKKKACiiigAooooA/9D+9iiiigAooooAKKKKACiiigAooooAKKKKACiiigAooooAKKUY71XuL2xs4TPeTJEnI3OwUA/U+lNK7stxSairtllQD1pQA5JTnnHFfmH+1f8A8FWP2Zf2YNLubZ9Uj1zXLZtpsbdsHcMHryO+evt1r8CPGf8AwW+/aR+Jt3e6n4ImTQrMTYhhAWRgpAIBOOvrX0mWcK4/HWUIcq7s8DMeJcFg3acr+h/ZoY29D+VJ5beh/Kv4hE/4K3ftlhcSeIAT6iNR/Q0v/D279sj/AKD/AP44v/xNfRLw2zD+aP3nivj/AAN/gZ/b35b56Ggxn0NfxDf8Pb/2x/8AoPf+OL/8TSf8Pb/2yP8AoP8A/ji//E0l4bZh/NH7xS4/wXSDP7edh9D+VHlt3B/Kv4hv+Ht37ZH/AEH/APxxf/iaD/wVv/bH/wCg/wD+OL/8TT/4htmH80fvGuP8Db4Gf287D6H8qRh5S7pBgep4r+If/h7d+2R/0H//ABxf/ia6jwV/wVj/AGwL/wAU2Vpda6rRvJ8wdFwQBnnion4c5hFX5oiXiDl97Siz+1MLjkjrUVfij+z/AP8ABVKzv5ItD+Mce1pGI+1RjCj8K/XTwN8TfAfxI0tdX8G6lHeQsAeOCM+1fIZhkuLwcmqsHbv0PpcBnWExcb0pr06ndUU7ggFSMU2vKPWCiiigAooooAKKKKACiiigAooooAKKKKACiiigAooooA//0f72KKKKACiiigAooooAKKKKACiiigAooooAKKKgu7yy0+3a6vpUhjQEs0jbVAHU59qaTeyE2kryZaUcZ4qtcXdna273VzIsUUYLM7NhVA65J4r8yP2qP+Cr/wCzJ+zHaNanU4/EGptuRYLFwwjcHHznJxj6Cv5Zv2wv+CxX7SP7Rt3Nonh2+OgaMCyoloWV3Qnoxz378c19NlXCeOxrT5eWPdnz2acTYPCLl5ry8j+pn9qv/gq7+zP+zHZNajUo9f1bcU+zWbglG7bsZHGfWv5dP2v/APgsf+0X+0O8+heH7gaFpDu3kpbnEyqOPmYHPOM/j6V+Qt7rOrazqMmparcyXM8/LvI24nA96zZhmUtX6hk3CWDwVpyjzT7v9D89zXibE4q8Yu0fI09e1/V/Ed42pa3O91cPgtJIxZifUkmu8+G9wyRvajGHbd+IGK8qf7temfDbLTS/7HT8a+woqz5YnylV3Tk9z18nNJSmkr1Iqyszz+Zi4NJTg5AxSE5OaLC1Eoop7JjntRoO9hldD4VkSHxFaSMcASDrXPVp6KM6tb/9dBUVFoG71Pv2ynJgRgeor2H4a/Gvx98K9Xi1bwvfSRGI5CFztJ+ma8S01mNnEw/u1okErnvXj4jDU6nuzV15nZQrul70HZ+R+8f7PH/BVawvXg8P/Gq28qZvl+1xH93+P6Zr9gPAvxL8C/ErTl1Twbfx3cZAJ2nJGfX0r+JcKQOK9e+G3xs+Jnwov4dR8FarPaeWdxjDfI31FfB5xwLhq154N8svwPtMr44xFFRhiVzR/E/tFwO9Mr8Sf2f/APgqpZT+To3xogEcj4UTxdM9Mt6Zr9d/AfxM8GfEbSU1jwtqEF3DIAwMbg4B6ZGeK/McyyTGYKTVaDt3P0rAZzhMWl7Kevbqd/RTiBwMim15J6oUUUUAFFFFABRRRQAUUUUAFFFFABRRRQB//9L+9iiiigAooooAKKKKACiiigAooooAKKKKAHKcHPsa/kl/4Lg/tsfHn4bfHNfgz8P9am0jS302N50gypk8wnOTn27V/WxX8N//AAX25/bVP/YLg/8AQnr7HgqhTqY9KpG+jPleMa8qeAbg7O6PxE1HU9U1e5a71W5luZGJJaRtxyapfSiiv26MbKy2Px+U23eWo5WKncKC5IxTaKYr3YhGRivTfhuNk82O9eZ16b8Of9fNW+Hd52M6+kT1wnJzSUUV6b3POCiiiqC4U4uSMU2igArW0If8Te3/AN8Vk1r6F/yFoP8AeFJrQaPu3TDssIQB/CKv+Y3+f/1VQ0//AI8Yf9wVcryJPVmyjcf5jf5//VR5jUyipQ1o7i5Od1et/DP42fEf4WalFdeENUmtAHBKqSQefTpz0+leR1Zs13XKe3P5VliaNOrBxqq6sbU69SE+eErM/sp/Zx8Y6p8QPhDofizXGDXF3ZxSysBjLOATxz3Ne6Mke3cp5r5h/Y6Bb9n/AMPwD+GyhA/BRX080QRM96/m7MIKOJqJd2f0Ll0nLDU2+yIaKKK4ztCiiigAooooAKKKKACiiigAooooA//T/vYooooAKKKKACinoM81DPc29vC09w6xooyWPAAFNRb0QpyUVzSZMOFJ60zzYz82Qfxr8yf2rv8Agqn+zR+zBps0U2qQ67qsbMjWdnIC8bDoGHODz61+eXwZ/wCC0njD4irceLr3TFTSpLh444g3zqqYwPrjr7172E4XzHEw9pThZeZ4mM4iwWGaVSR/SMq7kyvOe9KEOcjmvyx8B/8ABV34ReLZ1s9bs5dOl4BZz8reuOBX2Z4T/ao+CHjXamg+IrSWRiBs3hTk9sE81yYjJsZQdqlJnRh86wdf+HVR9AsjZ6UxgyjpVax1a21CIXFnKk0Z/iQgj9KvuSwBavMaadmrHqRs1dNWIFORmv4c/wDgvso/4bSLf9QuD/0Jq/uMXpX8Ov8AwX2/5PQP/YLg/wDQmr7XgT/kYfJnx3G3+4fNH4ZUUUV+1pn5G9XoFFFFIpBXpvw5/wBfNXmVem/Dn/XzV0YVe+Z4j4D1uiiivUPOCiiigAooooAK19C/5C0H+8KyK19C/wCQtB/vChjR926f/wAeMP8AuCrlU9P/AOPGH/cFXK8Z/EzVMKKKKZQVbsf+Ppfx/lVSrdj/AMfS/j/Kpn8LGj+v79jj/kg+g/8AXnF/6CK+pmUMNpr5Y/Y5IHwG0In/AJ84v/QRX1E0qqu4so+vFfzfmqvi6nqz+iMtdsJT9EHkr7/5/ClEKik8+IAM7ABunPWvLvHfxv8AhV8NF3+ONcs9NTGS08oQD8+P1rhhSnKXLGLZ1Trwgrzdj1Py0qFhCrbC3zHoK/L34v8A/BXT9kf4XwvJpmvwa88Qy6WhyQf1r8ofjN/wcUaPdWUtv8IfD81tcR5+e5+ZWweuOO1e1g+G8fif4dJ28zzK+f4Gle9RO3Y/qiMQx3pwhXv/AJ/Svwp/ZR/4K32fjnRNKHxctfs1zqKhjMuFjUEn07Y96/ZvwJ8T/BfxH0xtV8J6hBeQjqY3DYGeM4PFc2YZNi8G/wB9B27mmBzjC4tXpTXpc7vyV9/8/hTXiVVLCpEkRl3KwI9aJSDGSK8o9Qp0UUUAFFFFAH//1P72KKKKACnL1x3PA/Gm0bygLL1FAXtqfmx+2R/wU/8A2ef2PpZ9A8SXseq63H+7NjaMJZYpDjAkUZ24ByQcHFfyu/tbf8Fjv2lf2iri40Tw9ef8I9o4LJGtpujkaMnjPOMkdeK+d/8AgqTczD9v34oJn5f7ace+AiY574FfATSFSJAMiv2zhvhjB0aFPFTV5tJ6n5Jnmf4mpWnRTtFOxoa5rer+IdQl1TXruW8uZcbnlbcSQAM/Xiv0Z/ZRQJ8ImfP/AC+S/wDstfmSWZ5NxFfpt+yof+LQMP8Ap9l/9lr7RdlsfGYibm9Xc+iVlkTlDg+1aNlr+u6VKLnTLuWCQHOUODWVRTnTjNWkrnPCXs3ofQ3g/wDae+N3g2QTaZ4gujg52vIxX8gQK+0vAv8AwVb+OHh77Laa9b2t9BDkSE5DMDnH8WeOO/8AhX5V4zHimImDXlYrIsDXb9pRTb62PTw+c4uj/DqtL1P6N/BX/BWT4U6oYLLxfp9zbzyHDSx4Ma9TySa/mL/4LQ/Fnwz8X/2qY/FnhR99rJp8UfJGQRlv616KkzbihHGDX5mftPMrfEJQTlvJU/0xXJgeGMFgK3t8OnzP7kduK4ixmMo+xru6PnGiiivfPJ9AooooGgr034c/6+avMq9N+HP+vmrpwvxmeI+A9booor0zzgooooAKKKKACtfQv+QtB/vCsitfQv8AkLQf7woY0fdun/8AHjD/ALgq5VPT/wDjxh/3BVyvHe7NOwUUUUFhVqzZFuVMjbBzzjOOKq0+P7/50pK6aGk3sfth4M/4K8fss/s4/B/R/C/iGS6vr+C1SOSO2UPh14/D8a+LvjT/AMHEuqwtInwT0FPmO0fbgx2jA5+U45/H047fzafGie4/4T26y7EKxwD0xXl5JkGW718ouD8u9pKrUjeTd7PY+w/1nx3sI0YytZW0P1W+NX/BYH9rz4xSs8et/wBiBwARYs6FenTsM47etfAPjD44/F/x20g8YeI7/URIcsJ5S4P55ryYIAc1ITntXr0ctw1DSnTSXoeTiMfiKrvOo38xTLOVKs5OevSq7IBG2T/C38qlqKf/AFEn+638q9GHuq0dDgfc/YD4W7W+HOinP3bVQMe/NfTfw0+N/wASvhPqkOreENVnt/KOfLDEo3+8K+X/AITH/i22i/8AXqlekocKKKtGlVjyVY3XmZQrSpS5qbsz97fgH/wVPtdQMGi/GO0WKd8L9ogPyk9Mn+tfsT4N8b+F/iB4dj8ReELyO9s5OA8TBgG7g47j0r+IxXKSI68FWB/Kv6iv+CYRZf2VbIMxYtqF5knk8vn+tfk3GfDmGwdJYrD6XdrH6bwfxBicVUeGxGyWjP0Mooor84P0QKKKKAP/1f72KKKKACjG4EH0NFKO/wBD/KmtxS2Z/nT/APBU9Qn7ffxRI/6Dcn/oCV8AB2MYU1+gX/BVDj9vv4oj/qNSf+gJX59KcqK/ozJ/9ypL+6vyR+D5pK2Krp/zP8wY4Ga/Tb9lJQfg4z9/tkv/ALLX5kP92v03/ZR/5I23/X5L/wCy16iPKqKzufQdFFFWjmlq7jg5AxS+Y3+f/wBVMoo8xWRIpy2a/MX9psD/AIWWGH/PH+tfpynWvzG/aZ/5KOP+uP8AWk0awdj59oooqDf0CiiigaCvTfhz/r5q8yr034c/6+aurC/GZ4j4D1uiiivSPOCiiigAooooAK19C/5C0H+8KyK19C/5C0H+8KGNH3bp/wDx4w/7gq5VPT/+PGH/AHBVyvHe7NOwUUUUFhT4/vUynx/eoZcNz8j/AIzMT4/u19GNeZgYGK9K+M3/ACUC8/3jXm1Z+Z0psKKKKB3Cop/9RJ/ut/Kpain/ANRJ/ut/KmiWfr78JlH/AArTRW/6dUr0IOQMV598Jv8AkmWi/wDXqld/TlboctR2YryEKT6c1/Uj/wAExm/4xasl9NTvR+TV/LTLxEx9jX9Sv/BMb/k16zH/AFE77/0KvheP4/8ACfD/ABfoz7TgRt41+h+h9FFFfi5+xhRRRQB//9b+9iiiigApR3+h/lSUo7/Q/wAqa3Jlsz/Oq/4Kof8AJ/XxRP8A1G5P/QEr8+lGFFfoL/wVQ4/b7+KI/wCo1J/6Alfn0pJUV/RmT/7nS9F+SPwjNGvrde/836iP92v04/ZRGPg0x/6fJf8A2WvzHf7tfpx+yic/Bph/0+S/+y16iPLrX2R9BUUUVZzXtoFFFFBI+P71fmP+0z/yUcf9cf61+nEf3q/Mf9pn/ko6/wDXH+tDNKZ8+UUUVmdN0tAooooBBXpvw5/181eZV6b8Of8AXzV1YX4zPEfAet0UUV6R5wUUUUAFFFFABWvoX/IWg/3hWRWvoX/IWg/3hQxo+7dP/wCPGH/cFXKp6f8A8eMP+4KuV473Zp2CiiigsKfH96mU+P71DLgfkZ8ZT/xcS6X1Y15vXo/xl/5KNc/7zV5xWZ0oKKKKACop/wDUSf7rfyqWop/9RJ/ut/KgT2P1++E3/JMtF/69Urv64D4Tf8ky0X/r1Su/q4x7nJOOt2Ml/wBU30Nf1K/8Exv+TXbM/wDUTvv/AEKv5aZv9U30Nf1Lf8EyP+TXLP8A7Cl9/wChV8N4gy/2CCX836M+24Ft9ddu36o/Q6iiivxU/YgooooA/9f+9iiiigApR3+h/lSUo7/Q/wAqa3Jlsz/Oq/4Kof8AJ/XxRP8A1G5P/QEr8+lGFFfoL/wVQ4/b7+KI/wCo1J/6Alfn0pJUV/RmT/7nS9F+SPwfNn/tVdPu/wAxH+7X6b/so/8AJG2/6/Jf/Za/Mh/u1+nH7KIx8GmP/T5L/wCy16iPKqO259BUUUVZzy1dwooooEPj+9X5j/tM/wDJR1/64/1r9OI/vV+Y/wC0z/yUdf8Arj/WhmtM+fKKKKzNZ7oKKKKC0Fem/Dn/AF81eZV6b8Of9fNXVhfjM8R8B63RRRXpHnBRRRQAUUUUAFa+hf8AIWg/3hWRWvoX/IWg/wB4UMaPu3T/APjxh/3BVyqen/8AHjD/ALgq5XjvdmnYKKKKCwp8f3qZT4/vUMuB+Rfxl/5KNc/7zV5xXo/xl/5KNc/7zV5xWZ0oKKKKACop/wDUSf7rfyqWop/9RJ/ut/KhEyvY/X74Tf8AJMtF/wCvVK7+uA+E3/JMtF/69Urv60voctTQjm/1TfQ1/Ut/wTI/5Ncs/wDsKX3/AKFX8tM3+qb6Gv6lv+CZH/Jrln/2FL7/ANCr4HxA/wCRfD/F+h9pwH/vr9P1R+h1FFFfjJ+yBRRRQB//0P72KKKKAClHf6H+VJSjv9D/ACprcmWzP86r/gqh/wAn9fFE/wDUbk/9ASvz6UYUV+gv/BVDj9vv4oj/AKjUn/oCV+fSklRX9GZP/udL0X5I/CM0a+t17/zfqI/3a/Tn9lL/AJIyf+vyX/2WvzGf7tfpx+yic/Bph/0+S/8Asteojyq6ufQVFFFWc97aMKKKKCR8f3q/Mf8AaZ/5KOv/AFx/rX6cR/er8xv2mf8Ako4/64/1oZpB2Pn2iiiszdq7TCiiigpBXpvw5/181eZV6b8Of9fNXVhfjM8R8B63RRRXpHnBRRRQAUUUUAFa+hf8haD/AHhWRWvoX/IWg/3hQxo+7dP/AOPGH/cFXKp6f/x4w/7gq5XjvdmnYKKKKCwp8f3qZT4/vUMuB+Rfxl/5KNc/7zV5xXo/xl/5KNc/7zV5xWZ0oKKKKACo5jiCQ/7LfyqSop/9RJ/ut/KmgZ+v3wn5+GWi/wDXqld/XAfCb/kmWi/9eqV39Wzlq76kc3+qb6Gv6lv+CZH/ACa5Z/8AYUvv/Qq/lpm/1TfQ1/Ut/wAEyP8Ak1yz/wCwpff+hV8Dx/8A8i+H+L9D7TgW31127fqj9DqKKK/GT9iCiiigD//R/vYooooAKUd/of5UlKO/0P8AKmtyZbM/zqv+CqH/ACf18UT/ANRuT/0BK/PpRhRX6C/8FUOP2+/iiP8AqNSf+gJX59KSVFf0Zk/+50vRfkj8HzZ/7VXT7v8AMR/u1+m/7KP/ACRtv+vyX/2WvzIf7tfpx+yiMfBpj/0+S/8AsteojyqjtufQVFFFWc8tXcKKKKBD4/vV+Y/7TP8AyUcf9cf61+nEf3q/Mb9pn/ko4/64/wBaGaQt1Pn2iiiszo9AooooGgr034c/6+avMq9N+HP+vmrqwvxmeI+A9booor0jzgooooAKKKKACtfQv+QtB/vCsitfQv8AkLQf7woY0fdun/8AHjD/ALgq5VPT/wDjxh/3BVyvHe7NOwUUUUFhT4/vUynx/eoZcD8i/jL/AMlGuf8AeavOK9H+Mv8AyUa5/wB5q84rM6UFFFFABUU/+ok/3W/lUtRT/wCok/3W/lTQM/X74Tf8ky0X/r1Su/rgPhN/yTLRf+vVK7+rZyVdyOb/AFTfQ1/Ut/wTI/5Ncs/+wpff+hV/LTN/qm+hr+pb/gmR/wAmuWf/AGFL7/0KvgeP/wDkXw/xfofZ8B/76/T9UfodRRRX4yfsgUUUUAf/0v72KKKKAClHf6H+VJSjv9D/ACprcmWzP86r/gqh/wAn9fFE/wDUbk/9ASvz6UYUV+gv/BVDj9vv4oj/AKjUn/oCV+fSklRX9GZP/udL0X5I/CM0a+t17/zfqI/3a/Tn9lL/AJIyf+vyX/2WvzGf7tfpx+yic/Bph/0+S/8Asteojyq6ufQVFFFWc97aMKKKKCR8f3q/Mf8AaZ/5KOP+uP8AWv04j+9X5j/tM/8AJR1/64/1oZpTPnyiiiszpuloFFFFAIK9N+HP+vmrzKvTfhz/AK+aurC/GZ4j4D1uiiivSPOCiiigAooooAK19C/5C0H+8KyK19C/5C0H+8KGNH3bp/8Ax4w/7gq5VPT/APjxh/3BVyvHe7NOwUUUUFhT4/vUynx/eoZcD8i/jL/yUa5/3mrzivR/jL/yUa5/3mrziszpQUUUUAFRT/6iT/db+VS1FP8A6iT/AHW/lTQM/X74Tf8AJMtF/wCvVK7+uA+E3/JMtF/69Urv6tnLU3I5v9U30Nf1Lf8ABMj/AJNcs/8AsKX3/oVfy0zf6pvoa/qW/wCCZH/Jrln/ANhS+/8AQq+B4/8A+RfD/F+h9rwK19ddu36o/Q6iiivxk/YQooooA//T/vYooooAKUd/of5UlKO/0P8AKmtyZbM/zqv+CqH/ACf18UT/ANRuT/0BK/PpRhRX6C/8FUOP2+/iiP8AqNSf+gJX59KSVFf0Zk/+50vRfkj8HzZ/7VXT7v8AMR/u1+m/7KP/ACRtv+vyX/2WvzIf7tfpx+yiMfBpj/0+S/8AsteojyqjtufQVFFFWc8tXcKKKKBD4/vV+Y/7TP8AyUdf+uP9a/TiP71fmP8AtM/8lHX/AK4/1oZrTPnyiiiszWe6CiiigtBXpvw5/wBfNXmVem/Dn/XzV1YX4zPEfAet0UUV6R5wUUUUAFFFFABWvoX/ACFoP94VkVr6F/yFoP8AeFDGj7t0/wD48Yf9wVcqnp//AB4w/wC4KuV473Zp2CiiigsKfH96mU+P71DLgfkX8Zf+SjXP+81ecV6P8Zf+SjXP+81ecVmdKCiiigAqKf8A1En+638qlqKf/USf7rfypoGfr98Jv+SZaL/16pXf1wHwm/5Jlov/AF6pXf1bOSruRzf6pvoa/qW/4Jkf8muWf/YUvv8A0Kv5aZv9U30Nf1Lf8EyP+TXLP/sKX3/oVfA8f/8AIvh/i/Q+z4D/AN9fp+qP0Oooor8ZP2QKKKKAP//U/vYooooAKUd/of5UlKO/0P8AKmtyZbM/zqv+CqH/ACf18UT/ANRuT/0BK/PpRhRX6C/8FUOP2+/iiP8AqNSf+gJX59KSVFf0Zk/+50vRfkj8IzRr63Xv/N+oj/dr9Of2Uv8AkjJ/6/Jf/Za/MZ/u1+nH7KJz8GmH/T5L/wCy16iPKrq59BUUUVZz3towooooJHx/er8x/wBpn/ko6/8AXH+tfpxH96vzG/aZ/wCSjj/rj/WhmkHY+faKKKzN2rtMKKKKCkFem/Dn/XzV5lXpvw5/181dWF+MzxHwHrdFFFekecFFFFABRRRQAVr6F/yFoP8AeFZFa+hf8haD/eFDGj7t0/8A48Yf9wVcqnp//HjD/uCrleO92adgooooLCnx/eplPj+9Qy4H5F/GX/ko1z/vNXnFej/GX/ko1z/vNXnFZnSgooooAKin/wBRJ/ut/Kpain/1En+638qaBn6/fCb/AJJlov8A16pXf1wHwm/5Jlov/Xqld/Vs5am5HN/qm+hr+pb/AIJkf8muWf8A2FL7/wBCr+Wmb/VN9DX9S3/BMj/k1yz/AOwpff8AoVfA8f8A/Ivh/i/Q+14Fa+uu3b9UfodRRRX4yfsIUUUUAf/V/vYooooAKUd/of5UlKO/0P8AKmtyZbM/zqv+CqH/ACf18UT/ANRuT/0BK/PpRhRX6C/8FUOP2+/iiP8AqNSf+gJX59KSVFf0Zk/+50vRfkj8HzZ/7VXT7v8AMR/u1+m/7KP/ACRtv+vyX/2WvzIf7tfpx+yiMfBpj/0+S/8AsteojyqjtufQVFFFWc8tXcKKKKBD4/vV+Y/7TP8AyUcf9cf61+nEf3q/Mb9pn/ko4/64/wBaGaQt1Pn2iiiszo9AooooGgr034c/6+avMq9N+HP+vmrqwvxmeI+A9booor0jzgooooAKKKKACtfQv+QtB/vCsitfQv8AkLQf7woY0fdun/8AHjD/ALgq5VPT/wDjxh/3BVyvHe7NOwUUUUFhT4/vUynx/eoZcD8i/jL/AMlGuf8AeavOK9H+Mv8AyUa5/wB5q84rM6UFFFFABUU/+ok/3W/lUtRT/wCok/3W/lTQM/X74Tf8ky0X/r1Su/rgPhN/yTLRf+vVK7+rZyVdyOb/AFTfQ1/Ut/wTI/5Ncs/+wpff+hV/LTN/qm+hr+pb/gmR/wAmuWf/AGFL7/0KvgeP/wDkXw/xfofZ8B/76/T9UfodRRRX4yfsgUUUUAf/1v72KKKKAClHf6H+VJSjv9D/ACprcmWzP86r/gqh/wAn9fFE/wDUbk/9ASvz6UYUV+gv/BVDj9vv4oj/AKjUn/oCV+fSklRX9GZP/udL0X5I/CM0a+t17/zfqI/3a/Tn9lL/AJIyf+vyX/2WvzGf7tfpx+yic/Bph/0+S/8Asteojyq6ufQVFFFWc97aMKKKKCR8f3q/Mf8AaZ/5KOP+uP8AWv04j+9X5j/tM/8AJR1/64/1oZpTPnyiiiszpuloFFFFAIK9N+HP+vmrzKvTfhz/AK+aurC/GZ4j4D1uiiivSPOCiiigAooooAK19C/5C0H+8KyK19C/5C0H+8KGNH3bp/8Ax4w/7gq5VPT/APjxh/3BVyvHe7NOwUUUUFhT4/vUynx/eoZcD8i/jL/yUa5/3mrzivR/jL/yUa5/3mrziszpQUUUUAFRT/6iT/db+VS1FP8A6iT/AHW/lTQM/X74Tf8AJMtF/wCvVK7+uA+E3/JMtF/69Urv6tnLU3I5v9U30Nf1Lf8ABMj/AJNcs/8AsKX3/oVfy0zf6pvoa/qW/wCCZH/Jrln/ANhS+/8AQq+B4/8A+RfD/F+h9rwK19ddu36o/Q6iiivxk/YQooooA//X/vYooooAKUd/of5UlKO/0P8AKmtyZbM/zqv+CqH/ACf18UT/ANRuT/0BK/PpRhRX6C/8FUOP2+/iiP8AqNSf+gJX59KSVFf0Zk/+50vRfkj8HzZ/7VXT7v8AMR/u1+m/7KP/ACRtv+vyX/2WvzIf7tfpx+yiMfBpj/0+S/8AsteojyqjtufQVFFFWc8tXcKKKKBD4/vV+Y/7TP8AyUdf+uP9a/TiP71fmP8AtM/8lHX/AK4/1oZrTPnyiiiszWe6CiiigtBXpvw5/wBfNXmVem/Dn/XzV1YX4zPEfAet0UUV6R5wUUUUAFFFFABWvoX/ACFoP94VkVr6F/yFoP8AeFDGj7t0/wD48Yf9wVcqnp//AB4w/wC4KuV473Zp2CiiigsKfH96mU+P71DLgfkX8Zf+SjXP+81ecV6P8Zf+SjXP+81ecVmdKCiiigAqKf8A1En+638qlqKf/USf7rfypoGfr98Jv+SZaL/16pXf1wHwm/5Jlov/AF6pXf1bOSruRzf6pvoa/qW/4Jkf8muWf/YUvv8A0Kv5aZv9U30Nf1Lf8EyP+TXLP/sKX3/oVfA8f/8AIvh/i/Q+z4D/AN9fp+qP0Oooor8ZP2QKKKKAP//Q/vYooooAKUd/of5UlKO/0P8AKmtyZbM/zqv+CqH/ACf18UT/ANRuT/0BK/PpRhRX6C/8FUOP2+/iiP8AqNSf+gJX59KSVFf0Zk/+50vRfkj8IzRr63Xv/N+oj/dr9Of2Uv8AkjJ/6/Jf/Za/MZ/u1+nH7KJz8GmH/T5L/wCy16iPKrq59BUUUVZz3towooooJHx/er8x/wBpn/ko6/8AXH+tfpxH96vzG/aZ/wCSjj/rj/WhmkHY+faKKKzN2rtMKKKKCkFem/Dn/XzV5lXpvw5/181dWF+MzxHwHrdFFFekecFFFFABRRRQAVr6F/yFoP8AeFZFa+hf8haD/eFDGj7t0/8A48Yf9wVcqnp//HjD/uCrleO92adgooooLCnx/eplPj+9Qy4H5F/GX/ko1z/vNXnFej/GX/ko1z/vNXnFZnSgooooAKin/wBRJ/ut/Kpain/1En+638qaBn6/fCb/AJJlov8A16pXf1wHwm/5Jlov/Xqld/Vs5am5HN/qm+hr+pb/AIJkf8muWf8A2FL7/wBCr+Wmb/VN9DX9S3/BMj/k1yz/AOwpff8AoVfA8f8A/Ivh/i/Q+14Fa+uu3b9UfodRRRX4yfsIUUUUAf/R/vYooooAKUd/of5UlKO/0P8AKmtyZbM/zqv+CqH/ACf18UT/ANRuT/0BK/PpRhRX6Cf8FUCP+G+vij/2GpP/AEBK/PtSSor+jMn/ANzpei/JH4Pm3+9V0+/6iP8Adr9N/wBlH/kjbf8AX5L/AOy1+ZD/AHa/Tj9lEY+DTH/p8l/9lr1EeVUdtz6Coooqznlq7hRRRQIfH96vzH/aZ/5KOP8Arj/Wv04j+9X5jftM/wDJRx/1x/rQzSFup8+0UUVmdHoFFFFA0Fem/Dn/AF81eZV6b8Of9fNXVhfjM8R8B63RRRXpHnBRRRQAUUUUAFa+hf8AIWg/3hWRWvoX/IWg/wB4UMaPu3T/APjxh/3BVyqen/8AHjD/ALgq5XjvdmnYKKKKCwp8f3qZT4/vUMuB+Rfxl/5KNc/7zV5xXo/xl/5KNc/7zV5xWZ0oKKKKACop/wDUSf7rfyqWop/9RJ/ut/KmgZ+v3wm/5Jlov/Xqld/XAfCb/kmWi/8AXqld/Vs5KtyOb/VN9DX9S3/BMj/k1yz/AOwpff8AoVfy0zf6pvoa/qW/4Jkf8muWf/YUvv8A0KvgeP8A/kXw/wAX6H2fAf8Avr9P1R+h1FFFfjJ+yBRRRQB//9L+9iiiigApDwOuM8ZxnrS0YB4PSmtwtfQ/iV/4Kzf8E9f2iLH9orxt+0BpmkvqOga3ftdRSW37xwCqj7ijOMjFfg7c6bf2Extb2F4pFJBV1III9jX+p7e6ZYalbSWeoxLPFICpV1DcHr1yK/J/9rz/AIJBfs3ftJ2dzq2hW40DxBKMrdRJkBu/AHccV+l5HxvCnGGHxMbJWVz89zfhGc5zr0HdvWx/ArICoINfpx+yl/yRk/8AX5L/AOy11P7W3/BIv9pb9m29uNSsbGTX9DiyftduhLbR32jP41lfso6Jq/8Awqx7AWk+Vu5MqY2DAk46Y9q/SMHmOGxMeelNNH5/j8BiKLtUg7nttKAT0r3/AMD/ALMnxo+IUXmeGdAu51JwWKFMfgwH86+x/hx/wS6+MfiMq3jAnSVbn7of196yxOdYKjdVKqTHhMlxdf4KbPy62Pu2gHNWoNP1C6OLaCST/dUn+Qr+hz4df8EovAeglJfG9+dTBOWVV2nHplTX2b4K/Yy/Z/8AAdwtx4f0RVkHeT5849d2a+ZxPHmBpScad5HvYXgfGVdZPl9T+WvwJ8DPif48vo7fQ9HuJFdtpZlMY544LDBr8wP28fg34y+Dnxdt9D8awfZLuSzSYxHk4cn6Y6d6/wBGWz8N6Fp6hbKygixj7karnHToK/iL/wCC+Dqf2xlUDbjTYRj6M1RkXFs8xxioOPLGzOjOuFqeXYT2vNzSuj8NKKKK+6PjttAooooGgr034c/6+avMq9N+HP8Ar5q6sL8ZniPgPW6KKK9I84KKKKACiiigArX0L/kLQf7wrIrX0L/kLQf7woY0fdun/wDHjD/uCrlU9P8A+PGH/cFXK8d7s07BRRRQWFSRFRICwJHoKjqe2GZ1HvSlsxx3sfMfxs/4J7ftRN/xdLTvD7XOkXo86GSN9xMbDI6DrXwjrnw68c+G22a5pF5an/prC6jjryRiv9HX9keztL79nbwxBdQxyqbOLIdQwOFHrmvQfiF+zz8IfijYNpfjbQbS7iYbT+5QHB9wBX5g+O50a8qNaF0m1c/SVwb7WhGpSnq0j/MVdTF/rBt+tNBDDI5r+9T4t/8ABFD9jnx6JL/w/on9jXbqQJY2Zlyeny9sV+W/xY/4N09etkm1j4c+LRMF+7bPDy3PY8V7mE41wFX43y+p5eI4Qx1J2jHm9D+XSop/9RJ/ut/Kv1L+KH/BIH9tf4bzyTL4Xl1GxjJzcRsFAX1I5PtxX59+PPhJ8Rfh9ez6R4q0m5tpY0bcTG23pnrjHFfS4bH4avrSqJ/M8DFYCvh7qrBo/Tf4Tf8AJMtF/wCvVK77IBx61d/Zm+EPxE+JvgzQ9E8I6VNcyvZKy4GASCfXjgV+337PP/BKp3lh1v4w3e1GCubPZz06E/XnrXJmWf4PBRbqz17I2wOR4rGNKnDTufj74B+EPj34m6omieFrGSaW5O2MlSE9yWxgAV/U5+xF8I/FXwY+A9p4L8ZoIr9Lqe4dVOQPNbsf1r3f4c/Bn4b/AAq02PR/BOlwWsUfRgg3Z9c9a9PmXILGvyXiTiv+0oqjCNoLU/TOHuFo5fP2rleTKtFFFfHn14UUUUAf/9P+9iiiigAooooAKQDBzS0UA1cz9S0rT9YtnstViW4gkGGjcBkYehBryHQ/2c/gz4d1ObU9K0G1jaeRpWTy12Bm64GM/qa9uoreniasFaEmjGeGpS+KKZk2Gg6JpUflabaxQL6IoX+VaxwRjHFFFZupJu7epooRWyFBx0HSgHBzSUVBRMpDYzX8Mn/BfD/k84f9g6L/ANCav7mE61/DP/wXx/5POGP+gdF/6E1fa8Cr/hQT8mfIca64D5o/Dyiiiv2s/InqFFFFA0Fem/Dn/XzV5lXpvw5/181dWF+MzxHwHrdFFFekecFFFFABRRRQAVr6F/yFoP8AeFZFa+hf8haD/eFDGj7t0/8A48Yf9wVcqnp//HjD/uCrleO92adgooooLCrFp/x8L9ar1PbHE6n3qZ/Cyo7o/r3/AGOQB+z54Xb/AKc4v/QRX1M+05avlz9jkZ/Z58L/APXnH/6AK+oygA4r+bcz1xVRru/zP6Fy3/dqfohRIVUAYphbJ3YoIwBTwmD7V58vM9JNrYrvHHKjRzqJFbswyMV5j4r+Cnwn8a2EmneIvD9jPHKCGJgTdz15wa9XKKaiYYOK0p4ipD4JNGFTD0qnxxTPNfAfwi+Hnw00xdJ8F6ZDYxIfl2KAQPQHHSvSQhA3kkmlIwAacykDrxROrKTvN3ZdOnGC5YKyFEjA5pWlZhtNRUVnYsKKKKACiiigD//U/vYooooAKKKKACiiigAooooAKKKKACiiigByfeFfw0f8F78H9s9VB5/s2I/+PNX9ypJCHb1r8av+Ci3/AASd8Hftp62vxHsNSfSfEVrbrCjKgZZQmdoPB9cH25r6fhPMqODxqqV3ZPQ+c4pwFbFYLloq7ufwfFWFJg19+ftP/wDBOj9pL9ljVPI8a6LLd2jEhbm0UyR4zgE4zjNfBs6eUzRMMMpwQeCCPWv3LDYmliIc9Gaa9T8dr4arRly1YtMqUUUVuYoK9N+HP+vmrzKvTfhz/r5q6sL8ZniPgPW6KKK9I84KKKKACiiigArX0L/kLQf7wrIrX0L/AJC0H+8KGNH3bp//AB4w/wC4KuVT0/8A48Yf9wVcrx3uzTsFFFPWOR+FBJ9hQWMqe1+a5RF5JPQVu+G/CHiXxbqUWleHbGa7mlbaBEjN/IHFfq3+z/8A8EwPGXi6VdT+Kch0izBV41i/eSkdfm4x14wB9a8vMc1wmFpydaolp8z1MuyjFYuS9jC6/A/YD9jhs/s8eF2U5H2SMceoXFfUnmN/n/8AVXD/AA68CaT8NvB1h4L0M5tdPjEaE9SAMZ+p613JQAcV/POMrxrYipOns2z94wVGVKhThPdIaWLdaXzG/wA//qplFcrOwf5jf5//AFU0nJzSUUALnIxSlyRim0UAFFFFABRRRQAUUUUAf//V/vYooooAKKKKACiiigAooooAKKKKACiiigBykDrTWCk5oop36Azn/EXhHw54s0ybSvEFpFdQzqUYSoG+UjGOQfr9a/EP9rz/AIIe/AX4xwTav8IM+FtUkDPMYhuSVh8w+UjuQBxX7vKQOtNZUY55ruwWaYnCSUqEmjz8ZltDErkqwTR/nM/tOf8ABO39o79l6/lXxlos01grER3kakpIM4BAxkV8KT21xayGK6jaNh2YEH8jX+phr3hHw14qsZNO8R2MN7BIMFZkEg/DINfiN+2B/wAEP/gR8ZxceI/hT/xTuuXTtJLLy8bEnPCjpxwO3tX6VlXHtOo1Txis+6Phc14NlFueD1XY/iBr034eYWSVh3r6v/am/wCCcn7R37Ll/dS+JdFnuNJt3KrfRoTHIo6EYHGfQmvnHwBpsy6DNfzQsgWQLuZSBz7n61+kZfi6NVKpTmmn2Z8FjsJWpXhUi00dypyMmloEsXcr+dKZYuxX8xXs867nja9hKKBLFnkr+dKZYuxX8xRzruGvYSigSxZ5K/nSmWLsV/MUc67hr2ErY0BS2rwKO7CscSxZ5K/nXVeCbeLUPFdlZh1XzHI5I7An+lJziluNJ9j7bsVK2USn+4KvrE7fdGT6AV1HhfwT4g8UXkGiaBZTXdxIdipGvOR79K/VL4A/8EuvGnixLfX/AInytp1pnc1soxIy9uR+fFfL5hnGEwd5VppeXU9nAZNisXrRhddz8p/C/hHxD4u1OLS9AspryWV9gES/xdcE9B+Nfql+z5/wS48ZeNJU1v4qTnS7JSGFuF3SSL7noK/af4R/s5fCj4MaaNP8I6ZHuyGaWVQz7sep5r6FRRtHb6V+Y5zx7WqqVHCLlXfqfo+VcE0aTVTF+91t0Pnr4PfszfCT4J2RtvB+lRLI2C8siguxHfNfRLIAmRwB2FIVBp7f6mvga2JqVp885Ns+2o4elSjyU4pLyIVCquRQXIPFMzkYowetZp2Ol6gTk5pKKKQBRRRQAUUUUAFFFFABRRRQAUUUUAf/1v72KKKKACiiigAooooAKKKKACiiigAooooAKKKKACiiigBynBxTGVSc80tFJpMlxT3Ob8S+FvD/AIv0t9E8T2UV/ayE7o5kDqQRjHPavzM+JP8AwSB/ZN+IOt3OsRWs2lG4fzPLtDtVWPXGQR/9av1Xpu1Scmu7CZjicM+ajNr0OXFYDD4hctaCZ+LH/Dj/APZf/wCf/U/++1/+Jo/4cgfsv/8AQQ1P/v4v/wATX7TlBngmgIoPNet/rbm3Suzz1wxltv4SPxX/AOHIH7L/AP0ENT/77X/4ml/4cgfswf8AP/qf/fa//E1+05Rc5pQijrVf63Ztb+OyVwxl3/PpH4r/APDkD9l/tqGp/wDfa/8AxNH/AA5A/Zg/5/8AU/8Avtf/AImv2p2R9s03aKn/AFuzb/n+xvhnLV/y6R+LH/DkD9l/tqGp/wDfa/8AxNaOj/8ABFH9mbR9Ug1W3v8AUi9u4dQXGCR64Wv2W2CpIlG7HrSfFeayTjKu7MP9WstvdUkeE/Cr9nD4T/CPTUsvDGmxmVSW86RQZMkk/eIz3xXuzc4DE8VaaMMc5NMdFVSRz9a8OtXnVlz1JNvzPXw+Hp0I8lKKS8ithT1qVc446UzPsKTJ7Vjp1NbEvze1DM2zacYqLLUZNPTsOyEp244202ikAUUUUAFFFFABRRRQAUUUUAFFFFABRRRQB//X/vYooooAKKKKACiiigAooooAKKKKACiiigAooooAKKKKACiiigAooooAKKKKACiiigAooooAKcrFTuFNooEkTec3t/n8aRpWYbTUVFAwooooAKKKKACiiigAooooAKKKKACiiigAooooAKKKKACiiigD/9k=;" vertex="1" parent="1">
                    <mxGeometry x="660" y="140" width="56.21" height="60" as="geometry"/>
                </mxCell>
                <mxCell id="20" value="" style="shape=image;imageAspect=0;aspect=fixed;verticalLabelPosition=bottom;verticalAlign=top;image=data:image/jpeg,/9j/4AAQSkZJRgABAQAASABIAAD/4QBwRXhpZgAATU0AKgAAAAgABAEGAAMAAAABAAIAAAESAAMAAAABAAEAAAEoAAMAAAABAAIAAIdpAAQAAAABAAAAPgAAAAAAA6ABAAMAAAABAAEAAKACAAQAAAABAAABjKADAAQAAAABAAAAnwAAAAD/4QkhaHR0cDovL25zLmFkb2JlLmNvbS94YXAvMS4wLwA8P3hwYWNrZXQgYmVnaW49Iu+7vyIgaWQ9Ilc1TTBNcENlaGlIenJlU3pOVGN6a2M5ZCI/PiA8eDp4bXBtZXRhIHhtbG5zOng9ImFkb2JlOm5zOm1ldGEvIiB4OnhtcHRrPSJYTVAgQ29yZSA2LjAuMCI+IDxyZGY6UkRGIHhtbG5zOnJkZj0iaHR0cDovL3d3dy53My5vcmcvMTk5OS8wMi8yMi1yZGYtc3ludGF4LW5zIyI+IDxyZGY6RGVzY3JpcHRpb24gcmRmOmFib3V0PSIiLz4gPC9yZGY6UkRGPiA8L3g6eG1wbWV0YT4gICAgICAgICAgICAgICAgICAgICAgICAgICAgICAgICAgICAgICAgICAgICAgICAgICAgICAgICAgICAgICAgICAgICAgICAgICAgICAgICAgICAgICAgICAgICAgICAgICAgICAgICAgICAgICAgICAgICAgICAgICAgICAgICAgICAgICAgICAgICAgICAgICAgICAgICAgICAgICAgICAgICAgICAgICAgICAgICAgICAgICAgICAgICAgICAgICAgICAgICAgICAgICAgICAgICAgICAgICAgICAgICAgICAgICAgICAgICAgICAgICAgICAgICAgICAgICAgICAgICAgICAgICAgICAgICAgICAgICAgICAgICAgICAgICAgICAgICAgICAgICAgICAgICAgICAgICAgICAgICAgICAgICAgICAgICAgICAgICAgICAgICAgICAgICAgICAgICAgICAgICAgICAgICAgICAgICAgICAgICAgICAgICAgICAgICAgICAgICAgICAgICAgICAgICAgICAgICAgICAgICAgICAgICAgICAgICAgICAgICAgICAgICAgICAgICAgICAgICAgICAgICAgICAgICAgICAgICAgICAgICAgICAgICAgICAgICAgICAgICAgICAgICAgICAgICAgICAgICAgICAgICAgICAgICAgICAgICAgICAgICAgICAgICAgICAgICAgICAgICAgICAgICAgICAgICAgICAgICAgICAgICAgICAgICAgICAgICAgICAgICAgICAgICAgICAgICAgICAgICAgICAgICAgICAgICAgICAgICAgICAgICAgICAgICAgICAgICAgICAgICAgICAgICAgICAgICAgICAgICAgICAgICAgICAgICAgICAgICAgICAgICAgICAgICAgICAgICAgICAgICAgICAgICAgICAgICAgICAgICAgICAgICAgICAgICAgICAgICAgICAgICAgICAgICAgICAgICAgICAgICAgICAgICAgICAgICAgICAgICAgICAgICAgICAgICAgICAgICAgICAgICAgICAgICAgICAgICAgICAgICAgICAgICAgICAgICAgICAgICAgICAgICAgICAgICAgICAgICAgICAgICAgICAgICAgICAgICAgICAgICAgICAgICAgICAgICAgICAgICAgICAgICAgICAgICAgICAgICAgICAgICAgICAgICAgICAgICAgICAgICAgICAgICAgICAgICAgICAgICAgICAgICAgICAgICAgICAgICAgICAgICAgICAgICAgICAgICAgICAgICAgICAgICAgICAgICAgICAgICAgICAgICAgICAgICAgICAgICAgICAgICAgICAgICAgICAgICAgICAgICAgICAgICAgICAgICAgICAgICAgICAgICAgICAgICAgICAgICAgICAgICAgICAgICAgICAgICAgICAgICAgICAgICAgICAgICAgICAgICAgICAgICAgICAgICAgICAgICAgICAgICAgICAgICAgICAgICAgICAgICAgICAgICAgICAgICAgICAgICAgICAgICAgICAgICAgICAgICAgICAgICAgICAgICAgICAgICAgICAgICAgICAgICAgICAgICAgICAgICAgICAgICAgICAgICAgICAgICAgICAgICAgICAgICAgICAgICAgICAgICAgICAgICAgICAgICAgICAgICAgICAgICAgICAgICAgICAgICAgICAgICAgICAgICAgICAgICAgICAgICAgICAgICAgICAgICAgICAgICAgICAgICAgICAgICAgICAgICAgICAgICAgICAgICAgICAgICAgICAgICAgICAgICAgICAgICAgICAgICAgICAgICAgICAgICAgICAgICAgICAgICAgICAgICAgICAgICAgICAgICAgICAgICAgICAgICAgICAgICAgICAgICAgICAgICAgICAgICAgICAgICAgICAgICAgICAgICAgICAgICAgICAgICAgICAgICAgICAgICAgICAgICAgICAgICAgICAgICAgICAgICAgICAgICAgICAgICAgICAgICAgICAgICAgICAgICAgICAgICAgICAgICAgICAgICAgICAgICAgICAgICAgICAgICAgICAgICAgICAgICAgICAgICAgICAgICAgICAgICAgICAgICAgICAgICAgICAgICAgICAgICAgICAgICAgICAgICAgICAgICAgICAgICAgICAgICAgICAgICAgICAgICAgICAgICAgICAgICAgICAgICAgICAgICAgICAgICAgICAgICAgICAgICAgICAgICAgICAgICAgICAgICAgICAgICAgICAgICAgICAgICAgICAgICAgICAgICAgICAgICAgICAgICAgICAgICAgICAgICAgICAgICAgICAgICAgICAgICAgICAgICAgICAgICAgICAgICAgICAgICAgICAgICAgICAgICAgICAgICAgICAgICAgICAgICAgICAgICAgICAgICAgICAgICAgICAgICAgICAgICAgICAgICAgICAgICAgICAgICAgICAgICAgICAgICAgICAgICAgICAgICAgICAgICAgICAgICAgICAgICAgICAgICA8P3hwYWNrZXQgZW5kPSJ3Ij8+AP/AABEIAJ8BjAMBIgACEQEDEQH/xAAfAAABBQEBAQEBAQAAAAAAAAAAAQIDBAUGBwgJCgv/xAC1EAACAQMDAgQDBQUEBAAAAX0BAgMABBEFEiExQQYTUWEHInEUMoGRoQgjQrHBFVLR8CQzYnKCCQoWFxgZGiUmJygpKjQ1Njc4OTpDREVGR0hJSlNUVVZXWFlaY2RlZmdoaWpzdHV2d3h5eoOEhYaHiImKkpOUlZaXmJmaoqOkpaanqKmqsrO0tba3uLm6wsPExcbHyMnK0tPU1dbX2Nna4eLj5OXm5+jp6vHy8/T19vf4+fr/xAAfAQADAQEBAQEBAQEBAAAAAAAAAQIDBAUGBwgJCgv/xAC1EQACAQIEBAMEBwUEBAABAncAAQIDEQQFITEGEkFRB2FxEyIygQgUQpGhscEJIzNS8BVictEKFiQ04SXxFxgZGiYnKCkqNTY3ODk6Q0RFRkdISUpTVFVWV1hZWmNkZWZnaGlqc3R1dnd4eXqCg4SFhoeIiYqSk5SVlpeYmZqio6Slpqeoqaqys7S1tre4ubrCw8TFxsfIycrS09TV1tfY2dri4+Tl5ufo6ery8/T19vf4+fr/2wBDAAEBAQEBAQIBAQIDAgICAwQDAwMDBAYEBAQEBAYHBgYGBgYGBwcHBwcHBwcICAgICAgJCQkJCQsLCwsLCwsLCwv/2wBDAQICAgMDAwUDAwULCAYICwsLCwsLCwsLCwsLCwsLCwsLCwsLCwsLCwsLCwsLCwsLCwsLCwsLCwsLCwsLCwsLCwv/3QAEABn/2gAMAwEAAhEDEQA/AP7+KD0opD0oAiVvlORik3BeeBVeThfnPWvjb4+fts/BT9n+7OieIr03+sbd/wBgs/304/3wPljH1xXPiMXRw8OetOyO3AZbisfWWHwVNzn2R9oAgqcdqYziPmQgfrX4x6d/wWE8I3etG01DwbeRafux56XSNLt/veVtT/0Ov0e+Dv7Rfwn+PWi/2r8PdViuWj2+bbP8lxEfR42+YfiK4sDnmCxcuSjUue1nPBed5VT9tmGEnCHf/hj6JHPNFICABmlr1T5gKKKKACiiigAopMijI60ALQaTIqGdlC5JxQBHhj0ANPLeWM45r5B+Pv7ZfwY/Z9tmtvEmpC81TYdmn2f725b03fwx/WQivh/TP+CwXhKfWPsuqeDbyK0/56Q3SSyg/wC5tRf/AB+vIxefYHDz9nVqH1eVcDZ9mND6zgsJOcO//Dn7O5fGCOKAEdCBxXzV8Ef2l/hT+0FpLaj8OtTSeaEf6RayHZcw/wC9G3Ir6UA2MWNenh8RCtDnps+dxeDr4WtKhiqbhOPR6FocDFFA55orQ5gooooAKKKKACiiigAooooAKKKKACiiigAooooAKKKKACiiigAooooAKKKKACiiigAooooAKKKKAP/Q/v4pD0paD0oA/Mv/AIKB/tX6l8B/B8fg3wWw/wCEl15GEUn/AD7W68PN/v8APyD1/wB2v5yLm4vtQuZ9S1KV5bm5dnleZ2dmd/4mZq+x/wDgoN4h1bxJ+1l4jTUNwi0ow2Nujf8APJIlf9TJXxqXzMI/bNfhfGGaVMXjp0/+XcD+4fCbhfD5XktDEwX7ytHnm/0+Q9sAZFanh7xDr/hjWIfEPhe8lsNQt/mimt2ZJV/4EtZpAPBoAC18vSrOnrTZ+nV6FKtT9nVV15n7E/s3/wDBU/VbDyPCn7RtuZYjtRNXtE+b6zRL/wC081+zngn4ieEviH4fg8T+CtSt9UsLjlJrZ964r+NgMGGU5HrXqnwm+NHxI+CHiL/hIfhjq01hKP8AXJ9+3lUfwyRt8tfeZNxvXo+5jffp/wDk5+DcZ+COCxfPi8mfsqn8n2H/APIn9hhL8lQDTl3MOeK/Kr9nP/gpn4A+JptfDHxWij8L6xIFTz2b/QZX77ZG/wBX9JcV+ottexXcC3Nsyyxuu5WWv1LAZnh8XT58LPmP5izrIMxymv8AVswouE/w+82aD0pNwoJABruPGKxGU4AP8qqTbio4FYeueJtC8M6VPrXiW7htbO3TfLPMypEqj+8zYr8d/wBov/gqPZaa0/hf9niFb6bHlvq9wv7heP8AllGfmlP+/gV52ZZxhcBDnxEz6Hh7hXMc7rqjl9Ln8/sr1Z+ofxd+PHw1+CPh9te+ImqRWKH/AFSfelkb+6ka/Ma/D39pD/gpf8SfiT53h/4Rh/Dmiv8AJ9p/5f5V74P3YvxzX51eNPGni74h+IZvFPjTUbjVNQuOGnuH3tj+4tYQAUfKK/KM642xOK9zD+5A/qPg3wXy7LOTE5n++r9vsL/MLi5nubl7m5keWSV97u773dv7zM1LgdaWivjHJvVs/b4RUdIqyOl8FeNPE/w48U23jfwdfNYapZvuhmXkf7rL/wA86/qM/ZO/aH0v9pP4U23jaCNIdRhb7PqFr/zyuU+/t/2H++ntX8pE0QmiMRPWv1X/AOCSfirVbP4seIvBA3tZ3mlx3b91WWF1VW/KSvteCc1qUsbDC/YmfiPjXwthcZlM81S/f0bfON9j+heigcjNFfsx/HQUUUUAFFFFABRRRQAUUUUAFFFQ/ufagCaiiigAooooAKKKKACiiigAooooAKKKKACiiigAooooAh/c+1H7n2qaigD/0f7+Khm+7U1IelAH4If8FVP2fpdP1yx/aE0aPNteKljqmz+CVP8AUyf8D/1dfkJw3y9fWv7FPil8OfD/AMUvh/qnw88URedYarC8EvHK7vusv+5X8lPxQ+G/iH4PfEXVfhl4qiIvtMmZDIfuyp95JV/66V+P8bZO8PW+tQ+CZ/XXglxgsdl/9j15/vKPwecP/tf8jhKKKK/Pz96Ciiq9AExtwORX13+z9+2z8ZP2frqGwtLo6vof8en3rsyov/TGT70f0ORXyIq7RQVVuDXZgsbiMLPnoVOQ8fOsgwGbUPq2Pp88D+p/9nr9sH4RftG2SW/he8Flqqpvl0y7wtwv+7ztkT3jJr63GCD0561/FRb3U+m3Kalpkj2lzE++GeF2R0f+8rLX6mfs3/8ABTXxl4LWHwp8c45Ne01Nsa6jCV+2xJ/00X7sv4V+n5Hx1Ct+7zD3P75/MXGfgdi8Lz4rJX7Sn/J9tf8AyR9K/wDBSz9nv4n+M9A/4Wl4V1O7vdO0uHN3om790qx/8toVX/lp/fr8HrfkfN1r+wX4e/FD4f8Axk8Nr4l+H2oW+p2Uww7K4JX/AGXX7wr+bb9uH4HW/wADvjzfWGkxeVo+rqdQsk/hVWb541/3Jefxrz+N8pptf2hQd+c+h8FOLZwlU4dx1PkqR1hdWfnBnyNRVeivzQ/pQsUGiigCJixjyo5Nf0Kf8Eu/gHP8PvhfP8VfEUXlaj4rCNbpJ95LKL7n/fz/AFn41+QP7JP7P037RXxqsPCdzG50azK3WpN/dgRvuf8AbT/V1/VtYWFrp9tHaWyrDFEgRERdqqi8AfhX6VwDk/NL69V2+wfzT468XqFKGQ4d6y9+p/7bE6EdKKQdBS1+rH8whRRRQAUUUUAFFFFABXnnxF+JXw5+Enhubxp8T/EGneGdItf9bfarcpaW6/V5GRf1r0FPu1/JJ/wd0wQN+yV8KPtP/Q5v/wCkE9XShzyUQPrn9pn/AIOYv+CbfwL87TfhfqOo/FLV4xhYPD1vtst/+1eXHlxf9+vMr+c79qr/AIOlP28fi1a3um/s9aRo/wALtNdG8ueJP7V1PaP+m1wnk/8AktX80lV9S/5B0/8AuNXrfU6cDH2h/s0fBzU9T1j4TeF9Z1uVrm8vdJsp55G+88skKs7H6k11uv67ovhrR5tc8RXkOnWVsm+a4uZFiijT+8zN8orgvgL/AMkL8Gf9gLTf/REdfmB/wcH/APKH34y/9eemf+nK0ryrXlY2Oc/ah/4OEP8AgmN+zK91ov8AwmzePdattyfYPCUX9pfP/dNzuS1/8jV/Od+1D/wdcftP+PmuNG/ZV8DaX4Esf4NS1l/7V1D/AHli/dwRfiktfyhUV6lPBwiY+0P9YL/gkL8X/iX+0H/wTj+Fnxp+MGrS614n8R6ZNc6jfSpHG0sv2mZd22NEQdP7tfpdX5G/8EIv+USHwR/7Ak3/AKVz1+uVeVU+JmwUUUVABRRRQAUUV8iftH/twfsl/sh6d/aX7R3j/RfCXy71t727X7XKn96K2j3zy/glAH1yFC80FQ3NfyUftPf8HYH7NPgf7Tov7KvgfV/Hd8NyRX2qMNH0/d6hW33Eo/4BGfevhz/gnl/wXO/b5/bo/wCCoHwt+F3xA1jTfD/grV7+7Nzoeh2ixQyrHaTSIsk8/mTy9I/48Vt9XnbmsRzo/u8ooorEsKKKKAP/0v7+KKKKAIWAxntX5Af8FQf2dH8VeF4vjl4Xti1/okey/VPvS2Xc/wDbPrX6/dgKxNU0vTdb02fTNRjSW3nRopEf5lZX4YGuDNMBTx2Fnhp9T3uGs9r5NmNLMKD1g/vXVH8V4Jzg1YwAd1fSf7WPwFvv2dPjLfeDId40q4/0vTHb+KB2+7/2z+5XzXncmelfz1isNPDValCf2D/QHJM3oZng6eOw3wTQ+iiiuM9VhRRRQAUUUUAdd8PPiT46+EfiSLxX8PNWm0q9jPzyQtlJV/uyL92Wvob9pD9qq+/ac8J+HovFunJZa9oksyyXNvzBNBMq54b54nPl/hXyTtB+9zTGG/hDjFehTzHEQoToQqfu5nz2I4Xy3EY+nmU6f7+G01p9/cZViiivPPoRCQBk00iWRcW3Mn8EaffelYB1r9Gv+Ccf7Oa/Ff4mj4j+IYN+heGmVkLfdnvPvKv/AGz++3uRXp5Vl88Xi4YWH2z5ziziGjkmWVMwrfZ2832P1b/YV/Zx/wCFC/CaJdaixrmsbb2/J+8ruvyxfSPpX3aAACBSKFUBB+HtUqgZK1/QeDwcMPQhQhtA/wA/82zOvmOLqY3Eu85u5JRRRXUecFFFFABRRXknxZ+Nvwg+BHhKTx18a/FGl+FNGi+/eardR2kP0DSMB+AosB63RX4TfED/AIOPf+CSvgPUX0+3+Idz4hkjH3tI0m7uIvwlMSJ/49SfD7/g4+/4JLePdSTTrn4h3Ph+SQcNq+lXdtF/39WJ0/8AHqv2U+wH7rj7gr+Sz/g7m/5NM+FX/Y5yf+kFxX9Pfwl+NXwk+O3hCHx38FPE+m+K9Gm5W80q6ju4T7b42I/Ov5h/+Dt//k034U/9jlJ/6QXFXh/4iInsfwRVX1L/AJB0/wDuNViq+pf8g6f/AHGr2jnR/ss/Ab/khXgv/sBad/6Tx1+Xv/Bwh/yiB+M3/Xrpf/pytK/UL4Df8kK8F/8AYC07/wBJ46/L3/g4Q/5RA/Gb/r10v/05WleLT/iI6z/Lwooor2jk6n+p5/wQd/5RHfA//sCTf+lc9frpX5B/8EIv+UR/wP8A+wJN/wClc9fY/wC0l+2/+yb+yHpiax+0t490jwd5qlooLy5H2uYY/wCWdtHvlk/BDXh1F751n1rRX87viX/g59/4JU6Jqb6bput+JNWjj/5eLPQ5/Kb/AL/eW/8A47XtHwf/AODhr/glD8YtSj0WP4kDwzdSPsVPENlcaahb/rtInk/+P0vZT7Aft1RXH+EPGvhLx7oNp4s8Eana63pV6m+2vLGVLm3lX+8skZKn867CoAav3a/zbv8Ag5+8gf8ABVW7uD/rf+EP0T/0Kev9JFPu1/m7/wDB0J/ylUuf+xQ0f/0OeurB/wARET2P52a/Xj/gg5/ylv8Ag1/1/wB9/wCkU9fkPX6l/wDBFHxv4I+G3/BUL4S+NviPq1n4f0XTLy+e5vr+Zba3i32U6pulk+SvTxPwM50f6stFfGX/AA8Q/YF/6LX4H/8AB/Zf/Hq2PDv7dP7FnjTxDY+EfB/xY8Iatq2pTrb2djZ6zaTXM8z5CxxxrKXLn0xXh2Os+taKKKQH/9P+/iiiigApMClooA+Dv29f2dH+PXwguG0WMHXNC33unuB8zFF+aHPpJ0r+YVwHG2v7X5YhM2Oxzn3zX8lP7Wvgqz+G37SXi3wjYJ5cH277REv91bhFm2/+RK/L+PsrhFQxsNz+l/ALiOpN18mq7R9+H/tx88iiiivy8/p0QkAZNAYHpSMMirWj6NrPiDULXw94et2utQvJViihiTe0rP8AwqtWk6jsjOtWp0qbq1HZIqEEJtTdLL/zzT52pCcKFfkmv6NP2L/2HtG+BWixeOfiBHHfeLLtMu2N0Vorf8s0/wBv+/J1Jrwf9uv9g9daNz8avgpZg6kx87U9LhTi4X+KaFf+en9+Pv8A+hfZT4IxsMD9a/5efyH41hPGvKK2c/2c1alsqn9//wCR/vH4j0UUV8W01oz9pTvqgooopDRteEvCes+P/FGneAvD0fm6hq1xHb26f7T1/Wn8AvhBofwQ+F2mfDXQxhbBcyy/xSzP8zyN7uetfhZ/wS98GWniH9ouTxFfR+Z/YOnyXCn0kmZYl/8AZ6/pAj+TCNyc4zX7BwDlcIYX69P45n8j+PHElatmUMng/wB3TXM/8b/+1/MugAUtFFfoB+BBRRRQAUUV8x/tfftH+EP2RP2bvGv7Snj0GTTfB+lS37Qj71xL92GBfeWUpGP96gD8vv8Agsp/wWa+H3/BNzwjD8P/AAHFb+Jvizr9v5um6U8n+j2Fu3y/bL3b84QH/VxcGUiv86j9o/8AaZ+P37XvxIn+LP7R/ii/8Wa3cu2yS8f9zbp/zytoF/dRR/8AXJKyPj78dPiX+0v8YvEfx8+MV6+oeI/FF5Jf3j/wJv8AuRRf9M44v3cf+5XjVezh8PyHLUqBRX0f+zB+yf8AtBftl/E6H4Qfs0+F7nxNrTpvmjg2pb2kW7b5lxPJ+6iT/rq9f0XeCf8Ag0s/a61vRYdR8ffFHwtol8673tLa2ur9Ef8AutL+4z+CVpUxFOHxi1P5yf2Zv2q/2hf2OviRB8Wf2ZvFF54T1aN1eb7M++3u0T/llcwN+6lj/wCuqV+6P/BVn/gqf4I/4Ka/8E2fhprWoW8Ph/4g+F/GYh8R6Ir71Bewn23ltu+f7PL1z1hP7v0c/O37bH/Bvx/wUB/Yv8J3XxGNlYfEfwlpyNNd3/hnzGuLWJPmeSazkTzdnH7zyvMr8M/3H/HzWf7ufvgMqvqX/IOn/wBxqsVX1L/kHT/7jVuCP9ln4Df8kK8F/wDYC07/ANJ46/L7/g4L/wCUQPxm/wCvTS//AE5WlfqD8Bv+SFeC/wDsBad/6Tx1+Xv/AAcIf8ogfjN/166X/wCnK0rxaf8AER1n+XhRRRXtHIz+ri7/AOC1upfsV/8ABJP4Ifsn/ssXUP8AwtDU/DLT6rqjYlTQbS4upmRQrfKbyTnZ5uBED5hB3Cv5dvG3jbxj8SPFt94/+JGrXniHxBqTtNealqU0lzdyu/8Aelk+esnRNE1zxJrVr4b8N2M2o6lfTLbW1pbI000sszbUijVfn8yv6Qv2Z/8Ag10/br+NfhO38a/GvW9E+F0VyiumnXaSX+porf8APSKHy4ojx082uf8Ad0R6zP5pKK/qm+MP/Bp/+2T4L8Ny638HPH3hzxjcwR7/AOzZopdKml/2I5XMkR/7aPHX80/xX+E/xL+AnxG1D4UfGrQbvw14j0pvKu9Nvl2SxN/f/wCucn/LOWtadenMWp9N/sQf8FDP2rf+Cfnj+DxZ+zj4kmtNN85Xv/D147TaTqCfxrNB93/trF5c1f6Rf/BMz/gpZ8GP+ClvwM/4Wd8NWOla/pcsVv4h8P3Dq9xpl469mGPNgk6wSgYP1XaP8ouv0L/4Jeft1eKv+CeX7Yvhn466bcv/AMI3czLpvie0T7l3o1yy+duX/npb/wDHwn+5/tVz4jD82xpTqH+tGn3a/wA3f/g6E/5Sp3H/AGKWjf8AoU9f6M+h6ppuv6Xb63otwtzZ3sSzQzIfleKUblZfrX+cx/wdCf8AKVO4/wCxS0b/ANCnrkwf8VGs9j+dmiivcP2eP2ePin+1V8a9D+AXwUtodQ8UeJHlhsILm4W2id4Y2mfdLJ8v+qjr135nKeI/Zof+eaf98f8A1q+8/wDglnbQf8PMfgCfLT/kfNG/9HLX3l/xDXf8FcP+hK0T/wAH1pX1T+wd/wAEBv8Agp78B/22PhL8a/iV4T0e00Dwj4q03VdSnh1u2mdbS2k3OyRL8xPsK5qtenbQauf6EFFFFeOdZ//U/v4ooooAKQ8gijIoJHSgDNWFlbn+EYr+Wj9v3W7HWv2t/FjWvS3kt7d/96KFS1f0m/GT4jaD8JvhvrHxA8TTCK00uBpnz1Zh91V93J21/If4q8Wan418Waj4z1kf6ZqtzJdy/wC/M26vzrxCxcPYQwz3P6C8AcoqTzCvmNv3cIcnzZiUUUV+SH9ZDFPmJXrP7P8A8Wrz4FfFnTPiRBZpf/YtyTQN/FFKMNtb/np/crycbU4pGXJ3ZxiujD4mdCpTr0zhzLL6OOw1TB4j+HNWfzP7BPhL8W/BXxq8EWnjnwNdpd2N2nTOGjb+KN17MnQivNf2m/2kvA37Nvghtd8RuLm9uAY7KwRv3s8vt/sf3jX82vwI/aT+JH7PPiG61zwDdLJb3i/6RZXW5oJNnCttX/lpXHfFj4r+NvjT40m8e/Ea9+13lx8ifwRRRf8APONf7lfpmI4+h9R9yH7/ALH804PwHrQzn9/U/wBk3v8Ab/w/8E5zxX4jvPEvijU/FGoxpFcajcSXTJEuxUaVt21VrDf7tI6bmFPbOOK/L6lV1KntJn9PYajToUoUqeyFooorM36n6k/8El9ds7b41eINEn4lvtJV0/7YuN3/AKMr+hNFySw/i5r+Qf8AZv8Ai7/wpH4yaF8SlOILOXybtE/itZfll/8Ajn/AK/rb0jVbLW9Jtta02RJ7a5jWaJ0O5WV/mVq/auBcbCeB+rreB/Gnjpk9TD599da/d1oq3rHSx1I4GKKQHIpcivtj8VCiiigBidK/kq/4Oyfj3feEv2YPh9+znolz5MnjfXpdSvo0++9po8asqn2M0iH/AIBX9a2MDFfwOf8AB29rV9P+1n8JdE8z/R7bwnd3Kp/tzXu1v0jrfDR5p2InsfyaVe+zT3NzHbabG8tzK6okaffd3+VFWqNfX37Angmx8f8A7efwW8E63F51tqXjbREmjf8AjRLuJttezU2OZH+ld/wSb/YB8I/8E8/2RfDnwvsLNP8AhLNWgi1HxTfbP3t1qcybnVm/uQZ8tPZPVq/UPAPWlprNtrwG+bU7CF87Mmv827/g4u/4J++Fv2M/2uLD4pfCfTksPB3xVhn1GG0hULb2mrWrr9rijUfwSeYlwnu8lf6S3ROK/lL/AODtLwhZaj+xT8P/ABwY/wDSdF8ZxRRt/sXlpOrr+JjStsNO07ETWh/ANVfUv+QdP/uNViq+pf8AIOn/ANxq9k50f7LPwG/5IV4L/wCwFp3/AKTx1+Xv/Bwh/wAogfjN/wBeul/+nK0r9QvgN/yQrwX/ANgLTv8A0njr8vf+DhD/AJRA/Gb/AK9dL/8ATlaV4tP+IjrP8vCiiivaORn9oH/BrD+wJ4X1zTvEP/BQL4jacl1fWV7JoPhPzl3rbtCq/a7tP+mn7z7On+5J/er+28HjNfjl/wAEEfCWneEv+CSnwbg06MRHUdMudRm/2pbu7mkLfjmv2K/5Z14lepzTOiGxJX8zv/Byr+wJ4X/aF/Y+vv2qPDWnpH45+FUYvTdIv7660Tfm7gfaORHnz0542OP4q/pgU5Wvn79qvw1Y+Nv2X/iL4S1GNZbfUvDGrWzo3QpLaSr/AFqaVTlmiz/HSoqvpv8AyDoP9xasV7pxs/1GP+CB3x/v/wBob/gln8NNc1q5e61Lw3bzeGbyST72/SpGhi/8geVX8hn/AAdB/wDKVK5/7E/R/wD0Kev3n/4NMNbv7r9g3x3odx/qtN8c3Pk/9trK0Z6/Br/g57/5SqXf/YpaJ/6FPXm4f/eDo+wfzsV+vH/BBv8A5S4/Br/r/vv/AEgnr8h6/Xj/AIIOf8pb/g1/1/33/pFPXfifgZgj/U4ooorwjrCiiigD/9X+/ikPIxS0UAVmjyAM9KildQeasHgZ9K+PP2yv2hbb9nz4OXfiO0dDq99m106J/wCK4fof+Aff/CufE14YenOtPZHVgMBWx2Kp4TDK85uyPyo/4KZftGr448bQfBLwncf8SrQm83UCn3Zrvb8i/wDbPr/+zX5ZcEeUTzS3N1e6pcPqmoyPNc3DvNNI/wB93dtzs1IoGfN9a/nrOM0njsXPEzP9AuEOG6GRZTTy+jvHfzmS0UUV5h9R6iYBo2itrWPCHiPSNAsPF1/p8sel6nn7Lehd8Em1sMpb7u81hsrE8GtKlKpT/iHNh8XSr39lUvYfRRRWZ1BRRRQIKKKKAE4Jx6V+5P8AwS5/aObX9Dl/Z/8AFNzm70pPN0p3+/La/wAUf/bPp/8As1+GpIA3V0/gLx54g+F3jPTPH3haXytR0u5W4i/29vDq3+xJXvcPZnPA4qFV7M+G8QOE6ef5TUwn/Lxaw/xn9nSOrDOMGhSi/MK8Z+C/xU0L40fDfS/iH4ebNvfxKxUN88chGHRvdDxXse3Ab9K/f6VWFSHPDZn8EYjD1KFWdCsrThoy5RQOBiirMxg+6K/gy/4O5/Ct9D+0x8HvG3lf6Ne+GdQsPM/6a212sm3/AMiV/eav3RX8wf8AwdPfs3ah8WP2EdF+OmiW7zXnwv16O6udn8Gn6kv2WZ/+2cpgf8K3w/xoiex/nnV9O/sYfEix+Dn7Y3wo+KOpS+VbeH/GGjXk0n9yJLuPe3/fqvmKn3P+k17LOZH+1aCD0or8HP8Aghn/AMFNvBv7eX7LOj+CvFGpQw/E/wAC2EOn6/YO3765jhXy4r2MdZEl6OccS59s/vHnjNeFOHK7M7BijK1/Jb/wdu/ECx079kz4Z/C/zP8ASdc8Wtfon/TLTbSXe34G4Sv6ttZ1rSdF0y51XWrmOztLSJpp55mCRRxKNzMzNxtA6mv8xv8A4Ls/8FDNF/4KB/tmyXPwxuheeAfANvLoug3ADBL5nfdd3i7v4JJdmz/pikf9+t8HT5qhE9j8Uqr6l/yDp/8AcarFV9S/5B0/+41esc6P9ln4Df8AJCvBf/YC07/0njr8vv8Ag4P/AOUP3xm/689M/wDTlaV+oPwG/wCSFeC/+wFp3/pPHX5e/wDBwh/yiB+M3/Xrpf8A6crSvFp/xEdZ/l4UUUV7RyM/1Av+DfDx/pPj/wD4JI/Cf+z5hNJolte6Pcj+7LZ3cyhfwj2V+1RHyc1/AN/wbP8A/BTDwP8As8eNdY/Yg+Omqppfh/xtfrqXhy+uW2W9vrDqsc1tIzf6r7R5abP+myf7df39tyvFeNiKfLNnRDYF+7Xyl+3B8QdK+Ev7HXxT+I+sSiK30nwnq9z5jf30tJdv619X1/H1/wAHOH/BTDwV4b+D9x/wTz+FGqpqHifxHNBN4r+zv5i6fp8LLMltJt/5b3Muz90efJU/3qzpU+aaLP4TdN8/7Mn2n/WbF31PRT7jpJXunGz/AEI/+DUbwfPo3/BPXxP4vnAKa942vni/6521tbRfzDV/P9/wdBf8pUrj/sUdG/8AQp6/tW/4I+/szXv7Jf8AwTi+Fnwe1y3Frq40dNU1WP8AjS+1RmupVb3jMnl/8Ar+Oz/g6p8EXvhr/go9oHjSePNt4j8FWWz/AH7S5uY3/wDZK83D1P39zpqfAfzL1+vH/BBv/lLj8Gv+v++/9IJ6/IevrP8AYW/aPg/ZC/bF+G37TGpxPNY+EtbhvL+OH772L7obnb/008qR676v8M5kf6/tFeY/Cz4pfDv42eAdK+KPwn1q28QeH9bhW5sb+zdZoZon+YYZa9OrwjsCiiigD//W/v4pD0NLSHpQBmSTCLcSMKBnNfy3ftw/tB/8NAfGq5n0aTzNC0Ldaaf/AHG2t+9m/wCB9B7Cv1s/4KOftHSfCT4TH4e+Gbnyte8VJJbqU+/b2fSaX/2RPc1/OZCNybfWvzDj3ObL6jS/7fP6X8CuD7upn2Kh/cp/+3S/QkooHHFFflx/ToUUUGgD9uv+CZfinwv8RfhRr/7P/jS1ttQhsZnuFtbhFdZba65b5W/uSZ/76rn/ANov/gl7IJ5vEv7Olx5YxvbSLt/l+kUzd/8Arp/32K/LP4GfF3xJ8BPiZpnxM8MHzns3ZJoQcLPbv9+NjX9Ufwd+MXgf47eCLXx94EukurO5QB0J/eQSj70ci9nFfrGQfUc3wX1HFfxIH8peIMc54RzyecZXUf1es794c3VSXmfyQeIvDfiTwTrU/h3xbZzWGo23ySwXKMjp/wB9VkxypKMoelf11fGv9nT4UfHrR/7H+IulJclFPk3SfJPCfWORfmB+hr8Hf2jP+Cd3xY+Dz3HiDwGsnifQ49z/ALlP9NgT/ppGv+t/7Z8+1fO53wXicJ+8oe/A/Q+DPGXLM1th8w/c1/8AyR+j/wAz8+6KOnWivimmtGftKkmrp6BRRRSGFBGeKKKAP07/AOCZv7Qg+H/xAm+CXiK58rSvED77He3yxX3dP+2lf0QNkbivcZr+KC3uLjTbuLVNMleG5tnWaJ0++rp8yMtf1XfsgfHmH9oT4O2Hi+6kjXU7MfZNRjH8N1F1bH+398fWv1rgPOPaU/qNX7Hweh/Jnjjwd9UxcM6w6/d1Pj/x9/8At4+vR0FLQOlFfox/PwV5P8ZPhP4I+O/wt8R/B34i2f8AaGgeJ9OuNK1C3P8AHb3KNG4Hvg16xRQB/kFftzfsZ/FL9gf9pfxF+zl8To3mk06bztKv9n7rU9Mdv9HuY/8Arp/y0/6bV8iV/q5f8FJf+CX3wG/4KW/B4eAvinE+meINJaWbQfENsitd6dO3+9xLBJ/y0iJ565D/ADV/nWft0f8ABKz9s/8A4J++Jbi0+NfhebUfDgfZaeKNKSS50q4T+80i/PFJ/wBMpfLr1cPiOYwqUz4Z+HHxH8ffCbxrY/Ef4Ta3f+Gdf05/Os9S02Vra4ib/ZZa/cDwD/wcv/8ABVrwV4cTRtS1/wAPeJpY02pd6po6faP+BNbvAn/jlfgT9pguf+PaVKPtMFt/x8ypW/s6c/4hnqfpP+13/wAFbv8AgoD+29okngn4+eOpv+Ebk/12i6PCmm6fL/12WH55f+2ryV+cltpt9c20+pW0bzW1tt850T5IfO+VNzf9NP8AlnX3L+xR/wAEzv2yf2+vFcGi/s9eE7mXSJHVLnxDfq1to1on99rpk/e/9covMmr+gz/gr9/wTZ+DH/BMf/gjR4b+GPguT+1fEGsePNIuvEHiC5VYZtQu0tLtflX/AJZQR/wRf+1GqPaU4e5TCzP4/wCq+pf8g6f/AHGp39p6V/z8p/32v+FUtS1LSv7Nn/0lPuN/Gtb3QJH+zJ8Bv+SFeC/+wFp3/pPHX5ff8HBf/KIH4zf9eml/+nK0r9Qf2fv+SFeC/wDsA6d/6Tx1+X3/AAcH/wDKH74zf9eemf8ApytK8Wn/ABEdZ/l30VJ9psv+eif5/Gj7TZf89E/z+Ne1dHI0aupabfabsttbtnh+0wxXKRzIyb4pl3JKu7/lnJ/BX6vfs0f8F0v+CnP7K3hODwB4B8f/ANuaBYoqW1p4kt01UW6J8qLHPJ+/Mf8A21r+gfw//wAEafA//BTP/gjb8AviV4EvovDXxY0DwfFbabq0qMbW9tEkkb7Hehfn8v8A55ycmI9K/ko/ag/Yy/an/Yq8VzeDP2l/BOpeGJI3ZIbudPO0+4RP4obuP91Kn/A65/aU6zsx6wP0Q+MX/BxB/wAFWvjD4bl8Jjx1Z+E7a4TZNJ4b0+K0u3T/AGZ28yWI+8Tx1+K2palfalqU+palczXdzcu001xM7PLLK/zOzM3zeZVT7Tb/APPWl/4+bmO2tv30snyJGnzu/wDurWnJTgLUjr9zf+CDn/BNnW/28f2stO8a+N7Nh8M/hxeQarrVxIn7m+u4W8y209f+uh/eT/8ATFP9utf/AIJ0/wDBAH9sP9tfXLHxp8WdNvPhb8OC6vNqWqwtDqF3F/dsrST5v3n/AD1lSOH/AK6fcr/Q2/Zd/Zg+C37IPwV0f4B/AXRk0Xw5oibYY1G6WWV8b55pOss8nV5DyT7Vz4nEraBrTpn0seeK/lW/4Olf2Oda+MP7K3h39qrwPbNdaj8K72f+1I4UDudG1HYs0v8A27yxpJ34Z6/qprlvEfhvQ/Fuh3fhvxLaxahp+owSW9zbToHimhmXY8bK2fkcda86nPldzY/xeKK/p4/4Kr/8G7Hx4/Z08Uap8Zf2K9IvPGvw5une4fRbPdLq2iJks0axffuoExlJIv347/32/mV1K2n03Up9E1KJ7S+tn2TQXKNDKj/3WVvnr2adXnOZ0j6E+AX7Xn7V/wCy8Jx+zh8Q9e8HRXT75rfSr6SG3lf+80H+q/8AHK/TL9g3/gob+3r8fP8AgoX8DPCPxh+L/irxBol7440ZLixuNQdLSVHmX5ZIowiS1+Hdfen/AASp/wBJ/wCCmPwFtrf97JF450Z3jT5/kSZfm+WirTp8lwpH+t5RXzbd/tP/AAL0z4gH4Y6l4kitNekvlsIbG4ilhea4Zo12RGRQsv8ArU/1RI+avpKvDOk//9f+/ioZvu1NUM33aAP5Zf8AgoF4k1nX/wBrTxJaauG8qwMNpbo38MaxK+V+vmV8Ys6u5gNfr5/wVR+AWoaV4mtPj/oqebZ3MSWWphf+WUqf6qQ/7+fLr8hSgEnme2K/AOJ8POlmNd1D+9PDPM8LjOHMJLC/YhyNf3o7klBoor55H6B5kGdi/vjnnrUvBGeoNeu/CD4CfFf49ax/Yfw20t7uKP8A1t2/yWsH/XSQ/wBK/cn9nL/gmp8LPhR5Hir4jCPxTrsfz/vl/wBDt3x0jjP+s+sma+lyjhrFZi+eOkD844u8TcnyCn7OrU9pX/kh+v8AKfk7+zt+xB8Zv2gDFrX2b+wvDzjP9oXaHfInJ/cx/ek+pxX9Af7O37L/AML/ANmnw/JpngaGT7XeBftl5O+6a4de7H7tfRscCKEbgY44qWVH2HYAcnoTX6xkXDOFy73oe9U/nP5S4z8Sc14gfJXfJQ6Qjt8/5jQ4xULW6MMMM1MOgpa+jPz+5+fn7Sf7APwa+PguNas4DoHiGUbxqFoihZW7edH92X8a/Bz49/so/Gn9nPU3/wCEw05pNJ3bYtTtNz2rA/3m/wCWX/bWv62if3oXIx+tY+o6RZazp8umatDHc20q7JI5VDo6nswNfK5xwjhMd+8XuzP07g3xVzjIn7Gb9tQ/kn/7a+h/FuFXkpwaTMo6jNfvn+0R/wAEwfBfjJJvFPwQnXw7qMnzmyfLWMjD0HWP8Pyr8VviX8IPiT8FvER8PfE3S5tLuPm8l3+eKX/ajkX5Za/Ks34fxeX/AMWF6Z/VPCfiNk2fQSw1TlqfyT0l/wAH5HnVFFFfPH3pHtG/zfav1U/4JKa5q8Pxc8Q+Gbbf/Z1xpguJU/h82Jwqt/4+9flIuClf0Pf8EyP2edR+GPw1u/iV4qt/s2q+JyjpEy7Xis0GE/77+/8AjX1/BeHqVcxhUh9g/IvGXM8Jh+Ha2Hr/AMSbUYL5rX5H6qDoKWkHSlr9xP4oCiiigArI1HT7LVLV9O1CJJreVdjxyKGR1b+FlNa9FAH50fEj/gkx/wAE1/i9qD634++CnhK8vZCHeeLT47R3b+8xt/LyfrS/Dj/gkx/wTX+Euopq/gL4J+ErW6jO9JJtPju2Vv7ymfzP0r9FqKrnYGPpmmafoWnw6bpkKWttbrsighQIiKP4VVaxvFfgrwh4409dM8baVZ6tao29be8gS5iDL/FtkU812NFSB4t/wzt8Av8AoRfD3/gstv8A41R/wzt8Av8AoRfD3/gstv8A41XtNFO7Ao21tBY2yWtsixRRrtVF+VVVapa3omjeItOk0fW7aG8tZeHhuI1ljbv8ytwa26KQHlv/AApP4Pf9Cjon/gvg/wDiab/wpX4P/wDQpaN/4L4P/iK9Uop3YGPpmj6Vomnx6XotvFaW0SbUhhQIir/sqorL8TeE/DfizRJ/D/i6wttW0644mtbuJJon/wB5H+U11lFID87fEv8AwSb/AOCani3VZNa1z4G+DZbmT5mkTSYYQf8AgMaote3fCT9ij9j/AOAcyaj8F/hd4Y8MXUf3Z9P0q2huP+/qpv8A/Hq+pKKd2AUUUUgCiiigAr5u+MX7IX7LH7QAdvjj8O/DniuUj/X6rpkFzL/38dN//j1fSNFAH5gf8OXf+CVf2r+0f+FE+FfM9Psny/8AfO7b+lfXnwj/AGXf2bvgDb/ZvgX4B8P+E/l2/wDEq06CzZv9540DV9B0U7sDyXVPgp8J9e8X2vj7WvDtjd63YzfaLe+lhV7iKb5BuV+o/wBWn/fNetUUUgP/0P7+KQ9KWkPSgDiPFPhXRPF+gTeHfE1pFeWd2rRSwSruVlbsa/CD9oj/AIJhePfDup3WvfAiQ61pUrNJHp8zBLq3P91Xb5ZE+tf0HNGpXY3HsKa8aqgQ5ryM3yTC5jDkrI+q4W4xzTh+v7fL6mnWD+F+qP5GLD9lr9pHUtZ/4R2LwVq32jdtzNAUi/4FK3yf+P1+m/7PP/BLXToli8SfHu6W6cBXTS7Rj5S8f8tZepP/AFzxX7UeUxHIU/hVrbs4QAV4mX8E4HDT55++z7LiDxnz3MqPsKbVFdeTf7zmPDHhHw/4K0WHw74UsrfT7O2TZFDbxiNEUf7K4rqUjIpQdo460pcquTX18KagvdPySpJzfPN3ZJgUuAetFFWIKKKKAEwKCBg0tFAEA4GRXDeOfh34Q+JGiT+GvGWnW+qWFyMSQXEYdD+Brvfl2+1MBAORQ0pKzRpTqzhNTg7M/DT9oD/glVcxzTeIvgNqG4cv/ZN43HH8MU3UZ/6aZFfAFt+xZ+1Xf6j/AGMPBN9G/wB13l8tYsf9dC+2v6yiCOpqqYlc+v418djOCcvrT9pBch+s5N41cQYCh7CTjW7c+6+61z8dv2Wf+CZtv4L1G1+IHx0kh1C/g2vb6ZF81rC6/daUn/Wn6jFfsWoWCJVhHAqc4YYbmkCDGBX0GX5Zh8DT5KED8/z/AIkzDOcV9azCpzPp5eiJxyM0tFFeieEFFFFABRRRQAUUUUAFFFFABRRRQAUUUUAFFFFABRRRQAUUUUAFFFFABRRRQAUUUUAFFFFABRRRQB//2Q==;" vertex="1" parent="1">
                    <mxGeometry x="570" y="370" width="97.13" height="39" as="geometry"/>
                </mxCell>
            </root>
        </mxGraphModel>
    </diagram>
</mxfile>